G04 Layer_Color=255*
%FSLAX25Y25*%
%MOIN*%
G70*
G01*
G75*
%ADD14R,0.03000X0.03000*%
%ADD15R,0.03000X0.03000*%
%ADD17R,0.01378X0.03937*%
%ADD18R,0.01378X0.03937*%
%ADD45C,0.05906*%
G04:AMPARAMS|DCode=46|XSize=39.37mil|YSize=66mil|CornerRadius=0mil|HoleSize=0mil|Usage=FLASHONLY|Rotation=295.000|XOffset=0mil|YOffset=0mil|HoleType=Round|Shape=Round|*
%AMOVALD46*
21,1,0.02663,0.03937,0.00000,0.00000,25.0*
1,1,0.03937,-0.01207,-0.00563*
1,1,0.03937,0.01207,0.00563*
%
%ADD46OVALD46*%

%ADD47O,0.03937X0.07087*%
%ADD48O,0.03937X0.08268*%
%ADD49C,0.02559*%
%ADD50C,0.03543*%
%ADD51P,0.05011X4X360.0*%
%ADD52C,0.05118*%
%ADD53C,0.06200*%
%ADD54C,0.06299*%
%ADD55R,0.07874X0.07874*%
%ADD56C,0.07874*%
%ADD57P,0.05011X4X270.0*%
%ADD58O,0.07000X0.06000*%
%ADD59R,0.07000X0.06000*%
%ADD60R,0.05906X0.05906*%
G04:AMPARAMS|DCode=62|XSize=47.24mil|YSize=78.74mil|CornerRadius=0mil|HoleSize=0mil|Usage=FLASHONLY|Rotation=135.000|XOffset=0mil|YOffset=0mil|HoleType=Round|Shape=Round|*
%AMOVALD62*
21,1,0.03150,0.04724,0.00000,0.00000,225.0*
1,1,0.04724,0.01114,0.01114*
1,1,0.04724,-0.01114,-0.01114*
%
%ADD62OVALD62*%

G04:AMPARAMS|DCode=63|XSize=47.24mil|YSize=78.74mil|CornerRadius=0mil|HoleSize=0mil|Usage=FLASHONLY|Rotation=45.000|XOffset=0mil|YOffset=0mil|HoleType=Round|Shape=Round|*
%AMOVALD63*
21,1,0.03150,0.04724,0.00000,0.00000,135.0*
1,1,0.04724,0.01114,-0.01114*
1,1,0.04724,-0.01114,0.01114*
%
%ADD63OVALD63*%

%ADD64R,0.01181X0.05906*%
%ADD65R,0.03937X0.07874*%
%ADD66R,0.07874X0.03937*%
D14*
X560494Y382750D02*
D03*
X560500Y377300D02*
D03*
D15*
X480250Y385006D02*
D03*
X474800Y385000D02*
D03*
X480250Y379006D02*
D03*
X474800Y379000D02*
D03*
X481250Y345711D02*
D03*
X475800Y345705D02*
D03*
X566250Y337837D02*
D03*
X560800Y337831D02*
D03*
X566250Y329506D02*
D03*
X560800Y329500D02*
D03*
D17*
X564661Y443429D02*
D03*
X567220D02*
D03*
X569779D02*
D03*
X572339Y443429D02*
D03*
X564661Y435545D02*
D03*
X567220D02*
D03*
X569779D02*
D03*
D18*
X572339D02*
D03*
D45*
X408372Y513141D02*
D03*
X411542Y506344D02*
D03*
X414500Y500000D02*
D03*
X617200Y413800D02*
D03*
Y423800D02*
D03*
Y433800D02*
D03*
D46*
X404991Y520392D02*
D03*
X417881Y492750D02*
D03*
D47*
X538130Y529370D02*
D03*
X504114D02*
D03*
D48*
X538130Y513031D02*
D03*
X504114D02*
D03*
D49*
X532500Y515000D02*
D03*
X509744D02*
D03*
D50*
X382966Y282534D02*
D03*
X659534Y572466D02*
D03*
X377534Y567034D02*
D03*
X664466Y291213D02*
D03*
D51*
X377963Y287537D02*
D03*
X664537Y567463D02*
D03*
D52*
X415500Y322000D02*
D03*
X441200Y361300D02*
D03*
X625500Y532000D02*
D03*
X414500Y537500D02*
D03*
X623000Y314000D02*
D03*
D53*
X457200Y328400D02*
D03*
X431609D02*
D03*
X457200Y348400D02*
D03*
X431609D02*
D03*
D54*
X511216Y487000D02*
D03*
X475783D02*
D03*
D55*
X446000Y527500D02*
D03*
D56*
X457811D02*
D03*
D57*
X382537Y572037D02*
D03*
X659463Y286211D02*
D03*
D58*
X459500Y399500D02*
D03*
Y419500D02*
D03*
Y429500D02*
D03*
Y439500D02*
D03*
Y449500D02*
D03*
Y409500D02*
D03*
Y389500D02*
D03*
X588500Y399500D02*
D03*
Y419500D02*
D03*
Y429500D02*
D03*
Y439500D02*
D03*
Y449500D02*
D03*
Y409500D02*
D03*
Y389500D02*
D03*
D59*
X459500Y459500D02*
D03*
X588500D02*
D03*
D60*
X617200Y443800D02*
D03*
D62*
X367784Y282136D02*
D03*
X376135Y273784D02*
D03*
X362216Y259864D02*
D03*
X353865Y268216D02*
D03*
X674716Y573364D02*
D03*
X666364Y581716D02*
D03*
X680284Y595636D02*
D03*
X688635Y587284D02*
D03*
D63*
X375636Y582216D02*
D03*
X367284Y573865D02*
D03*
X353364Y587784D02*
D03*
X361716Y596136D02*
D03*
X664864Y274784D02*
D03*
X673216Y283136D02*
D03*
X687136Y269216D02*
D03*
X678784Y260864D02*
D03*
D64*
X507933Y510079D02*
D03*
X511083D02*
D03*
X512264D02*
D03*
X514232D02*
D03*
X516201D02*
D03*
X518169D02*
D03*
X520138D02*
D03*
X522106D02*
D03*
X524075D02*
D03*
X526043D02*
D03*
X528012D02*
D03*
X529980D02*
D03*
X531161D02*
D03*
X533130D02*
D03*
X534311D02*
D03*
X509114D02*
D03*
D65*
X541087Y393368D02*
D03*
X533087D02*
D03*
X525087D02*
D03*
X517008D02*
D03*
X509087D02*
D03*
X501087D02*
D03*
D66*
X490008Y385154D02*
D03*
X553000Y385311D02*
D03*
Y377279D02*
D03*
Y369563D02*
D03*
Y361610D02*
D03*
Y353500D02*
D03*
Y345705D02*
D03*
Y337752D02*
D03*
Y329957D02*
D03*
X490008Y330075D02*
D03*
Y337831D02*
D03*
Y345705D02*
D03*
Y353461D02*
D03*
Y361492D02*
D03*
Y369406D02*
D03*
Y377240D02*
D03*
M02*
