G04 Layer_Color=8421504*
%FSLAX25Y25*%
%MOIN*%
G70*
G01*
G75*
%ADD14R,0.03000X0.03000*%
%ADD15R,0.03000X0.03000*%
%ADD16P,0.04243X4X180.0*%
%ADD17R,0.01378X0.03937*%
%ADD18R,0.01378X0.03937*%
%ADD19R,0.02362X0.05512*%
%ADD20R,0.05512X0.02362*%
%ADD21R,0.05512X0.02165*%
G04:AMPARAMS|DCode=22|XSize=11.81mil|YSize=82.68mil|CornerRadius=0mil|HoleSize=0mil|Usage=FLASHONLY|Rotation=315.000|XOffset=0mil|YOffset=0mil|HoleType=Round|Shape=Round|*
%AMOVALD22*
21,1,0.07087,0.01181,0.00000,0.00000,45.0*
1,1,0.01181,-0.02506,-0.02506*
1,1,0.01181,0.02506,0.02506*
%
%ADD22OVALD22*%

G04:AMPARAMS|DCode=23|XSize=11.81mil|YSize=82.68mil|CornerRadius=0mil|HoleSize=0mil|Usage=FLASHONLY|Rotation=45.000|XOffset=0mil|YOffset=0mil|HoleType=Round|Shape=Round|*
%AMOVALD23*
21,1,0.07087,0.01181,0.00000,0.00000,135.0*
1,1,0.01181,0.02506,-0.02506*
1,1,0.01181,-0.02506,0.02506*
%
%ADD23OVALD23*%

%ADD24R,0.02362X0.05709*%
%ADD25O,0.00800X0.02400*%
%ADD26O,0.02400X0.00800*%
G04:AMPARAMS|DCode=27|XSize=59.06mil|YSize=51.18mil|CornerRadius=0mil|HoleSize=0mil|Usage=FLASHONLY|Rotation=225.000|XOffset=0mil|YOffset=0mil|HoleType=Round|Shape=Rectangle|*
%AMROTATEDRECTD27*
4,1,4,0.00278,0.03897,0.03897,0.00278,-0.00278,-0.03897,-0.03897,-0.00278,0.00278,0.03897,0.0*
%
%ADD27ROTATEDRECTD27*%

G04:AMPARAMS|DCode=28|XSize=23.62mil|YSize=55.12mil|CornerRadius=0mil|HoleSize=0mil|Usage=FLASHONLY|Rotation=315.000|XOffset=0mil|YOffset=0mil|HoleType=Round|Shape=Rectangle|*
%AMROTATEDRECTD28*
4,1,4,-0.02784,-0.01114,0.01114,0.02784,0.02784,0.01114,-0.01114,-0.02784,-0.02784,-0.01114,0.0*
%
%ADD28ROTATEDRECTD28*%

%ADD29P,0.04243X4X90.0*%
%ADD30R,0.03543X0.03740*%
%ADD31R,0.03543X0.03740*%
%ADD32R,0.03858X0.03661*%
%ADD33R,0.11811X0.07874*%
G04:AMPARAMS|DCode=34|XSize=23.62mil|YSize=55.12mil|CornerRadius=0mil|HoleSize=0mil|Usage=FLASHONLY|Rotation=225.000|XOffset=0mil|YOffset=0mil|HoleType=Round|Shape=Rectangle|*
%AMROTATEDRECTD34*
4,1,4,-0.01114,0.02784,0.02784,-0.01114,0.01114,-0.02784,-0.02784,0.01114,-0.01114,0.02784,0.0*
%
%ADD34ROTATEDRECTD34*%

G04:AMPARAMS|DCode=35|XSize=59.06mil|YSize=51.18mil|CornerRadius=0mil|HoleSize=0mil|Usage=FLASHONLY|Rotation=315.000|XOffset=0mil|YOffset=0mil|HoleType=Round|Shape=Rectangle|*
%AMROTATEDRECTD35*
4,1,4,-0.03897,0.00278,-0.00278,0.03897,0.03897,-0.00278,0.00278,-0.03897,-0.03897,0.00278,0.0*
%
%ADD35ROTATEDRECTD35*%

G04:AMPARAMS|DCode=36|XSize=44.49mil|YSize=70.87mil|CornerRadius=0mil|HoleSize=0mil|Usage=FLASHONLY|Rotation=335.000|XOffset=0mil|YOffset=0mil|HoleType=Round|Shape=Rectangle|*
%AMROTATEDRECTD36*
4,1,4,-0.03514,-0.02271,-0.00519,0.04151,0.03514,0.02271,0.00519,-0.04151,-0.03514,-0.02271,0.0*
%
%ADD36ROTATEDRECTD36*%

%ADD37R,0.03000X0.02500*%
%ADD38R,0.02500X0.03000*%
%ADD39R,0.04528X0.05512*%
%ADD40R,0.08900X0.08900*%
%ADD41O,0.03937X0.00984*%
%ADD42O,0.00984X0.03937*%
D14*
X576894Y434150D02*
D03*
X576900Y439600D02*
D03*
X571494Y454750D02*
D03*
X571500Y460200D02*
D03*
X510694Y465550D02*
D03*
X510700Y471000D02*
D03*
X485006Y472750D02*
D03*
X485000Y467300D02*
D03*
X478506Y472750D02*
D03*
X478500Y467300D02*
D03*
X467994Y409750D02*
D03*
X468000Y415200D02*
D03*
X467994Y398750D02*
D03*
X468000Y404200D02*
D03*
X467994Y387750D02*
D03*
X468000Y393200D02*
D03*
X465406Y345950D02*
D03*
X465400Y340500D02*
D03*
X465394Y328450D02*
D03*
X465400Y333900D02*
D03*
X559006Y504250D02*
D03*
X559000Y498800D02*
D03*
X492356Y505750D02*
D03*
X492362Y511200D02*
D03*
X595500Y346500D02*
D03*
X595494Y341050D02*
D03*
X549494Y360682D02*
D03*
X549500Y366131D02*
D03*
D15*
X565850Y430006D02*
D03*
X571300Y430000D02*
D03*
X565250Y448494D02*
D03*
X570700Y448487D02*
D03*
X571800Y466494D02*
D03*
X566350Y466500D02*
D03*
X520050Y464506D02*
D03*
X525500Y464500D02*
D03*
X520050Y471006D02*
D03*
X525500Y471000D02*
D03*
Y477000D02*
D03*
X520050Y477006D02*
D03*
X479450Y445794D02*
D03*
X474000Y445800D02*
D03*
X479537Y424494D02*
D03*
X474087Y424500D02*
D03*
X474037Y419506D02*
D03*
X479487Y419500D02*
D03*
X434650Y398806D02*
D03*
X440100Y398800D02*
D03*
X443750Y422506D02*
D03*
X449200Y422500D02*
D03*
X431750Y422506D02*
D03*
X437200Y422500D02*
D03*
X443750Y428006D02*
D03*
X449200Y428000D02*
D03*
X443250Y465584D02*
D03*
X448700Y465578D02*
D03*
X552750Y501994D02*
D03*
X547300Y502000D02*
D03*
X547250Y508006D02*
D03*
X552700Y508000D02*
D03*
X547173Y520406D02*
D03*
X552623Y520400D02*
D03*
X486612Y530306D02*
D03*
X492062Y530300D02*
D03*
X487112Y505494D02*
D03*
X481662Y505500D02*
D03*
X487112Y511494D02*
D03*
X481662Y511500D02*
D03*
X446250Y509006D02*
D03*
X451700Y509000D02*
D03*
X451750Y514994D02*
D03*
X446300Y515000D02*
D03*
X600000Y373500D02*
D03*
X605450Y373494D02*
D03*
X599991Y368443D02*
D03*
X605441Y368437D02*
D03*
X599991Y363506D02*
D03*
X605441Y363500D02*
D03*
X599991Y358506D02*
D03*
X605441Y358500D02*
D03*
X605490Y353494D02*
D03*
X600040Y353500D02*
D03*
X596650Y331520D02*
D03*
X591200Y331526D02*
D03*
X596750Y325494D02*
D03*
X591300Y325500D02*
D03*
X569050Y337506D02*
D03*
X574500Y337500D02*
D03*
X569050Y331506D02*
D03*
X574500Y331500D02*
D03*
X558050Y350506D02*
D03*
X563500Y350500D02*
D03*
X549350Y350294D02*
D03*
X543900Y350300D02*
D03*
X554050Y448506D02*
D03*
X559500Y448500D02*
D03*
D16*
X552560Y425949D02*
D03*
X556409Y422091D02*
D03*
X533440Y452051D02*
D03*
X529591Y455909D02*
D03*
X529940Y448551D02*
D03*
X526091Y452409D02*
D03*
X363560Y271949D02*
D03*
X367409Y268091D02*
D03*
X388060Y296949D02*
D03*
X391909Y293091D02*
D03*
X411940Y310551D02*
D03*
X408091Y314409D02*
D03*
X678940Y582551D02*
D03*
X675091Y586409D02*
D03*
X653000Y559000D02*
D03*
X649151Y562858D02*
D03*
X628060Y544949D02*
D03*
X631909Y541091D02*
D03*
X409440Y531551D02*
D03*
X405591Y535409D02*
D03*
X629060Y323449D02*
D03*
X632909Y319591D02*
D03*
D17*
X564661Y435545D02*
D03*
X567220D02*
D03*
X569779D02*
D03*
X572339Y435545D02*
D03*
X564661Y443429D02*
D03*
X567220D02*
D03*
X569779D02*
D03*
D18*
X572339D02*
D03*
D19*
X557260Y455000D02*
D03*
X564741D02*
D03*
X561001Y464898D02*
D03*
X433460Y405500D02*
D03*
X440941D02*
D03*
X437201Y415398D02*
D03*
X449741Y459397D02*
D03*
X442260D02*
D03*
X446000Y449500D02*
D03*
D20*
X550201Y474240D02*
D03*
Y466759D02*
D03*
X560098Y470499D02*
D03*
D21*
X505000Y463560D02*
D03*
Y467300D02*
D03*
Y471040D02*
D03*
X493189D02*
D03*
Y467300D02*
D03*
Y463560D02*
D03*
X480457Y517260D02*
D03*
Y524740D02*
D03*
Y521000D02*
D03*
X492268Y524740D02*
D03*
Y517260D02*
D03*
D22*
X534612Y446923D02*
D03*
X536004Y445531D02*
D03*
X537396Y444139D02*
D03*
X538788Y442747D02*
D03*
X540180Y441355D02*
D03*
X541572Y439963D02*
D03*
X542964Y438572D02*
D03*
X544355Y437180D02*
D03*
X545747Y435788D02*
D03*
X547139Y434396D02*
D03*
X548531Y433004D02*
D03*
X549923Y431612D02*
D03*
X526388Y408077D02*
D03*
X524996Y409469D02*
D03*
X523604Y410861D02*
D03*
X522212Y412253D02*
D03*
X520820Y413645D02*
D03*
X519428Y415036D02*
D03*
X518037Y416429D02*
D03*
X516645Y417820D02*
D03*
X515253Y419212D02*
D03*
X513861Y420604D02*
D03*
X512469Y421996D02*
D03*
X511077Y423388D02*
D03*
D23*
X549853Y423459D02*
D03*
X548460Y422067D02*
D03*
X547069Y420675D02*
D03*
X545677Y419283D02*
D03*
X544285Y417891D02*
D03*
X542893Y416499D02*
D03*
X541501Y415107D02*
D03*
X540109Y413715D02*
D03*
X538717Y412323D02*
D03*
X537325Y410931D02*
D03*
X535933Y409540D02*
D03*
X534541Y408148D02*
D03*
X511077Y431612D02*
D03*
X512469Y433004D02*
D03*
X513861Y434396D02*
D03*
X515253Y435788D02*
D03*
X516645Y437180D02*
D03*
X518037Y438572D02*
D03*
X519428Y439963D02*
D03*
X520820Y441355D02*
D03*
X522212Y442747D02*
D03*
X523604Y444139D02*
D03*
X524996Y445531D02*
D03*
X526388Y446923D02*
D03*
D24*
X503500Y449900D02*
D03*
X508100D02*
D03*
X498900D02*
D03*
D25*
X471563Y428799D02*
D03*
X473138D02*
D03*
X474713D02*
D03*
X476287D02*
D03*
X477862D02*
D03*
X479437D02*
D03*
Y441201D02*
D03*
X477862D02*
D03*
X476287D02*
D03*
X474713D02*
D03*
X473138D02*
D03*
X471563D02*
D03*
D26*
X481701Y431063D02*
D03*
Y432638D02*
D03*
Y434213D02*
D03*
Y435787D02*
D03*
Y437362D02*
D03*
Y438937D02*
D03*
X469299D02*
D03*
Y437362D02*
D03*
Y435787D02*
D03*
Y434213D02*
D03*
Y432638D02*
D03*
Y431063D02*
D03*
D27*
X389400Y311936D02*
D03*
X379500Y302036D02*
D03*
X650101Y542100D02*
D03*
X660000Y552000D02*
D03*
D28*
X406740Y305391D02*
D03*
X401450Y310680D02*
D03*
X397096Y301037D02*
D03*
X633320Y550109D02*
D03*
X638610Y544820D02*
D03*
X642964Y554463D02*
D03*
D29*
X420449Y317940D02*
D03*
X416591Y314091D02*
D03*
X620051Y537060D02*
D03*
X623909Y540909D02*
D03*
X402051Y539151D02*
D03*
X405909Y543000D02*
D03*
X390500Y563000D02*
D03*
X386642Y559151D02*
D03*
X363051Y583060D02*
D03*
X366909Y586909D02*
D03*
X528949Y405440D02*
D03*
X525091Y401591D02*
D03*
X636949Y315440D02*
D03*
X633091Y311591D02*
D03*
X651051Y294808D02*
D03*
X654909Y298657D02*
D03*
X678449Y274440D02*
D03*
X674591Y270591D02*
D03*
X508249Y441740D02*
D03*
X504391Y437891D02*
D03*
D30*
X442510Y433874D02*
D03*
X446250Y443126D02*
D03*
D31*
X449990Y433874D02*
D03*
D32*
X565900Y503932D02*
D03*
Y497868D02*
D03*
X472962Y518569D02*
D03*
Y524632D02*
D03*
X496700Y425069D02*
D03*
Y431132D02*
D03*
D33*
X538500Y467000D02*
D03*
Y487000D02*
D03*
D34*
X397391Y543820D02*
D03*
X402680Y549110D02*
D03*
X393037Y553464D02*
D03*
X641609Y310927D02*
D03*
X636320Y305638D02*
D03*
X645963Y301284D02*
D03*
D35*
X638600Y293899D02*
D03*
X648500Y284000D02*
D03*
X407000Y558000D02*
D03*
X397100Y567900D02*
D03*
D36*
X611316Y307021D02*
D03*
X600683Y311979D02*
D03*
D37*
X585500Y343000D02*
D03*
X580500D02*
D03*
D38*
Y332000D02*
D03*
Y337000D02*
D03*
X585500Y332000D02*
D03*
Y337000D02*
D03*
D39*
X563500Y357500D02*
D03*
X557201Y366161D02*
D03*
X563500D02*
D03*
X557201Y357500D02*
D03*
D40*
X583000Y361500D02*
D03*
D41*
X591400Y365400D02*
D03*
Y363432D02*
D03*
Y361463D02*
D03*
Y359494D02*
D03*
Y357526D02*
D03*
X574526D02*
D03*
Y359494D02*
D03*
Y361463D02*
D03*
Y363432D02*
D03*
Y365400D02*
D03*
D42*
X586900Y353026D02*
D03*
X584932D02*
D03*
X582963D02*
D03*
X580995D02*
D03*
X579026D02*
D03*
Y369900D02*
D03*
X580995D02*
D03*
X582963D02*
D03*
X584932D02*
D03*
X586900D02*
D03*
M02*
