G04 Layer_Color=32896*
%FSLAX25Y25*%
%MOIN*%
G70*
G01*
G75*
%ADD10C,0.00600*%
%ADD12C,0.02000*%
%ADD44C,0.01000*%
%ADD67C,0.00400*%
%ADD68C,0.00984*%
%ADD71C,0.01181*%
%ADD72C,0.00500*%
%ADD77R,0.03000X0.01000*%
%ADD78R,0.01000X0.03000*%
G36*
X500008Y327575D02*
X495008Y330075D01*
X500008Y332575D01*
Y327575D01*
D02*
G37*
D10*
X472500Y387006D02*
X475000D01*
X472500Y383006D02*
Y387006D01*
Y383006D02*
X475000D01*
X480000D02*
X482500D01*
Y387006D01*
X480000D02*
X482500D01*
X472500Y381006D02*
X475000D01*
X472500Y377006D02*
Y381006D01*
Y377006D02*
X475000D01*
X480000D02*
X482500D01*
Y381006D01*
X480000D02*
X482500D01*
X473500Y347711D02*
X476000D01*
X473500Y343711D02*
Y347711D01*
Y343711D02*
X476000D01*
X481000D02*
X483500D01*
Y347711D01*
X481000D02*
X483500D01*
X558500Y339837D02*
X561000D01*
X558500Y335837D02*
Y339837D01*
Y335837D02*
X561000D01*
X566000D02*
X568500D01*
Y339837D01*
X566000D02*
X568500D01*
X558500Y331506D02*
X561000D01*
X558500Y327506D02*
Y331506D01*
Y327506D02*
X561000D01*
X566000D02*
X568500D01*
Y331506D01*
X566000D02*
X568500D01*
X558494Y375000D02*
Y377500D01*
Y375000D02*
X562494D01*
Y377500D01*
Y382500D02*
Y385000D01*
X558494D02*
X562494D01*
X558494Y382500D02*
Y385000D01*
D12*
X362525Y274889D02*
X364647Y277010D01*
X366768Y274889D01*
X362525D02*
X366768D01*
X677853Y578490D02*
X679975Y580611D01*
X675732D02*
X677853Y578490D01*
X675732Y580611D02*
X679975D01*
X368389Y587475D02*
X370510Y585354D01*
X368389Y583232D02*
X370510Y585354D01*
X368389Y583232D02*
Y587475D01*
X669990Y271646D02*
X672111Y269525D01*
X669990Y271646D02*
X672111Y273768D01*
Y269525D02*
Y273768D01*
D44*
X500122Y505169D02*
X542122D01*
Y539803D01*
X500122D02*
X542122D01*
X500122Y505169D02*
Y539803D01*
X489679Y297118D02*
Y326467D01*
Y388801D02*
Y391368D01*
X553330Y297118D02*
Y326468D01*
Y388800D02*
Y391368D01*
X489679Y297118D02*
X553330D01*
X489679Y391368D02*
X553330D01*
D67*
X574200Y445787D02*
G03*
X574200Y445787I-200J0D01*
G01*
X556900Y403099D02*
Y400600D01*
X556400Y400100D01*
X555401D01*
X554901Y400600D01*
Y403099D01*
X553901Y402599D02*
X553401Y403099D01*
X552401D01*
X551902Y402599D01*
Y402099D01*
X552401Y401600D01*
X551902Y401100D01*
Y400600D01*
X552401Y400100D01*
X553401D01*
X553901Y400600D01*
Y401100D01*
X553401Y401600D01*
X553901Y402099D01*
Y402599D01*
X553401Y401600D02*
X552401D01*
X574000Y451599D02*
Y449100D01*
X573500Y448600D01*
X572501D01*
X572001Y449100D01*
Y451599D01*
X571001D02*
X569002D01*
Y451099D01*
X571001Y449100D01*
Y448600D01*
X398768Y521080D02*
X398527Y520416D01*
X397620Y519993D01*
X396956Y520235D01*
X396745Y520688D01*
X396987Y521352D01*
X397893Y521775D01*
X398134Y522439D01*
X397923Y522892D01*
X397259Y523134D01*
X396353Y522711D01*
X396111Y522047D01*
X398618Y523767D02*
X399524Y524190D01*
X399071Y523979D01*
X400339Y521261D01*
X399674Y521502D01*
X567600Y383800D02*
X564601D01*
Y382300D01*
X565101Y381801D01*
X566101D01*
X566600Y382300D01*
Y383800D01*
Y382800D02*
X567600Y381801D01*
Y378802D02*
Y380801D01*
X565601Y378802D01*
X565101D01*
X564601Y379302D01*
Y380301D01*
X565101Y380801D01*
X567100Y377802D02*
X567600Y377302D01*
Y376302D01*
X567100Y375803D01*
X565101D01*
X564601Y376302D01*
Y377302D01*
X565101Y377802D01*
X565601D01*
X566101Y377302D01*
Y375803D01*
X578700Y336300D02*
Y339299D01*
X577201D01*
X576701Y338799D01*
Y337800D01*
X577201Y337300D01*
X578700D01*
X577700D02*
X576701Y336300D01*
X573702D02*
X575701D01*
X573702Y338299D01*
Y338799D01*
X574201Y339299D01*
X575201D01*
X575701Y338799D01*
X572702D02*
X572202Y339299D01*
X571202D01*
X570703Y338799D01*
Y338299D01*
X571202Y337800D01*
X570703Y337300D01*
Y336800D01*
X571202Y336300D01*
X572202D01*
X572702Y336800D01*
Y337300D01*
X572202Y337800D01*
X572702Y338299D01*
Y338799D01*
X572202Y337800D02*
X571202D01*
X482100Y349200D02*
Y352199D01*
X480601D01*
X480101Y351699D01*
Y350699D01*
X480601Y350200D01*
X482100D01*
X481100D02*
X480101Y349200D01*
X477102D02*
X479101D01*
X477102Y351199D01*
Y351699D01*
X477601Y352199D01*
X478601D01*
X479101Y351699D01*
X476102Y352199D02*
X474103D01*
Y351699D01*
X476102Y349700D01*
Y349200D01*
X578500Y328700D02*
Y331699D01*
X577001D01*
X576501Y331199D01*
Y330200D01*
X577001Y329700D01*
X578500D01*
X577500D02*
X576501Y328700D01*
X573502D02*
X575501D01*
X573502Y330699D01*
Y331199D01*
X574002Y331699D01*
X575001D01*
X575501Y331199D01*
X570503Y331699D02*
X571502Y331199D01*
X572502Y330200D01*
Y329200D01*
X572002Y328700D01*
X571002D01*
X570503Y329200D01*
Y329700D01*
X571002Y330200D01*
X572502D01*
X359879Y286321D02*
X362000Y284200D01*
X360940Y283140D01*
X360233Y283140D01*
X358819Y284553D01*
X358819Y285260D01*
X359879Y286321D01*
Y282079D02*
X359173Y281372D01*
X359526Y281726D01*
X357405Y283847D01*
X358112D01*
X356345Y282079D02*
X355638D01*
X354931Y281372D01*
Y280666D01*
X355285Y280312D01*
X355992D01*
X356345Y280666D01*
X355992Y280312D01*
X355992Y279605D01*
X356345Y279252D01*
X357052Y279252D01*
X357759Y279959D01*
Y280666D01*
X682679Y281979D02*
X684800Y284100D01*
X685860Y283040D01*
X685860Y282333D01*
X684447Y280919D01*
X683740Y280919D01*
X682679Y281979D01*
X686921D02*
X687628Y281273D01*
X687274Y281626D01*
X685153Y279505D01*
Y280212D01*
X690102Y278798D02*
X688688Y280212D01*
Y277385D01*
X688334Y277031D01*
X687628D01*
X686921Y277738D01*
Y278445D01*
X697379Y586121D02*
X699500Y584000D01*
X698440Y582940D01*
X697733Y582940D01*
X696319Y584353D01*
X696319Y585060D01*
X697379Y586121D01*
Y581879D02*
X696672Y581173D01*
X697026Y581526D01*
X694905Y583647D01*
X695612D01*
X693845Y581879D02*
X693138D01*
X692431Y581173D01*
Y580466D01*
X693845Y579052D01*
X694552Y579052D01*
X695259Y579759D01*
Y580466D01*
X693845Y581879D01*
X359121Y574821D02*
X357000Y572700D01*
X355940Y573760D01*
X355940Y574467D01*
X357353Y575881D01*
X358060Y575881D01*
X359121Y574821D01*
X355233Y575174D02*
X354526D01*
X353819Y575881D01*
X353819Y576588D01*
X355233Y578002D01*
X355940Y578002D01*
X356647Y577295D01*
Y576588D01*
X356293Y576234D01*
X355586Y576234D01*
X354526Y577295D01*
X467601Y378399D02*
X468101Y378899D01*
X469100D01*
X469600Y378399D01*
Y376400D01*
X469100Y375900D01*
X468101D01*
X467601Y376400D01*
X466601Y378399D02*
X466101Y378899D01*
X465101D01*
X464602Y378399D01*
Y377899D01*
X465101Y377399D01*
X465601D01*
X465101D01*
X464602Y376900D01*
Y376400D01*
X465101Y375900D01*
X466101D01*
X466601Y376400D01*
X463602Y378399D02*
X463102Y378899D01*
X462102D01*
X461603Y378399D01*
Y377899D01*
X462102Y377399D01*
X462602D01*
X462102D01*
X461603Y376900D01*
Y376400D01*
X462102Y375900D01*
X463102D01*
X463602Y376400D01*
X468001Y385899D02*
X468501Y386399D01*
X469500D01*
X470000Y385899D01*
Y383900D01*
X469500Y383400D01*
X468501D01*
X468001Y383900D01*
X467001Y385899D02*
X466501Y386399D01*
X465501D01*
X465002Y385899D01*
Y385399D01*
X465501Y384899D01*
X466001D01*
X465501D01*
X465002Y384400D01*
Y383900D01*
X465501Y383400D01*
X466501D01*
X467001Y383900D01*
X462003Y383400D02*
X464002D01*
X462003Y385399D01*
Y385899D01*
X462502Y386399D01*
X463502D01*
X464002Y385899D01*
D68*
X423319Y495285D02*
X426491Y496764D01*
X413601Y524407D02*
X426491Y496764D01*
X410429Y522928D02*
X413601Y524407D01*
X395928Y516166D02*
X399553Y517856D01*
X395928Y516166D02*
X408818Y488523D01*
X412443Y490214D01*
D71*
X487598Y324736D02*
G03*
X487598Y324736I-591J0D01*
G01*
D72*
X365000Y257081D02*
X378919Y271000D01*
X351081Y271000D02*
X365000Y284919D01*
X351081Y271000D02*
X351565Y270516D01*
X364516Y257565D02*
X365000Y257081D01*
Y284919D02*
X365557Y284363D01*
X378363Y271557D02*
X378919Y271000D01*
X369980Y279940D02*
X373899Y276021D01*
X356101Y265980D02*
X360020Y262060D01*
X663581Y584500D02*
X677500Y598419D01*
X677500Y570581D02*
X691419Y584500D01*
X690935Y584984D02*
X691419Y584500D01*
X677500Y598419D02*
X677984Y597935D01*
X676943Y571137D02*
X677500Y570581D01*
X663581Y584500D02*
X664137Y583943D01*
X668601Y579480D02*
X672520Y575560D01*
X682480Y593440D02*
X686399Y589521D01*
X350581Y585000D02*
X364500Y571081D01*
X364500Y598919D02*
X378419Y585000D01*
X364016Y598435D02*
X364500Y598919D01*
X350581Y585000D02*
X351065Y585484D01*
X377863Y584443D02*
X378419Y585000D01*
X364500Y571081D02*
X365057Y571637D01*
X369520Y576101D02*
X373440Y580020D01*
X355560Y589980D02*
X359479Y593899D01*
X573500Y435487D02*
Y443487D01*
X563500Y435487D02*
Y443487D01*
X676000Y285919D02*
X689919Y272000D01*
X662081D02*
X676000Y258081D01*
X676484Y258565D01*
X689435Y271516D02*
X689919Y272000D01*
X662081D02*
X662637Y272557D01*
X675443Y285363D02*
X676000Y285919D01*
X667060Y276980D02*
X670979Y280899D01*
X681020Y263101D02*
X684940Y267020D01*
D77*
X560494Y380000D02*
D03*
D78*
X477500Y385006D02*
D03*
Y379006D02*
D03*
X478500Y345711D02*
D03*
X563500Y337837D02*
D03*
Y329506D02*
D03*
M02*
