G04 Layer_Color=2752767*
%FSLAX25Y25*%
%MOIN*%
G70*
G01*
G75*
%ADD44C,0.01000*%
%ADD76C,0.00800*%
%ADD142C,0.00200*%
%ADD144C,0.00267*%
%ADD145C,0.00133*%
%ADD146C,0.01600*%
%ADD147C,0.00467*%
%ADD148C,0.01400*%
D44*
X591588Y487200D02*
X593587D01*
X592587D01*
Y493198D01*
X591588Y492198D01*
X600585Y487200D02*
X596586D01*
X600585Y491199D01*
Y492198D01*
X599585Y493198D01*
X597586D01*
X596586Y492198D01*
X602584D02*
X603584Y493198D01*
X605583D01*
X606583Y492198D01*
Y488200D01*
X605583Y487200D01*
X603584D01*
X602584Y488200D01*
Y492198D01*
X661169Y487200D02*
X663168D01*
X662169D01*
Y493198D01*
X661169Y492198D01*
X670166Y487200D02*
X666167D01*
X670166Y491199D01*
Y492198D01*
X669166Y493198D01*
X667167D01*
X666167Y492198D01*
X672165Y487200D02*
Y491199D01*
X673165D01*
X674165Y490199D01*
Y487200D01*
Y490199D01*
X675164Y491199D01*
X676164Y490199D01*
Y487200D01*
X678163D02*
X680163D01*
X679163D01*
Y491199D01*
X678163D01*
X683162Y487200D02*
X685161D01*
X684162D01*
Y493198D01*
X683162D01*
X696158Y487200D02*
X694158Y489199D01*
Y491199D01*
X696158Y493198D01*
X699157Y492198D02*
X700156Y493198D01*
X702156D01*
X703155Y492198D01*
Y488200D01*
X702156Y487200D01*
X700156D01*
X699157Y488200D01*
Y492198D01*
X705155Y487200D02*
Y488200D01*
X706154D01*
Y487200D01*
X705155D01*
X710153Y492198D02*
X711153Y493198D01*
X713152D01*
X714152Y492198D01*
Y491199D01*
X713152Y490199D01*
X712152D01*
X713152D01*
X714152Y489199D01*
Y488200D01*
X713152Y487200D01*
X711153D01*
X710153Y488200D01*
X716151Y492198D02*
X717151Y493198D01*
X719150D01*
X720150Y492198D01*
Y488200D01*
X719150Y487200D01*
X717151D01*
X716151Y488200D01*
Y492198D01*
X725148Y487200D02*
Y493198D01*
X722149Y490199D01*
X726148D01*
X728147Y492198D02*
X729147Y493198D01*
X731146D01*
X732146Y492198D01*
Y491199D01*
X731146Y490199D01*
X732146Y489199D01*
Y488200D01*
X731146Y487200D01*
X729147D01*
X728147Y488200D01*
Y489199D01*
X729147Y490199D01*
X728147Y491199D01*
Y492198D01*
X729147Y490199D02*
X731146D01*
X734145Y487200D02*
Y491199D01*
X735145D01*
X736145Y490199D01*
Y487200D01*
Y490199D01*
X737144Y491199D01*
X738144Y490199D01*
Y487200D01*
X740143D02*
Y491199D01*
X741143D01*
X742143Y490199D01*
Y487200D01*
Y490199D01*
X743142Y491199D01*
X744142Y490199D01*
Y487200D01*
X746141D02*
X748141Y489199D01*
Y491199D01*
X746141Y493198D01*
X1030661Y487200D02*
Y493198D01*
X1033660D01*
X1034660Y492198D01*
Y490199D01*
X1033660Y489199D01*
X1030661D01*
X1036659Y493198D02*
X1040658D01*
X1038658D01*
Y487200D01*
X1042657Y493198D02*
Y487200D01*
Y490199D01*
X1046656D01*
Y493198D01*
Y487200D01*
X1081049D02*
Y493198D01*
X1084048D01*
X1085047Y492198D01*
Y490199D01*
X1084048Y489199D01*
X1081049D01*
X1083048D02*
X1085047Y487200D01*
X1088046D02*
X1090046D01*
X1091045Y488200D01*
Y490199D01*
X1090046Y491199D01*
X1088046D01*
X1087047Y490199D01*
Y488200D01*
X1088046Y487200D01*
X1093045Y491199D02*
Y488200D01*
X1094044Y487200D01*
X1097043D01*
Y491199D01*
X1099043Y487200D02*
Y491199D01*
X1102042D01*
X1103041Y490199D01*
Y487200D01*
X1109039Y493198D02*
Y487200D01*
X1106040D01*
X1105041Y488200D01*
Y490199D01*
X1106040Y491199D01*
X1109039D01*
X591588Y475200D02*
X593587D01*
X592587D01*
Y481198D01*
X591588Y480198D01*
X596586D02*
X597586Y481198D01*
X599585D01*
X600585Y480198D01*
Y476200D01*
X599585Y475200D01*
X597586D01*
X596586Y476200D01*
Y480198D01*
X665168Y475200D02*
X661169D01*
X665168Y479199D01*
Y480198D01*
X664168Y481198D01*
X662169D01*
X661169Y480198D01*
X671166Y481198D02*
X667167D01*
Y478199D01*
X669166Y479199D01*
X670166D01*
X671166Y478199D01*
Y476200D01*
X670166Y475200D01*
X668167D01*
X667167Y476200D01*
X673165Y475200D02*
Y476200D01*
X674165D01*
Y475200D01*
X673165D01*
X682162Y481198D02*
X678163D01*
Y478199D01*
X680163Y479199D01*
X681163D01*
X682162Y478199D01*
Y476200D01*
X681163Y475200D01*
X679163D01*
X678163Y476200D01*
X684162D02*
X685161Y475200D01*
X687160D01*
X688160Y476200D01*
Y480198D01*
X687160Y481198D01*
X685161D01*
X684162Y480198D01*
Y479199D01*
X685161Y478199D01*
X688160D01*
X690160Y475200D02*
X692159D01*
X691159D01*
Y481198D01*
X690160Y480198D01*
X695158Y475200D02*
Y479199D01*
X696158D01*
X697157Y478199D01*
Y475200D01*
Y478199D01*
X698157Y479199D01*
X699157Y478199D01*
Y475200D01*
X701156D02*
X703155D01*
X702156D01*
Y479199D01*
X701156D01*
X706154Y475200D02*
X708154D01*
X707154D01*
Y481198D01*
X706154D01*
X719150Y475200D02*
X717151Y477199D01*
Y479199D01*
X719150Y481198D01*
X722149Y480198D02*
X723149Y481198D01*
X725148D01*
X726148Y480198D01*
Y476200D01*
X725148Y475200D01*
X723149D01*
X722149Y476200D01*
Y480198D01*
X728147Y475200D02*
Y476200D01*
X729147D01*
Y475200D01*
X728147D01*
X737144Y481198D02*
X735145Y480198D01*
X733146Y478199D01*
Y476200D01*
X734145Y475200D01*
X736145D01*
X737144Y476200D01*
Y477199D01*
X736145Y478199D01*
X733146D01*
X743142Y481198D02*
X739144D01*
Y478199D01*
X741143Y479199D01*
X742143D01*
X743142Y478199D01*
Y476200D01*
X742143Y475200D01*
X740143D01*
X739144Y476200D01*
X745142Y475200D02*
Y479199D01*
X746141D01*
X747141Y478199D01*
Y475200D01*
Y478199D01*
X748141Y479199D01*
X749141Y478199D01*
Y475200D01*
X751140D02*
Y479199D01*
X752140D01*
X753139Y478199D01*
Y475200D01*
Y478199D01*
X754139Y479199D01*
X755138Y478199D01*
Y475200D01*
X757138D02*
X759137Y477199D01*
Y479199D01*
X757138Y481198D01*
X1030661Y475200D02*
Y481198D01*
X1033660D01*
X1034660Y480198D01*
Y478199D01*
X1033660Y477199D01*
X1030661D01*
X1036659Y481198D02*
X1040658D01*
X1038658D01*
Y475200D01*
X1042657Y481198D02*
Y475200D01*
Y478199D01*
X1046656D01*
Y481198D01*
Y475200D01*
X1081049D02*
Y481198D01*
X1084048D01*
X1085047Y480198D01*
Y478199D01*
X1084048Y477199D01*
X1081049D01*
X1083048D02*
X1085047Y475200D01*
X1088046D02*
X1090046D01*
X1091045Y476200D01*
Y478199D01*
X1090046Y479199D01*
X1088046D01*
X1087047Y478199D01*
Y476200D01*
X1088046Y475200D01*
X1093045Y479199D02*
Y476200D01*
X1094044Y475200D01*
X1097043D01*
Y479199D01*
X1099043Y475200D02*
Y479199D01*
X1102042D01*
X1103041Y478199D01*
Y475200D01*
X1109039Y481198D02*
Y475200D01*
X1106040D01*
X1105041Y476200D01*
Y478199D01*
X1106040Y479199D01*
X1109039D01*
X591588Y468198D02*
X592587Y469198D01*
X594587D01*
X595586Y468198D01*
Y467199D01*
X594587Y466199D01*
X593587D01*
X594587D01*
X595586Y465199D01*
Y464200D01*
X594587Y463200D01*
X592587D01*
X591588Y464200D01*
X665168Y463200D02*
X661169D01*
X665168Y467199D01*
Y468198D01*
X664168Y469198D01*
X662169D01*
X661169Y468198D01*
X667167Y464200D02*
X668167Y463200D01*
X670166D01*
X671166Y464200D01*
Y468198D01*
X670166Y469198D01*
X668167D01*
X667167Y468198D01*
Y467199D01*
X668167Y466199D01*
X671166D01*
X673165Y463200D02*
Y464200D01*
X674165D01*
Y463200D01*
X673165D01*
X682162Y469198D02*
X678163D01*
Y466199D01*
X680163Y467199D01*
X681163D01*
X682162Y466199D01*
Y464200D01*
X681163Y463200D01*
X679163D01*
X678163Y464200D01*
X688160Y463200D02*
X684162D01*
X688160Y467199D01*
Y468198D01*
X687160Y469198D01*
X685161D01*
X684162Y468198D01*
X690160D02*
X691159Y469198D01*
X693159D01*
X694158Y468198D01*
Y467199D01*
X693159Y466199D01*
X694158Y465199D01*
Y464200D01*
X693159Y463200D01*
X691159D01*
X690160Y464200D01*
Y465199D01*
X691159Y466199D01*
X690160Y467199D01*
Y468198D01*
X691159Y466199D02*
X693159D01*
X696158Y463200D02*
Y467199D01*
X697157D01*
X698157Y466199D01*
Y463200D01*
Y466199D01*
X699157Y467199D01*
X700156Y466199D01*
Y463200D01*
X702156D02*
X704155D01*
X703155D01*
Y467199D01*
X702156D01*
X707154Y463200D02*
X709153D01*
X708154D01*
Y469198D01*
X707154D01*
X720150Y463200D02*
X718151Y465199D01*
Y467199D01*
X720150Y469198D01*
X723149Y468198D02*
X724149Y469198D01*
X726148D01*
X727148Y468198D01*
Y464200D01*
X726148Y463200D01*
X724149D01*
X723149Y464200D01*
Y468198D01*
X729147Y463200D02*
Y464200D01*
X730147D01*
Y463200D01*
X729147D01*
X734145Y469198D02*
X738144D01*
Y468198D01*
X734145Y464200D01*
Y463200D01*
X744142Y469198D02*
X740143D01*
Y466199D01*
X742143Y467199D01*
X743142D01*
X744142Y466199D01*
Y464200D01*
X743142Y463200D01*
X741143D01*
X740143Y464200D01*
X746141Y463200D02*
Y467199D01*
X747141D01*
X748141Y466199D01*
Y463200D01*
Y466199D01*
X749141Y467199D01*
X750140Y466199D01*
Y463200D01*
X752140D02*
Y467199D01*
X753139D01*
X754139Y466199D01*
Y463200D01*
Y466199D01*
X755138Y467199D01*
X756138Y466199D01*
Y463200D01*
X758138D02*
X760137Y465199D01*
Y467199D01*
X758138Y469198D01*
X1030661Y463200D02*
Y469198D01*
X1033660D01*
X1034660Y468198D01*
Y466199D01*
X1033660Y465199D01*
X1030661D01*
X1036659Y469198D02*
X1040658D01*
X1038658D01*
Y463200D01*
X1042657Y469198D02*
Y463200D01*
Y466199D01*
X1046656D01*
Y469198D01*
Y463200D01*
X1081049D02*
Y469198D01*
X1084048D01*
X1085047Y468198D01*
Y466199D01*
X1084048Y465199D01*
X1081049D01*
X1083048D02*
X1085047Y463200D01*
X1088046D02*
X1090046D01*
X1091045Y464200D01*
Y466199D01*
X1090046Y467199D01*
X1088046D01*
X1087047Y466199D01*
Y464200D01*
X1088046Y463200D01*
X1093045Y467199D02*
Y464200D01*
X1094044Y463200D01*
X1097043D01*
Y467199D01*
X1099043Y463200D02*
Y467199D01*
X1102042D01*
X1103041Y466199D01*
Y463200D01*
X1109039Y469198D02*
Y463200D01*
X1106040D01*
X1105041Y464200D01*
Y466199D01*
X1106040Y467199D01*
X1109039D01*
X595586Y451200D02*
X591588D01*
X595586Y455199D01*
Y456198D01*
X594587Y457198D01*
X592587D01*
X591588Y456198D01*
X661169D02*
X662169Y457198D01*
X664168D01*
X665168Y456198D01*
Y455199D01*
X664168Y454199D01*
X663168D01*
X664168D01*
X665168Y453199D01*
Y452200D01*
X664168Y451200D01*
X662169D01*
X661169Y452200D01*
X667167Y451200D02*
X669166D01*
X668167D01*
Y457198D01*
X667167Y456198D01*
X672165Y451200D02*
Y452200D01*
X673165D01*
Y451200D01*
X672165D01*
X680163D02*
Y457198D01*
X677164Y454199D01*
X681163D01*
X683162Y452200D02*
X684162Y451200D01*
X686161D01*
X687160Y452200D01*
Y456198D01*
X686161Y457198D01*
X684162D01*
X683162Y456198D01*
Y455199D01*
X684162Y454199D01*
X687160D01*
X693159Y457198D02*
X691159Y456198D01*
X689160Y454199D01*
Y452200D01*
X690160Y451200D01*
X692159D01*
X693159Y452200D01*
Y453199D01*
X692159Y454199D01*
X689160D01*
X695158Y451200D02*
Y455199D01*
X696158D01*
X697157Y454199D01*
Y451200D01*
Y454199D01*
X698157Y455199D01*
X699157Y454199D01*
Y451200D01*
X701156D02*
X703155D01*
X702156D01*
Y455199D01*
X701156D01*
X706154Y451200D02*
X708154D01*
X707154D01*
Y457198D01*
X706154D01*
X719150Y451200D02*
X717151Y453199D01*
Y455199D01*
X719150Y457198D01*
X722149Y456198D02*
X723149Y457198D01*
X725148D01*
X726148Y456198D01*
Y452200D01*
X725148Y451200D01*
X723149D01*
X722149Y452200D01*
Y456198D01*
X728147Y451200D02*
Y452200D01*
X729147D01*
Y451200D01*
X728147D01*
X733146Y456198D02*
X734145Y457198D01*
X736145D01*
X737144Y456198D01*
Y455199D01*
X736145Y454199D01*
X737144Y453199D01*
Y452200D01*
X736145Y451200D01*
X734145D01*
X733146Y452200D01*
Y453199D01*
X734145Y454199D01*
X733146Y455199D01*
Y456198D01*
X734145Y454199D02*
X736145D01*
X739144Y451200D02*
Y455199D01*
X740143D01*
X741143Y454199D01*
Y451200D01*
Y454199D01*
X742143Y455199D01*
X743142Y454199D01*
Y451200D01*
X745142D02*
Y455199D01*
X746141D01*
X747141Y454199D01*
Y451200D01*
Y454199D01*
X748141Y455199D01*
X749141Y454199D01*
Y451200D01*
X751140D02*
X753139Y453199D01*
Y455199D01*
X751140Y457198D01*
X1030661Y451200D02*
Y457198D01*
X1033660D01*
X1034660Y456198D01*
Y454199D01*
X1033660Y453199D01*
X1030661D01*
X1036659Y457198D02*
X1040658D01*
X1038658D01*
Y451200D01*
X1042657Y457198D02*
Y451200D01*
Y454199D01*
X1046656D01*
Y457198D01*
Y451200D01*
X1081049D02*
Y457198D01*
X1084048D01*
X1085047Y456198D01*
Y454199D01*
X1084048Y453199D01*
X1081049D01*
X1083048D02*
X1085047Y451200D01*
X1088046D02*
X1090046D01*
X1091045Y452200D01*
Y454199D01*
X1090046Y455199D01*
X1088046D01*
X1087047Y454199D01*
Y452200D01*
X1088046Y451200D01*
X1093045Y455199D02*
Y452200D01*
X1094044Y451200D01*
X1097043D01*
Y455199D01*
X1099043Y451200D02*
Y455199D01*
X1102042D01*
X1103041Y454199D01*
Y451200D01*
X1109039Y457198D02*
Y451200D01*
X1106040D01*
X1105041Y452200D01*
Y454199D01*
X1106040Y455199D01*
X1109039D01*
X591588Y439200D02*
X593587D01*
X592587D01*
Y445198D01*
X591588Y444198D01*
X600585Y445198D02*
X598585Y444198D01*
X596586Y442199D01*
Y440200D01*
X597586Y439200D01*
X599585D01*
X600585Y440200D01*
Y441199D01*
X599585Y442199D01*
X596586D01*
X661169Y444198D02*
X662169Y445198D01*
X664168D01*
X665168Y444198D01*
Y443199D01*
X664168Y442199D01*
X663168D01*
X664168D01*
X665168Y441199D01*
Y440200D01*
X664168Y439200D01*
X662169D01*
X661169Y440200D01*
X671166Y439200D02*
X667167D01*
X671166Y443199D01*
Y444198D01*
X670166Y445198D01*
X668167D01*
X667167Y444198D01*
X673165Y439200D02*
Y443199D01*
X674165D01*
X675164Y442199D01*
Y439200D01*
Y442199D01*
X676164Y443199D01*
X677164Y442199D01*
Y439200D01*
X679163D02*
X681163D01*
X680163D01*
Y443199D01*
X679163D01*
X684162Y439200D02*
X686161D01*
X685161D01*
Y445198D01*
X684162D01*
X697157Y439200D02*
X695158Y441199D01*
Y443199D01*
X697157Y445198D01*
X700156Y444198D02*
X701156Y445198D01*
X703155D01*
X704155Y444198D01*
Y440200D01*
X703155Y439200D01*
X701156D01*
X700156Y440200D01*
Y444198D01*
X706154Y439200D02*
Y440200D01*
X707154D01*
Y439200D01*
X706154D01*
X711153Y444198D02*
X712152Y445198D01*
X714152D01*
X715152Y444198D01*
Y443199D01*
X714152Y442199D01*
X715152Y441199D01*
Y440200D01*
X714152Y439200D01*
X712152D01*
X711153Y440200D01*
Y441199D01*
X712152Y442199D01*
X711153Y443199D01*
Y444198D01*
X712152Y442199D02*
X714152D01*
X717151Y439200D02*
X719150D01*
X718151D01*
Y445198D01*
X717151Y444198D01*
X726148Y439200D02*
X722149D01*
X726148Y443199D01*
Y444198D01*
X725148Y445198D01*
X723149D01*
X722149Y444198D01*
X728147D02*
X729147Y445198D01*
X731146D01*
X732146Y444198D01*
Y443199D01*
X731146Y442199D01*
X732146Y441199D01*
Y440200D01*
X731146Y439200D01*
X729147D01*
X728147Y440200D01*
Y441199D01*
X729147Y442199D01*
X728147Y443199D01*
Y444198D01*
X729147Y442199D02*
X731146D01*
X734145Y439200D02*
Y443199D01*
X735145D01*
X736145Y442199D01*
Y439200D01*
Y442199D01*
X737144Y443199D01*
X738144Y442199D01*
Y439200D01*
X740143D02*
Y443199D01*
X741143D01*
X742143Y442199D01*
Y439200D01*
Y442199D01*
X743142Y443199D01*
X744142Y442199D01*
Y439200D01*
X746141D02*
X748141Y441199D01*
Y443199D01*
X746141Y445198D01*
X1030661Y439200D02*
Y445198D01*
X1033660D01*
X1034660Y444198D01*
Y442199D01*
X1033660Y441199D01*
X1030661D01*
X1036659Y445198D02*
X1040658D01*
X1038658D01*
Y439200D01*
X1042657Y445198D02*
Y439200D01*
Y442199D01*
X1046656D01*
Y445198D01*
Y439200D01*
X1081049D02*
Y445198D01*
X1084048D01*
X1085047Y444198D01*
Y442199D01*
X1084048Y441199D01*
X1081049D01*
X1083048D02*
X1085047Y439200D01*
X1088046D02*
X1090046D01*
X1091045Y440200D01*
Y442199D01*
X1090046Y443199D01*
X1088046D01*
X1087047Y442199D01*
Y440200D01*
X1088046Y439200D01*
X1093045Y443199D02*
Y440200D01*
X1094044Y439200D01*
X1097043D01*
Y443199D01*
X1099043Y439200D02*
Y443199D01*
X1102042D01*
X1103041Y442199D01*
Y439200D01*
X1109039Y445198D02*
Y439200D01*
X1106040D01*
X1105041Y440200D01*
Y442199D01*
X1106040Y443199D01*
X1109039D01*
X591588Y428200D02*
X592587Y427200D01*
X594587D01*
X595586Y428200D01*
Y432198D01*
X594587Y433198D01*
X592587D01*
X591588Y432198D01*
Y431199D01*
X592587Y430199D01*
X595586D01*
X661169Y432198D02*
X662169Y433198D01*
X664168D01*
X665168Y432198D01*
Y431199D01*
X664168Y430199D01*
X663168D01*
X664168D01*
X665168Y429199D01*
Y428200D01*
X664168Y427200D01*
X662169D01*
X661169Y428200D01*
X671166Y433198D02*
X667167D01*
Y430199D01*
X669166Y431199D01*
X670166D01*
X671166Y430199D01*
Y428200D01*
X670166Y427200D01*
X668167D01*
X667167Y428200D01*
X673165Y427200D02*
Y428200D01*
X674165D01*
Y427200D01*
X673165D01*
X681163D02*
Y433198D01*
X678163Y430199D01*
X682162D01*
X684162Y432198D02*
X685161Y433198D01*
X687160D01*
X688160Y432198D01*
Y431199D01*
X687160Y430199D01*
X686161D01*
X687160D01*
X688160Y429199D01*
Y428200D01*
X687160Y427200D01*
X685161D01*
X684162Y428200D01*
X690160Y432198D02*
X691159Y433198D01*
X693159D01*
X694158Y432198D01*
Y431199D01*
X693159Y430199D01*
X692159D01*
X693159D01*
X694158Y429199D01*
Y428200D01*
X693159Y427200D01*
X691159D01*
X690160Y428200D01*
X696158Y427200D02*
Y431199D01*
X697157D01*
X698157Y430199D01*
Y427200D01*
Y430199D01*
X699157Y431199D01*
X700156Y430199D01*
Y427200D01*
X702156D02*
X704155D01*
X703155D01*
Y431199D01*
X702156D01*
X707154Y427200D02*
X709153D01*
X708154D01*
Y433198D01*
X707154D01*
X720150Y427200D02*
X718151Y429199D01*
Y431199D01*
X720150Y433198D01*
X723149Y432198D02*
X724149Y433198D01*
X726148D01*
X727148Y432198D01*
Y428200D01*
X726148Y427200D01*
X724149D01*
X723149Y428200D01*
Y432198D01*
X729147Y427200D02*
Y428200D01*
X730147D01*
Y427200D01*
X729147D01*
X734145Y428200D02*
X735145Y427200D01*
X737144D01*
X738144Y428200D01*
Y432198D01*
X737144Y433198D01*
X735145D01*
X734145Y432198D01*
Y431199D01*
X735145Y430199D01*
X738144D01*
X740143Y427200D02*
Y431199D01*
X741143D01*
X742143Y430199D01*
Y427200D01*
Y430199D01*
X743142Y431199D01*
X744142Y430199D01*
Y427200D01*
X746141D02*
Y431199D01*
X747141D01*
X748141Y430199D01*
Y427200D01*
Y430199D01*
X749141Y431199D01*
X750140Y430199D01*
Y427200D01*
X752140D02*
X754139Y429199D01*
Y431199D01*
X752140Y433198D01*
X1030661Y427200D02*
Y433198D01*
X1033660D01*
X1034660Y432198D01*
Y430199D01*
X1033660Y429199D01*
X1030661D01*
X1036659Y433198D02*
X1040658D01*
X1038658D01*
Y427200D01*
X1042657Y433198D02*
Y427200D01*
Y430199D01*
X1046656D01*
Y433198D01*
Y427200D01*
X1081049D02*
Y433198D01*
X1084048D01*
X1085047Y432198D01*
Y430199D01*
X1084048Y429199D01*
X1081049D01*
X1083048D02*
X1085047Y427200D01*
X1088046D02*
X1090046D01*
X1091045Y428200D01*
Y430199D01*
X1090046Y431199D01*
X1088046D01*
X1087047Y430199D01*
Y428200D01*
X1088046Y427200D01*
X1093045Y431199D02*
Y428200D01*
X1094044Y427200D01*
X1097043D01*
Y431199D01*
X1099043Y427200D02*
Y431199D01*
X1102042D01*
X1103041Y430199D01*
Y427200D01*
X1109039Y433198D02*
Y427200D01*
X1106040D01*
X1105041Y428200D01*
Y430199D01*
X1106040Y431199D01*
X1109039D01*
X594587Y415200D02*
Y421198D01*
X591588Y418199D01*
X595586D01*
X661169Y420198D02*
X662169Y421198D01*
X664168D01*
X665168Y420198D01*
Y419199D01*
X664168Y418199D01*
X663168D01*
X664168D01*
X665168Y417199D01*
Y416200D01*
X664168Y415200D01*
X662169D01*
X661169Y416200D01*
X667167Y420198D02*
X668167Y421198D01*
X670166D01*
X671166Y420198D01*
Y419199D01*
X670166Y418199D01*
X671166Y417199D01*
Y416200D01*
X670166Y415200D01*
X668167D01*
X667167Y416200D01*
Y417199D01*
X668167Y418199D01*
X667167Y419199D01*
Y420198D01*
X668167Y418199D02*
X670166D01*
X673165Y415200D02*
Y419199D01*
X674165D01*
X675164Y418199D01*
Y415200D01*
Y418199D01*
X676164Y419199D01*
X677164Y418199D01*
Y415200D01*
X679163D02*
X681163D01*
X680163D01*
Y419199D01*
X679163D01*
X684162Y415200D02*
X686161D01*
X685161D01*
Y421198D01*
X684162D01*
X697157Y415200D02*
X695158Y417199D01*
Y419199D01*
X697157Y421198D01*
X700156Y420198D02*
X701156Y421198D01*
X703155D01*
X704155Y420198D01*
Y416200D01*
X703155Y415200D01*
X701156D01*
X700156Y416200D01*
Y420198D01*
X706154Y415200D02*
Y416200D01*
X707154D01*
Y415200D01*
X706154D01*
X711153Y416200D02*
X712152Y415200D01*
X714152D01*
X715152Y416200D01*
Y420198D01*
X714152Y421198D01*
X712152D01*
X711153Y420198D01*
Y419199D01*
X712152Y418199D01*
X715152D01*
X721149Y421198D02*
X719150Y420198D01*
X717151Y418199D01*
Y416200D01*
X718151Y415200D01*
X720150D01*
X721149Y416200D01*
Y417199D01*
X720150Y418199D01*
X717151D01*
X727148Y421198D02*
X723149D01*
Y418199D01*
X725148Y419199D01*
X726148D01*
X727148Y418199D01*
Y416200D01*
X726148Y415200D01*
X724149D01*
X723149Y416200D01*
X733146Y415200D02*
X729147D01*
X733146Y419199D01*
Y420198D01*
X732146Y421198D01*
X730147D01*
X729147Y420198D01*
X735145Y415200D02*
Y419199D01*
X736145D01*
X737144Y418199D01*
Y415200D01*
Y418199D01*
X738144Y419199D01*
X739144Y418199D01*
Y415200D01*
X741143D02*
Y419199D01*
X742143D01*
X743142Y418199D01*
Y415200D01*
Y418199D01*
X744142Y419199D01*
X745142Y418199D01*
Y415200D01*
X747141D02*
X749141Y417199D01*
Y419199D01*
X747141Y421198D01*
X1030661Y415200D02*
Y421198D01*
X1033660D01*
X1034660Y420198D01*
Y418199D01*
X1033660Y417199D01*
X1030661D01*
X1036659Y421198D02*
X1040658D01*
X1038658D01*
Y415200D01*
X1042657Y421198D02*
Y415200D01*
Y418199D01*
X1046656D01*
Y421198D01*
Y415200D01*
X1081049D02*
Y421198D01*
X1084048D01*
X1085047Y420198D01*
Y418199D01*
X1084048Y417199D01*
X1081049D01*
X1083048D02*
X1085047Y415200D01*
X1088046D02*
X1090046D01*
X1091045Y416200D01*
Y418199D01*
X1090046Y419199D01*
X1088046D01*
X1087047Y418199D01*
Y416200D01*
X1088046Y415200D01*
X1093045Y419199D02*
Y416200D01*
X1094044Y415200D01*
X1097043D01*
Y419199D01*
X1099043Y415200D02*
Y419199D01*
X1102042D01*
X1103041Y418199D01*
Y415200D01*
X1109039Y421198D02*
Y415200D01*
X1106040D01*
X1105041Y416200D01*
Y418199D01*
X1106040Y419199D01*
X1109039D01*
X595586Y403200D02*
X591588D01*
X595586Y407199D01*
Y408198D01*
X594587Y409198D01*
X592587D01*
X591588Y408198D01*
X665168Y409198D02*
X661169D01*
Y406199D01*
X663168Y407199D01*
X664168D01*
X665168Y406199D01*
Y404200D01*
X664168Y403200D01*
X662169D01*
X661169Y404200D01*
X667167Y408198D02*
X668167Y409198D01*
X670166D01*
X671166Y408198D01*
Y404200D01*
X670166Y403200D01*
X668167D01*
X667167Y404200D01*
Y408198D01*
X673165Y403200D02*
Y407199D01*
X674165D01*
X675164Y406199D01*
Y403200D01*
Y406199D01*
X676164Y407199D01*
X677164Y406199D01*
Y403200D01*
X679163D02*
X681163D01*
X680163D01*
Y407199D01*
X679163D01*
X684162Y403200D02*
X686161D01*
X685161D01*
Y409198D01*
X684162D01*
X697157Y403200D02*
X695158Y405199D01*
Y407199D01*
X697157Y409198D01*
X700156Y403200D02*
X702156D01*
X701156D01*
Y409198D01*
X700156Y408198D01*
X705155Y403200D02*
Y404200D01*
X706154D01*
Y403200D01*
X705155D01*
X714152D02*
X710153D01*
X714152Y407199D01*
Y408198D01*
X713152Y409198D01*
X711153D01*
X710153Y408198D01*
X716151Y409198D02*
X720150D01*
Y408198D01*
X716151Y404200D01*
Y403200D01*
X722149D02*
Y407199D01*
X723149D01*
X724149Y406199D01*
Y403200D01*
Y406199D01*
X725148Y407199D01*
X726148Y406199D01*
Y403200D01*
X728147D02*
Y407199D01*
X729147D01*
X730147Y406199D01*
Y403200D01*
Y406199D01*
X731146Y407199D01*
X732146Y406199D01*
Y403200D01*
X734145D02*
X736145Y405199D01*
Y407199D01*
X734145Y409198D01*
X1030661Y403200D02*
Y409198D01*
X1033660D01*
X1034660Y408198D01*
Y406199D01*
X1033660Y405199D01*
X1030661D01*
X1036659Y409198D02*
X1040658D01*
X1038658D01*
Y403200D01*
X1042657Y409198D02*
Y403200D01*
Y406199D01*
X1046656D01*
Y409198D01*
Y403200D01*
X1081049D02*
Y409198D01*
X1084048D01*
X1085047Y408198D01*
Y406199D01*
X1084048Y405199D01*
X1081049D01*
X1083048D02*
X1085047Y403200D01*
X1088046D02*
X1090046D01*
X1091045Y404200D01*
Y406199D01*
X1090046Y407199D01*
X1088046D01*
X1087047Y406199D01*
Y404200D01*
X1088046Y403200D01*
X1093045Y407199D02*
Y404200D01*
X1094044Y403200D01*
X1097043D01*
Y407199D01*
X1099043Y403200D02*
Y407199D01*
X1102042D01*
X1103041Y406199D01*
Y403200D01*
X1109039Y409198D02*
Y403200D01*
X1106040D01*
X1105041Y404200D01*
Y406199D01*
X1106040Y407199D01*
X1109039D01*
X595586Y391200D02*
X591588D01*
X595586Y395199D01*
Y396198D01*
X594587Y397198D01*
X592587D01*
X591588Y396198D01*
X661169Y391200D02*
X663168D01*
X662169D01*
Y397198D01*
X661169Y396198D01*
X666167Y392200D02*
X667167Y391200D01*
X669166D01*
X670166Y392200D01*
Y396198D01*
X669166Y397198D01*
X667167D01*
X666167Y396198D01*
Y395199D01*
X667167Y394199D01*
X670166D01*
X672165Y391200D02*
Y392200D01*
X673165D01*
Y391200D01*
X672165D01*
X681163Y397198D02*
X679163Y396198D01*
X677164Y394199D01*
Y392200D01*
X678163Y391200D01*
X680163D01*
X681163Y392200D01*
Y393199D01*
X680163Y394199D01*
X677164D01*
X683162Y396198D02*
X684162Y397198D01*
X686161D01*
X687160Y396198D01*
Y395199D01*
X686161Y394199D01*
X687160Y393199D01*
Y392200D01*
X686161Y391200D01*
X684162D01*
X683162Y392200D01*
Y393199D01*
X684162Y394199D01*
X683162Y395199D01*
Y396198D01*
X684162Y394199D02*
X686161D01*
X693159Y397198D02*
X689160D01*
Y394199D01*
X691159Y395199D01*
X692159D01*
X693159Y394199D01*
Y392200D01*
X692159Y391200D01*
X690160D01*
X689160Y392200D01*
X695158Y391200D02*
Y395199D01*
X696158D01*
X697157Y394199D01*
Y391200D01*
Y394199D01*
X698157Y395199D01*
X699157Y394199D01*
Y391200D01*
X701156D02*
X703155D01*
X702156D01*
Y395199D01*
X701156D01*
X706154Y391200D02*
X708154D01*
X707154D01*
Y397198D01*
X706154D01*
X719150Y391200D02*
X717151Y393199D01*
Y395199D01*
X719150Y397198D01*
X722149Y396198D02*
X723149Y397198D01*
X725148D01*
X726148Y396198D01*
Y392200D01*
X725148Y391200D01*
X723149D01*
X722149Y392200D01*
Y396198D01*
X728147Y391200D02*
Y392200D01*
X729147D01*
Y391200D01*
X728147D01*
X737144Y397198D02*
X733146D01*
Y394199D01*
X735145Y395199D01*
X736145D01*
X737144Y394199D01*
Y392200D01*
X736145Y391200D01*
X734145D01*
X733146Y392200D01*
X739144Y391200D02*
Y395199D01*
X740143D01*
X741143Y394199D01*
Y391200D01*
Y394199D01*
X742143Y395199D01*
X743142Y394199D01*
Y391200D01*
X745142D02*
Y395199D01*
X746141D01*
X747141Y394199D01*
Y391200D01*
Y394199D01*
X748141Y395199D01*
X749141Y394199D01*
Y391200D01*
X751140D02*
X753139Y393199D01*
Y395199D01*
X751140Y397198D01*
X799528D02*
X795529D01*
Y394199D01*
X797529Y395199D01*
X798528D01*
X799528Y394199D01*
Y392200D01*
X798528Y391200D01*
X796529D01*
X795529Y392200D01*
X801527D02*
X802527Y391200D01*
X804526D01*
X805526Y392200D01*
Y396198D01*
X804526Y397198D01*
X802527D01*
X801527Y396198D01*
Y395199D01*
X802527Y394199D01*
X805526D01*
X807526Y391200D02*
Y392200D01*
X808525D01*
Y391200D01*
X807526D01*
X812524Y396198D02*
X813523Y397198D01*
X815523D01*
X816523Y396198D01*
Y392200D01*
X815523Y391200D01*
X813523D01*
X812524Y392200D01*
Y396198D01*
X822521Y397198D02*
X818522D01*
Y394199D01*
X820521Y395199D01*
X821521D01*
X822521Y394199D01*
Y392200D01*
X821521Y391200D01*
X819522D01*
X818522Y392200D01*
X828519Y397198D02*
X824520D01*
Y394199D01*
X826519Y395199D01*
X827519D01*
X828519Y394199D01*
Y392200D01*
X827519Y391200D01*
X825520D01*
X824520Y392200D01*
X830518Y391200D02*
Y395199D01*
X831518D01*
X832517Y394199D01*
Y391200D01*
Y394199D01*
X833517Y395199D01*
X834517Y394199D01*
Y391200D01*
X836516D02*
X838515D01*
X837516D01*
Y395199D01*
X836516D01*
X841514Y391200D02*
X843514D01*
X842514D01*
Y397198D01*
X841514D01*
X854510Y391200D02*
X852511Y393199D01*
Y395199D01*
X854510Y397198D01*
X857509Y391200D02*
X859509D01*
X858509D01*
Y397198D01*
X857509Y396198D01*
X862508Y391200D02*
Y392200D01*
X863507D01*
Y391200D01*
X862508D01*
X871505Y397198D02*
X867506D01*
Y394199D01*
X869505Y395199D01*
X870505D01*
X871505Y394199D01*
Y392200D01*
X870505Y391200D01*
X868506D01*
X867506Y392200D01*
X873504Y391200D02*
Y395199D01*
X874504D01*
X875503Y394199D01*
Y391200D01*
Y394199D01*
X876503Y395199D01*
X877503Y394199D01*
Y391200D01*
X879502D02*
Y395199D01*
X880502D01*
X881501Y394199D01*
Y391200D01*
Y394199D01*
X882501Y395199D01*
X883501Y394199D01*
Y391200D01*
X885500D02*
X887500Y393199D01*
Y395199D01*
X885500Y397198D01*
X909496Y396198D02*
X910496Y397198D01*
X912495D01*
X913495Y396198D01*
Y395199D01*
X912495Y394199D01*
X911496D01*
X912495D01*
X913495Y393199D01*
Y392200D01*
X912495Y391200D01*
X910496D01*
X909496Y392200D01*
X915494D02*
X916494Y391200D01*
X918493D01*
X919493Y392200D01*
Y396198D01*
X918493Y397198D01*
X916494D01*
X915494Y396198D01*
Y395199D01*
X916494Y394199D01*
X919493D01*
X921492Y391200D02*
Y392200D01*
X922492D01*
Y391200D01*
X921492D01*
X926491Y396198D02*
X927491Y397198D01*
X929490D01*
X930490Y396198D01*
Y395199D01*
X929490Y394199D01*
X928490D01*
X929490D01*
X930490Y393199D01*
Y392200D01*
X929490Y391200D01*
X927491D01*
X926491Y392200D01*
X932489Y397198D02*
X936488D01*
Y396198D01*
X932489Y392200D01*
Y391200D01*
X938487D02*
Y395199D01*
X939487D01*
X940486Y394199D01*
Y391200D01*
Y394199D01*
X941486Y395199D01*
X942486Y394199D01*
Y391200D01*
X944485D02*
X946484D01*
X945485D01*
Y395199D01*
X944485D01*
X949483Y391200D02*
X951483D01*
X950483D01*
Y397198D01*
X949483D01*
X962479Y391200D02*
X960480Y393199D01*
Y395199D01*
X962479Y397198D01*
X965478Y391200D02*
X967478D01*
X966478D01*
Y397198D01*
X965478Y396198D01*
X970477Y391200D02*
Y395199D01*
X971476D01*
X972476Y394199D01*
Y391200D01*
Y394199D01*
X973476Y395199D01*
X974475Y394199D01*
Y391200D01*
X976475D02*
Y395199D01*
X977474D01*
X978474Y394199D01*
Y391200D01*
Y394199D01*
X979474Y395199D01*
X980473Y394199D01*
Y391200D01*
X982473D02*
X984472Y393199D01*
Y395199D01*
X982473Y397198D01*
X1030661Y391200D02*
Y397198D01*
X1033660D01*
X1034660Y396198D01*
Y394199D01*
X1033660Y393199D01*
X1030661D01*
X1036659Y397198D02*
X1040658D01*
X1038658D01*
Y391200D01*
X1042657Y397198D02*
Y391200D01*
Y394199D01*
X1046656D01*
Y397198D01*
Y391200D01*
X1085047Y396198D02*
X1084048Y397198D01*
X1082048D01*
X1081049Y396198D01*
Y395199D01*
X1082048Y394199D01*
X1084048D01*
X1085047Y393199D01*
Y392200D01*
X1084048Y391200D01*
X1082048D01*
X1081049Y392200D01*
X1087047Y391200D02*
X1089046D01*
X1088046D01*
Y397198D01*
X1087047D01*
X1093045Y391200D02*
X1095044D01*
X1096044Y392200D01*
Y394199D01*
X1095044Y395199D01*
X1093045D01*
X1092045Y394199D01*
Y392200D01*
X1093045Y391200D01*
X1099043Y396198D02*
Y395199D01*
X1098043D01*
X1100042D01*
X1099043D01*
Y392200D01*
X1100042Y391200D01*
X595586Y379200D02*
X591588D01*
X595586Y383199D01*
Y384198D01*
X594587Y385198D01*
X592587D01*
X591588Y384198D01*
X665168Y379200D02*
X661169D01*
X665168Y383199D01*
Y384198D01*
X664168Y385198D01*
X662169D01*
X661169Y384198D01*
X667167D02*
X668167Y385198D01*
X670166D01*
X671166Y384198D01*
Y383199D01*
X670166Y382199D01*
X669166D01*
X670166D01*
X671166Y381199D01*
Y380200D01*
X670166Y379200D01*
X668167D01*
X667167Y380200D01*
X673165Y379200D02*
Y380200D01*
X674165D01*
Y379200D01*
X673165D01*
X682162Y385198D02*
X680163Y384198D01*
X678163Y382199D01*
Y380200D01*
X679163Y379200D01*
X681163D01*
X682162Y380200D01*
Y381199D01*
X681163Y382199D01*
X678163D01*
X688160Y379200D02*
X684162D01*
X688160Y383199D01*
Y384198D01*
X687160Y385198D01*
X685161D01*
X684162Y384198D01*
X694158Y379200D02*
X690160D01*
X694158Y383199D01*
Y384198D01*
X693159Y385198D01*
X691159D01*
X690160Y384198D01*
X696158Y379200D02*
Y383199D01*
X697157D01*
X698157Y382199D01*
Y379200D01*
Y382199D01*
X699157Y383199D01*
X700156Y382199D01*
Y379200D01*
X702156D02*
X704155D01*
X703155D01*
Y383199D01*
X702156D01*
X707154Y379200D02*
X709153D01*
X708154D01*
Y385198D01*
X707154D01*
X720150Y379200D02*
X718151Y381199D01*
Y383199D01*
X720150Y385198D01*
X723149Y384198D02*
X724149Y385198D01*
X726148D01*
X727148Y384198D01*
Y380200D01*
X726148Y379200D01*
X724149D01*
X723149Y380200D01*
Y384198D01*
X729147Y379200D02*
Y380200D01*
X730147D01*
Y379200D01*
X729147D01*
X738144Y385198D02*
X736145Y384198D01*
X734145Y382199D01*
Y380200D01*
X735145Y379200D01*
X737144D01*
X738144Y380200D01*
Y381199D01*
X737144Y382199D01*
X734145D01*
X740143Y379200D02*
Y383199D01*
X741143D01*
X742143Y382199D01*
Y379200D01*
Y382199D01*
X743142Y383199D01*
X744142Y382199D01*
Y379200D01*
X746141D02*
Y383199D01*
X747141D01*
X748141Y382199D01*
Y379200D01*
Y382199D01*
X749141Y383199D01*
X750140Y382199D01*
Y379200D01*
X752140D02*
X754139Y381199D01*
Y383199D01*
X752140Y385198D01*
X799528D02*
X795529D01*
Y382199D01*
X797529Y383199D01*
X798528D01*
X799528Y382199D01*
Y380200D01*
X798528Y379200D01*
X796529D01*
X795529Y380200D01*
X805526Y385198D02*
X801527D01*
Y382199D01*
X803527Y383199D01*
X804526D01*
X805526Y382199D01*
Y380200D01*
X804526Y379200D01*
X802527D01*
X801527Y380200D01*
X807526Y379200D02*
Y380200D01*
X808525D01*
Y379200D01*
X807526D01*
X812524D02*
X814523D01*
X813523D01*
Y385198D01*
X812524Y384198D01*
X817522Y379200D02*
X819522D01*
X818522D01*
Y385198D01*
X817522Y384198D01*
X822521D02*
X823520Y385198D01*
X825520D01*
X826519Y384198D01*
Y383199D01*
X825520Y382199D01*
X826519Y381199D01*
Y380200D01*
X825520Y379200D01*
X823520D01*
X822521Y380200D01*
Y381199D01*
X823520Y382199D01*
X822521Y383199D01*
Y384198D01*
X823520Y382199D02*
X825520D01*
X828519Y379200D02*
Y383199D01*
X829518D01*
X830518Y382199D01*
Y379200D01*
Y382199D01*
X831518Y383199D01*
X832517Y382199D01*
Y379200D01*
X834517D02*
X836516D01*
X835516D01*
Y383199D01*
X834517D01*
X839515Y379200D02*
X841514D01*
X840515D01*
Y385198D01*
X839515D01*
X852511Y379200D02*
X850511Y381199D01*
Y383199D01*
X852511Y385198D01*
X855510Y379200D02*
X857509D01*
X856510D01*
Y385198D01*
X855510Y384198D01*
X860508Y379200D02*
Y380200D01*
X861508D01*
Y379200D01*
X860508D01*
X868506D02*
Y385198D01*
X865507Y382199D01*
X869505D01*
X871505Y379200D02*
Y383199D01*
X872504D01*
X873504Y382199D01*
Y379200D01*
Y382199D01*
X874504Y383199D01*
X875503Y382199D01*
Y379200D01*
X877503D02*
Y383199D01*
X878502D01*
X879502Y382199D01*
Y379200D01*
Y382199D01*
X880502Y383199D01*
X881501Y382199D01*
Y379200D01*
X883501D02*
X885500Y381199D01*
Y383199D01*
X883501Y385198D01*
X909496Y384198D02*
X910496Y385198D01*
X912495D01*
X913495Y384198D01*
Y383199D01*
X912495Y382199D01*
X911496D01*
X912495D01*
X913495Y381199D01*
Y380200D01*
X912495Y379200D01*
X910496D01*
X909496Y380200D01*
X915494Y379200D02*
X917494D01*
X916494D01*
Y385198D01*
X915494Y384198D01*
X920493Y379200D02*
Y380200D01*
X921492D01*
Y379200D01*
X920493D01*
X928490D02*
Y385198D01*
X925491Y382199D01*
X929490D01*
X931489Y380200D02*
X932489Y379200D01*
X934488D01*
X935488Y380200D01*
Y384198D01*
X934488Y385198D01*
X932489D01*
X931489Y384198D01*
Y383199D01*
X932489Y382199D01*
X935488D01*
X941486Y385198D02*
X939487Y384198D01*
X937487Y382199D01*
Y380200D01*
X938487Y379200D01*
X940486D01*
X941486Y380200D01*
Y381199D01*
X940486Y382199D01*
X937487D01*
X943485Y379200D02*
Y383199D01*
X944485D01*
X945485Y382199D01*
Y379200D01*
Y382199D01*
X946484Y383199D01*
X947484Y382199D01*
Y379200D01*
X949483D02*
X951483D01*
X950483D01*
Y383199D01*
X949483D01*
X954482Y379200D02*
X956481D01*
X955482D01*
Y385198D01*
X954482D01*
X967478Y379200D02*
X965478Y381199D01*
Y383199D01*
X967478Y385198D01*
X970477Y384198D02*
X971476Y385198D01*
X973476D01*
X974475Y384198D01*
Y380200D01*
X973476Y379200D01*
X971476D01*
X970477Y380200D01*
Y384198D01*
X976475Y379200D02*
Y380200D01*
X977474D01*
Y379200D01*
X976475D01*
X981473Y384198D02*
X982473Y385198D01*
X984472D01*
X985472Y384198D01*
Y383199D01*
X984472Y382199D01*
X985472Y381199D01*
Y380200D01*
X984472Y379200D01*
X982473D01*
X981473Y380200D01*
Y381199D01*
X982473Y382199D01*
X981473Y383199D01*
Y384198D01*
X982473Y382199D02*
X984472D01*
X987471Y379200D02*
Y383199D01*
X988471D01*
X989470Y382199D01*
Y379200D01*
Y382199D01*
X990470Y383199D01*
X991470Y382199D01*
Y379200D01*
X993469D02*
Y383199D01*
X994469D01*
X995469Y382199D01*
Y379200D01*
Y382199D01*
X996468Y383199D01*
X997468Y382199D01*
Y379200D01*
X999467D02*
X1001467Y381199D01*
Y383199D01*
X999467Y385198D01*
X1030661Y379200D02*
Y385198D01*
X1033660D01*
X1034660Y384198D01*
Y382199D01*
X1033660Y381199D01*
X1030661D01*
X1036659Y385198D02*
X1040658D01*
X1038658D01*
Y379200D01*
X1042657Y385198D02*
Y379200D01*
Y382199D01*
X1046656D01*
Y385198D01*
Y379200D01*
X1085047Y384198D02*
X1084048Y385198D01*
X1082048D01*
X1081049Y384198D01*
Y383199D01*
X1082048Y382199D01*
X1084048D01*
X1085047Y381199D01*
Y380200D01*
X1084048Y379200D01*
X1082048D01*
X1081049Y380200D01*
X1087047Y379200D02*
X1089046D01*
X1088046D01*
Y385198D01*
X1087047D01*
X1093045Y379200D02*
X1095044D01*
X1096044Y380200D01*
Y382199D01*
X1095044Y383199D01*
X1093045D01*
X1092045Y382199D01*
Y380200D01*
X1093045Y379200D01*
X1099043Y384198D02*
Y383199D01*
X1098043D01*
X1100042D01*
X1099043D01*
Y380200D01*
X1100042Y379200D01*
X595586Y367200D02*
X591588D01*
X595586Y371199D01*
Y372198D01*
X594587Y373198D01*
X592587D01*
X591588Y372198D01*
X665168Y367200D02*
X661169D01*
X665168Y371199D01*
Y372198D01*
X664168Y373198D01*
X662169D01*
X661169Y372198D01*
X667167D02*
X668167Y373198D01*
X670166D01*
X671166Y372198D01*
Y371199D01*
X670166Y370199D01*
X669166D01*
X670166D01*
X671166Y369199D01*
Y368200D01*
X670166Y367200D01*
X668167D01*
X667167Y368200D01*
X673165Y367200D02*
Y368200D01*
X674165D01*
Y367200D01*
X673165D01*
X682162Y373198D02*
X680163Y372198D01*
X678163Y370199D01*
Y368200D01*
X679163Y367200D01*
X681163D01*
X682162Y368200D01*
Y369199D01*
X681163Y370199D01*
X678163D01*
X688160Y367200D02*
X684162D01*
X688160Y371199D01*
Y372198D01*
X687160Y373198D01*
X685161D01*
X684162Y372198D01*
X694158Y367200D02*
X690160D01*
X694158Y371199D01*
Y372198D01*
X693159Y373198D01*
X691159D01*
X690160Y372198D01*
X696158Y367200D02*
Y371199D01*
X697157D01*
X698157Y370199D01*
Y367200D01*
Y370199D01*
X699157Y371199D01*
X700156Y370199D01*
Y367200D01*
X702156D02*
X704155D01*
X703155D01*
Y371199D01*
X702156D01*
X707154Y367200D02*
X709153D01*
X708154D01*
Y373198D01*
X707154D01*
X720150Y367200D02*
X718151Y369199D01*
Y371199D01*
X720150Y373198D01*
X723149Y372198D02*
X724149Y373198D01*
X726148D01*
X727148Y372198D01*
Y368200D01*
X726148Y367200D01*
X724149D01*
X723149Y368200D01*
Y372198D01*
X729147Y367200D02*
Y368200D01*
X730147D01*
Y367200D01*
X729147D01*
X738144Y373198D02*
X736145Y372198D01*
X734145Y370199D01*
Y368200D01*
X735145Y367200D01*
X737144D01*
X738144Y368200D01*
Y369199D01*
X737144Y370199D01*
X734145D01*
X740143Y367200D02*
Y371199D01*
X741143D01*
X742143Y370199D01*
Y367200D01*
Y370199D01*
X743142Y371199D01*
X744142Y370199D01*
Y367200D01*
X746141D02*
Y371199D01*
X747141D01*
X748141Y370199D01*
Y367200D01*
Y370199D01*
X749141Y371199D01*
X750140Y370199D01*
Y367200D01*
X752140D02*
X754139Y369199D01*
Y371199D01*
X752140Y373198D01*
X799528D02*
X797529Y372198D01*
X795529Y370199D01*
Y368200D01*
X796529Y367200D01*
X798528D01*
X799528Y368200D01*
Y369199D01*
X798528Y370199D01*
X795529D01*
X805526Y373198D02*
X803527Y372198D01*
X801527Y370199D01*
Y368200D01*
X802527Y367200D01*
X804526D01*
X805526Y368200D01*
Y369199D01*
X804526Y370199D01*
X801527D01*
X807526Y367200D02*
Y368200D01*
X808525D01*
Y367200D01*
X807526D01*
X812524Y368200D02*
X813523Y367200D01*
X815523D01*
X816523Y368200D01*
Y372198D01*
X815523Y373198D01*
X813523D01*
X812524Y372198D01*
Y371199D01*
X813523Y370199D01*
X816523D01*
X822521Y367200D02*
X818522D01*
X822521Y371199D01*
Y372198D01*
X821521Y373198D01*
X819522D01*
X818522Y372198D01*
X824520Y368200D02*
X825520Y367200D01*
X827519D01*
X828519Y368200D01*
Y372198D01*
X827519Y373198D01*
X825520D01*
X824520Y372198D01*
Y371199D01*
X825520Y370199D01*
X828519D01*
X830518Y367200D02*
Y371199D01*
X831518D01*
X832517Y370199D01*
Y367200D01*
Y370199D01*
X833517Y371199D01*
X834517Y370199D01*
Y367200D01*
X836516D02*
X838515D01*
X837516D01*
Y371199D01*
X836516D01*
X841514Y367200D02*
X843514D01*
X842514D01*
Y373198D01*
X841514D01*
X854510Y367200D02*
X852511Y369199D01*
Y371199D01*
X854510Y373198D01*
X857509Y367200D02*
X859509D01*
X858509D01*
Y373198D01*
X857509Y372198D01*
X862508Y367200D02*
Y368200D01*
X863507D01*
Y367200D01*
X862508D01*
X867506Y373198D02*
X871505D01*
Y372198D01*
X867506Y368200D01*
Y367200D01*
X873504D02*
Y371199D01*
X874504D01*
X875503Y370199D01*
Y367200D01*
Y370199D01*
X876503Y371199D01*
X877503Y370199D01*
Y367200D01*
X879502D02*
Y371199D01*
X880502D01*
X881501Y370199D01*
Y367200D01*
Y370199D01*
X882501Y371199D01*
X883501Y370199D01*
Y367200D01*
X885500D02*
X887500Y369199D01*
Y371199D01*
X885500Y373198D01*
X912495Y367200D02*
Y373198D01*
X909496Y370199D01*
X913495D01*
X915494Y372198D02*
X916494Y373198D01*
X918493D01*
X919493Y372198D01*
Y371199D01*
X918493Y370199D01*
X917494D01*
X918493D01*
X919493Y369199D01*
Y368200D01*
X918493Y367200D01*
X916494D01*
X915494Y368200D01*
X921492Y367200D02*
Y368200D01*
X922492D01*
Y367200D01*
X921492D01*
X926491Y372198D02*
X927491Y373198D01*
X929490D01*
X930490Y372198D01*
Y371199D01*
X929490Y370199D01*
X928490D01*
X929490D01*
X930490Y369199D01*
Y368200D01*
X929490Y367200D01*
X927491D01*
X926491Y368200D01*
X932489Y372198D02*
X933489Y373198D01*
X935488D01*
X936488Y372198D01*
Y368200D01*
X935488Y367200D01*
X933489D01*
X932489Y368200D01*
Y372198D01*
X938487Y373198D02*
X942486D01*
Y372198D01*
X938487Y368200D01*
Y367200D01*
X944485D02*
Y371199D01*
X945485D01*
X946484Y370199D01*
Y367200D01*
Y370199D01*
X947484Y371199D01*
X948484Y370199D01*
Y367200D01*
X950483D02*
X952482D01*
X951483D01*
Y371199D01*
X950483D01*
X955482Y367200D02*
X957481D01*
X956481D01*
Y373198D01*
X955482D01*
X968477Y367200D02*
X966478Y369199D01*
Y371199D01*
X968477Y373198D01*
X971476Y367200D02*
X973476D01*
X972476D01*
Y373198D01*
X971476Y372198D01*
X976475Y367200D02*
Y368200D01*
X977474D01*
Y367200D01*
X976475D01*
X981473D02*
X983472D01*
X982473D01*
Y373198D01*
X981473Y372198D01*
X986471Y367200D02*
Y371199D01*
X987471D01*
X988471Y370199D01*
Y367200D01*
Y370199D01*
X989470Y371199D01*
X990470Y370199D01*
Y367200D01*
X992470D02*
Y371199D01*
X993469D01*
X994469Y370199D01*
Y367200D01*
Y370199D01*
X995469Y371199D01*
X996468Y370199D01*
Y367200D01*
X998468D02*
X1000467Y369199D01*
Y371199D01*
X998468Y373198D01*
X1030661Y367200D02*
Y373198D01*
X1033660D01*
X1034660Y372198D01*
Y370199D01*
X1033660Y369199D01*
X1030661D01*
X1036659Y373198D02*
X1040658D01*
X1038658D01*
Y367200D01*
X1042657Y373198D02*
Y367200D01*
Y370199D01*
X1046656D01*
Y373198D01*
Y367200D01*
X1085047Y372198D02*
X1084048Y373198D01*
X1082048D01*
X1081049Y372198D01*
Y371199D01*
X1082048Y370199D01*
X1084048D01*
X1085047Y369199D01*
Y368200D01*
X1084048Y367200D01*
X1082048D01*
X1081049Y368200D01*
X1087047Y367200D02*
X1089046D01*
X1088046D01*
Y373198D01*
X1087047D01*
X1093045Y367200D02*
X1095044D01*
X1096044Y368200D01*
Y370199D01*
X1095044Y371199D01*
X1093045D01*
X1092045Y370199D01*
Y368200D01*
X1093045Y367200D01*
X1099043Y372198D02*
Y371199D01*
X1098043D01*
X1100042D01*
X1099043D01*
Y368200D01*
X1100042Y367200D01*
X591588Y355200D02*
X593587D01*
X592587D01*
Y361198D01*
X591588Y360198D01*
X596586Y361198D02*
X600585D01*
Y360198D01*
X596586Y356200D01*
Y355200D01*
X606583D02*
X602584D01*
X606583Y359199D01*
Y360198D01*
X605583Y361198D01*
X603584D01*
X602584Y360198D01*
X617383Y361198D02*
X621381D01*
X619382D01*
Y355200D01*
X624380D02*
X626380D01*
X627380Y356200D01*
Y358199D01*
X626380Y359199D01*
X624380D01*
X623381Y358199D01*
Y356200D01*
X624380Y355200D01*
X630378Y360198D02*
Y359199D01*
X629379D01*
X631378D01*
X630378D01*
Y356200D01*
X631378Y355200D01*
X635377Y359199D02*
X637376D01*
X638376Y358199D01*
Y355200D01*
X635377D01*
X634377Y356200D01*
X635377Y357199D01*
X638376D01*
X640375Y355200D02*
X642375D01*
X641375D01*
Y361198D01*
X640375D01*
X748538Y345199D02*
X752536D01*
X748538Y347199D02*
X752536D01*
X764532Y348198D02*
X763533Y349198D01*
X761533D01*
X760534Y348198D01*
Y344200D01*
X761533Y343200D01*
X763533D01*
X764532Y344200D01*
X767531Y347199D02*
X769531D01*
X770531Y346199D01*
Y343200D01*
X767531D01*
X766532Y344200D01*
X767531Y345199D01*
X770531D01*
X772530Y343200D02*
X774529D01*
X773529D01*
Y349198D01*
X772530D01*
X781527Y347199D02*
X778528D01*
X777528Y346199D01*
Y344200D01*
X778528Y343200D01*
X781527D01*
X783526Y347199D02*
Y344200D01*
X784526Y343200D01*
X787525D01*
Y347199D01*
X789524Y343200D02*
X791524D01*
X790524D01*
Y349198D01*
X789524D01*
X795522Y347199D02*
X797522D01*
X798521Y346199D01*
Y343200D01*
X795522D01*
X794523Y344200D01*
X795522Y345199D01*
X798521D01*
X801520Y348198D02*
Y347199D01*
X800521D01*
X802520D01*
X801520D01*
Y344200D01*
X802520Y343200D01*
X808518D02*
X806519D01*
X805519Y344200D01*
Y346199D01*
X806519Y347199D01*
X808518D01*
X809518Y346199D01*
Y345199D01*
X805519D01*
X815516Y349198D02*
Y343200D01*
X812517D01*
X811517Y344200D01*
Y346199D01*
X812517Y347199D01*
X815516D01*
X824513Y343200D02*
Y348198D01*
Y346199D01*
X823513D01*
X825513D01*
X824513D01*
Y348198D01*
X825513Y349198D01*
X828512Y347199D02*
Y343200D01*
Y345199D01*
X829511Y346199D01*
X830511Y347199D01*
X831511D01*
X835509Y343200D02*
X837509D01*
X838509Y344200D01*
Y346199D01*
X837509Y347199D01*
X835509D01*
X834510Y346199D01*
Y344200D01*
X835509Y343200D01*
X840508D02*
Y347199D01*
X841508D01*
X842507Y346199D01*
Y343200D01*
Y346199D01*
X843507Y347199D01*
X844506Y346199D01*
Y343200D01*
X853504Y348198D02*
Y347199D01*
X852504D01*
X854503D01*
X853504D01*
Y344200D01*
X854503Y343200D01*
X858502D02*
X860501D01*
X861501Y344200D01*
Y346199D01*
X860501Y347199D01*
X858502D01*
X857502Y346199D01*
Y344200D01*
X858502Y343200D01*
X864500D02*
X866499D01*
X867499Y344200D01*
Y346199D01*
X866499Y347199D01*
X864500D01*
X863500Y346199D01*
Y344200D01*
X864500Y343200D01*
X869498D02*
X871498D01*
X870498D01*
Y349198D01*
X869498D01*
X880495Y343200D02*
X883494D01*
X884494Y344200D01*
X883494Y345199D01*
X881495D01*
X880495Y346199D01*
X881495Y347199D01*
X884494D01*
X887493Y348198D02*
Y347199D01*
X886493D01*
X888492D01*
X887493D01*
Y344200D01*
X888492Y343200D01*
X892491Y347199D02*
X894490D01*
X895490Y346199D01*
Y343200D01*
X892491D01*
X891491Y344200D01*
X892491Y345199D01*
X895490D01*
X897489Y347199D02*
Y343200D01*
Y345199D01*
X898489Y346199D01*
X899489Y347199D01*
X900488D01*
X904487Y348198D02*
Y347199D01*
X903487D01*
X905487D01*
X904487D01*
Y344200D01*
X905487Y343200D01*
X918483Y347199D02*
X915483D01*
X914484Y346199D01*
Y344200D01*
X915483Y343200D01*
X918483D01*
X923481D02*
X921482D01*
X920482Y344200D01*
Y346199D01*
X921482Y347199D01*
X923481D01*
X924481Y346199D01*
Y345199D01*
X920482D01*
X926480Y343200D02*
Y347199D01*
X929479D01*
X930479Y346199D01*
Y343200D01*
X933478Y348198D02*
Y347199D01*
X932478D01*
X934477D01*
X933478D01*
Y344200D01*
X934477Y343200D01*
X937476Y347199D02*
Y343200D01*
Y345199D01*
X938476Y346199D01*
X939476Y347199D01*
X940475D01*
X946474Y343200D02*
X944474D01*
X943474Y344200D01*
Y346199D01*
X944474Y347199D01*
X946474D01*
X947473Y346199D01*
Y345199D01*
X943474D01*
X955471Y341201D02*
Y347199D01*
X958470D01*
X959469Y346199D01*
Y344200D01*
X958470Y343200D01*
X955471D01*
X962468D02*
X964468D01*
X965467Y344200D01*
Y346199D01*
X964468Y347199D01*
X962468D01*
X961469Y346199D01*
Y344200D01*
X962468Y343200D01*
X967467D02*
X970466D01*
X971465Y344200D01*
X970466Y345199D01*
X968466D01*
X967467Y346199D01*
X968466Y347199D01*
X971465D01*
X973465Y343200D02*
X975464D01*
X974465D01*
Y347199D01*
X973465D01*
X979463Y348198D02*
Y347199D01*
X978463D01*
X980462D01*
X979463D01*
Y344200D01*
X980462Y343200D01*
X983461D02*
X985461D01*
X984461D01*
Y347199D01*
X983461D01*
X989460Y343200D02*
X991459D01*
X992459Y344200D01*
Y346199D01*
X991459Y347199D01*
X989460D01*
X988460Y346199D01*
Y344200D01*
X989460Y343200D01*
X994458D02*
Y347199D01*
X997457D01*
X998457Y346199D01*
Y343200D01*
X1007454Y348198D02*
Y347199D01*
X1006454D01*
X1008453D01*
X1007454D01*
Y344200D01*
X1008453Y343200D01*
X1012452D02*
X1014452D01*
X1015451Y344200D01*
Y346199D01*
X1014452Y347199D01*
X1012452D01*
X1011452Y346199D01*
Y344200D01*
X1012452Y343200D01*
X1024448Y348198D02*
Y347199D01*
X1023449D01*
X1025448D01*
X1024448D01*
Y344200D01*
X1025448Y343200D01*
X1029447D02*
X1031446D01*
X1032446Y344200D01*
Y346199D01*
X1031446Y347199D01*
X1029447D01*
X1028447Y346199D01*
Y344200D01*
X1029447Y343200D01*
X1035445D02*
X1037444D01*
X1038444Y344200D01*
Y346199D01*
X1037444Y347199D01*
X1035445D01*
X1034445Y346199D01*
Y344200D01*
X1035445Y343200D01*
X1040443D02*
X1042443D01*
X1041443D01*
Y349198D01*
X1040443D01*
X1054439Y343200D02*
X1052439D01*
X1051440Y344200D01*
Y346199D01*
X1052439Y347199D01*
X1054439D01*
X1055438Y346199D01*
Y345199D01*
X1051440D01*
X1057438Y343200D02*
Y347199D01*
X1060437D01*
X1061436Y346199D01*
Y343200D01*
X1067434Y349198D02*
Y343200D01*
X1064435D01*
X1063436Y344200D01*
Y346199D01*
X1064435Y347199D01*
X1067434D01*
X1079430D02*
X1076431D01*
X1075432Y346199D01*
Y344200D01*
X1076431Y343200D01*
X1079430D01*
X1084429D02*
X1082430D01*
X1081430Y344200D01*
Y346199D01*
X1082430Y347199D01*
X1084429D01*
X1085429Y346199D01*
Y345199D01*
X1081430D01*
X1087428Y343200D02*
Y347199D01*
X1090427D01*
X1091427Y346199D01*
Y343200D01*
X1094426Y348198D02*
Y347199D01*
X1093426D01*
X1095425D01*
X1094426D01*
Y344200D01*
X1095425Y343200D01*
X1098424Y347199D02*
Y343200D01*
Y345199D01*
X1099424Y346199D01*
X1100424Y347199D01*
X1101423D01*
X1107421Y343200D02*
X1105422D01*
X1104422Y344200D01*
Y346199D01*
X1105422Y347199D01*
X1107421D01*
X1108421Y346199D01*
Y345199D01*
X1104422D01*
X1116418Y341201D02*
Y347199D01*
X1119418D01*
X1120417Y346199D01*
Y344200D01*
X1119418Y343200D01*
X1116418D01*
X1123416D02*
X1125416D01*
X1126415Y344200D01*
Y346199D01*
X1125416Y347199D01*
X1123416D01*
X1122417Y346199D01*
Y344200D01*
X1123416Y343200D01*
X1128415D02*
X1131414D01*
X1132413Y344200D01*
X1131414Y345199D01*
X1129414D01*
X1128415Y346199D01*
X1129414Y347199D01*
X1132413D01*
X1134413Y343200D02*
X1136412D01*
X1135412D01*
Y347199D01*
X1134413D01*
X1140411Y348198D02*
Y347199D01*
X1139411D01*
X1141410D01*
X1140411D01*
Y344200D01*
X1141410Y343200D01*
X1144409D02*
X1146409D01*
X1145409D01*
Y347199D01*
X1144409D01*
X1150408Y343200D02*
X1152407D01*
X1153407Y344200D01*
Y346199D01*
X1152407Y347199D01*
X1150408D01*
X1149408Y346199D01*
Y344200D01*
X1150408Y343200D01*
X1155406D02*
Y347199D01*
X1158405D01*
X1159405Y346199D01*
Y343200D01*
X1161404D02*
Y344200D01*
X1162404D01*
Y343200D01*
X1161404D01*
X748538Y333199D02*
X752536D01*
X748538Y335199D02*
X752536D01*
X760534Y331200D02*
Y337198D01*
X763533D01*
X764532Y336198D01*
Y334199D01*
X763533Y333199D01*
X760534D01*
X762533D02*
X764532Y331200D01*
X767531D02*
X769531D01*
X770531Y332200D01*
Y334199D01*
X769531Y335199D01*
X767531D01*
X766532Y334199D01*
Y332200D01*
X767531Y331200D01*
X772530Y335199D02*
Y332200D01*
X773529Y331200D01*
X776529D01*
Y335199D01*
X779528Y336198D02*
Y335199D01*
X778528D01*
X780527D01*
X779528D01*
Y332200D01*
X780527Y331200D01*
X789524D02*
Y337198D01*
X792523D01*
X793523Y336198D01*
Y334199D01*
X792523Y333199D01*
X789524D01*
X796522Y335199D02*
X798521D01*
X799521Y334199D01*
Y331200D01*
X796522D01*
X795522Y332200D01*
X796522Y333199D01*
X799521D01*
X802520Y336198D02*
Y335199D01*
X801520D01*
X803520D01*
X802520D01*
Y332200D01*
X803520Y331200D01*
X806519Y337198D02*
Y331200D01*
Y334199D01*
X807518Y335199D01*
X809518D01*
X810518Y334199D01*
Y331200D01*
X818515Y337198D02*
Y331200D01*
X822514D01*
X827512D02*
X825513D01*
X824513Y332200D01*
Y334199D01*
X825513Y335199D01*
X827512D01*
X828512Y334199D01*
Y333199D01*
X824513D01*
X830511Y331200D02*
Y335199D01*
X833510D01*
X834510Y334199D01*
Y331200D01*
X838509Y329201D02*
X839508D01*
X840508Y330200D01*
Y335199D01*
X837509D01*
X836509Y334199D01*
Y332200D01*
X837509Y331200D01*
X840508D01*
X843507Y336198D02*
Y335199D01*
X842507D01*
X844506D01*
X843507D01*
Y332200D01*
X844506Y331200D01*
X847506Y337198D02*
Y331200D01*
Y334199D01*
X848505Y335199D01*
X850505D01*
X851504Y334199D01*
Y331200D01*
X859502Y334199D02*
X863500D01*
X861501Y336198D02*
Y332200D01*
X871498Y337198D02*
X875496D01*
X873497D01*
Y331200D01*
X878496D02*
X880495D01*
X881495Y332200D01*
Y334199D01*
X880495Y335199D01*
X878496D01*
X877496Y334199D01*
Y332200D01*
X878496Y331200D01*
X884494D02*
X886493D01*
X887493Y332200D01*
Y334199D01*
X886493Y335199D01*
X884494D01*
X883494Y334199D01*
Y332200D01*
X884494Y331200D01*
X889492D02*
X891491D01*
X890492D01*
Y337198D01*
X889492D01*
X904487Y336198D02*
X903487Y337198D01*
X901488D01*
X900488Y336198D01*
Y335199D01*
X901488Y334199D01*
X903487D01*
X904487Y333199D01*
Y332200D01*
X903487Y331200D01*
X901488D01*
X900488Y332200D01*
X906487Y331200D02*
X908486D01*
X907486D01*
Y335199D01*
X906487D01*
X911485D02*
X915484D01*
X911485Y331200D01*
X915484D01*
X920482D02*
X918483D01*
X917483Y332200D01*
Y334199D01*
X918483Y335199D01*
X920482D01*
X921482Y334199D01*
Y333199D01*
X917483D01*
X929479D02*
X933478D01*
X929479Y335199D02*
X933478D01*
X945474Y336198D02*
X944474Y337198D01*
X942475D01*
X941475Y336198D01*
Y335199D01*
X942475Y334199D01*
X944474D01*
X945474Y333199D01*
Y332200D01*
X944474Y331200D01*
X942475D01*
X941475Y332200D01*
X947473Y331200D02*
X949473D01*
X948473D01*
Y337198D01*
X947473D01*
X953471Y331200D02*
X955471D01*
X956470Y332200D01*
Y334199D01*
X955471Y335199D01*
X953471D01*
X952472Y334199D01*
Y332200D01*
X953471Y331200D01*
X959469Y336198D02*
Y335199D01*
X958470D01*
X960469D01*
X959469D01*
Y332200D01*
X960469Y331200D01*
X969466D02*
X971465D01*
X970466D01*
Y337198D01*
X969466D01*
X977464Y331200D02*
X975464D01*
X974465Y332200D01*
Y334199D01*
X975464Y335199D01*
X977464D01*
X978463Y334199D01*
Y333199D01*
X974465D01*
X980462Y331200D02*
Y335199D01*
X983462D01*
X984461Y334199D01*
Y331200D01*
X988460Y329201D02*
X989460D01*
X990459Y330200D01*
Y335199D01*
X987460D01*
X986461Y334199D01*
Y332200D01*
X987460Y331200D01*
X990459D01*
X993458Y336198D02*
Y335199D01*
X992459D01*
X994458D01*
X993458D01*
Y332200D01*
X994458Y331200D01*
X997457Y337198D02*
Y331200D01*
Y334199D01*
X998457Y335199D01*
X1000456D01*
X1001456Y334199D01*
Y331200D01*
X1010453Y335199D02*
X1012452D01*
X1013452Y334199D01*
Y331200D01*
X1010453D01*
X1009453Y332200D01*
X1010453Y333199D01*
X1013452D01*
X1015451Y331200D02*
X1018450D01*
X1019450Y332200D01*
X1018450Y333199D01*
X1016451D01*
X1015451Y334199D01*
X1016451Y335199D01*
X1019450D01*
X1031446Y337198D02*
Y331200D01*
X1028447D01*
X1027447Y332200D01*
Y334199D01*
X1028447Y335199D01*
X1031446D01*
X1036444Y331200D02*
X1034445D01*
X1033445Y332200D01*
Y334199D01*
X1034445Y335199D01*
X1036444D01*
X1037444Y334199D01*
Y333199D01*
X1033445D01*
X1040443Y331200D02*
Y336198D01*
Y334199D01*
X1039443D01*
X1041443D01*
X1040443D01*
Y336198D01*
X1041443Y337198D01*
X1044442Y331200D02*
X1046441D01*
X1045442D01*
Y335199D01*
X1044442D01*
X1049440Y331200D02*
Y335199D01*
X1052439D01*
X1053439Y334199D01*
Y331200D01*
X1058437D02*
X1056438D01*
X1055438Y332200D01*
Y334199D01*
X1056438Y335199D01*
X1058437D01*
X1059437Y334199D01*
Y333199D01*
X1055438D01*
X1065435Y337198D02*
Y331200D01*
X1062436D01*
X1061436Y332200D01*
Y334199D01*
X1062436Y335199D01*
X1065435D01*
X1073433Y331200D02*
X1075432D01*
X1074432D01*
Y335199D01*
X1073433D01*
X1078431Y331200D02*
Y335199D01*
X1081430D01*
X1082430Y334199D01*
Y331200D01*
X1091427Y336198D02*
Y335199D01*
X1090427D01*
X1092426D01*
X1091427D01*
Y332200D01*
X1092426Y331200D01*
X1095425Y337198D02*
Y331200D01*
Y334199D01*
X1096425Y335199D01*
X1098424D01*
X1099424Y334199D01*
Y331200D01*
X1104422D02*
X1102423D01*
X1101423Y332200D01*
Y334199D01*
X1102423Y335199D01*
X1104422D01*
X1105422Y334199D01*
Y333199D01*
X1101423D01*
X1113420Y331200D02*
Y337198D01*
X1116418D01*
X1117418Y336198D01*
Y334199D01*
X1116418Y333199D01*
X1113420D01*
X1123416Y336198D02*
X1122417Y337198D01*
X1120417D01*
X1119418Y336198D01*
Y332200D01*
X1120417Y331200D01*
X1122417D01*
X1123416Y332200D01*
X1125416Y337198D02*
Y331200D01*
X1128415D01*
X1129414Y332200D01*
Y333199D01*
X1128415Y334199D01*
X1125416D01*
X1128415D01*
X1129414Y335199D01*
Y336198D01*
X1128415Y337198D01*
X1125416D01*
X1137412Y331200D02*
X1139411D01*
X1138411D01*
Y337198D01*
X1137412D01*
X1143410Y335199D02*
X1145409D01*
X1146409Y334199D01*
Y331200D01*
X1143410D01*
X1142410Y332200D01*
X1143410Y333199D01*
X1146409D01*
X1148408Y335199D02*
Y332200D01*
X1149408Y331200D01*
X1152407D01*
Y330200D01*
X1151407Y329201D01*
X1150408D01*
X1152407Y331200D02*
Y335199D01*
X1155406Y331200D02*
X1157405D01*
X1158405Y332200D01*
Y334199D01*
X1157405Y335199D01*
X1155406D01*
X1154406Y334199D01*
Y332200D01*
X1155406Y331200D01*
X1160404Y335199D02*
Y332200D01*
X1161404Y331200D01*
X1164403D01*
Y335199D01*
X1167402Y336198D02*
Y335199D01*
X1166402D01*
X1168402D01*
X1167402D01*
Y332200D01*
X1168402Y331200D01*
D76*
X546000Y442200D02*
G03*
X546000Y442200I-2400J0D01*
G01*
Y394200D02*
G03*
X546000Y394200I-2400J0D01*
G01*
D142*
X407572Y512341D02*
Y513941D01*
X409172D01*
Y512341D01*
X407572D01*
X410742Y505544D02*
Y507144D01*
X412342D01*
Y505544D01*
X410742D01*
X413700Y499200D02*
Y500800D01*
X415300D01*
Y499200D01*
X413700D01*
X538130Y528570D02*
X537330Y530170D01*
X538930D01*
X538130Y528570D01*
X504114D02*
X503314Y530170D01*
X504914D01*
X504114Y528570D01*
X538130Y512231D02*
X538530Y512632D01*
X538930D01*
X538530Y513031D01*
X538930Y513432D01*
X538530D01*
X538130Y513832D01*
X537730Y513432D01*
X537330D01*
X537730Y513031D01*
X537330Y512632D01*
X537730D01*
X538130Y512231D01*
X504114D02*
X504514Y512632D01*
X504914D01*
X504514Y513031D01*
X504914Y513432D01*
X504514D01*
X504114Y513832D01*
X503714Y513432D01*
X503314D01*
X503714Y513031D01*
X503314Y512632D01*
X503714D01*
X504114Y512231D01*
X531700Y514200D02*
X532100Y515000D01*
X531700Y515800D01*
X532500Y515400D01*
X533300Y515800D01*
X532900Y515000D01*
X533300Y514200D01*
X532500Y514600D01*
X531700Y514200D01*
X508944D02*
X509344Y515000D01*
X508944Y515800D01*
X509744Y515400D01*
X510544Y515800D01*
X510144Y515000D01*
X510544Y514200D01*
X509744Y514600D01*
X508944Y514200D01*
X382166Y281734D02*
X382566Y282534D01*
X382166Y283334D01*
X382966Y282934D01*
X383766Y283334D01*
X383366Y282534D01*
X383766Y281734D01*
X382966Y282134D01*
X382166Y281734D01*
X377163Y286737D02*
X377563Y287537D01*
X377163Y288337D01*
X377963Y287937D01*
X378763Y288337D01*
X378363Y287537D01*
X378763Y286737D01*
X377963Y287137D01*
X377163Y286737D01*
X415100Y321600D02*
Y321200D01*
X415900D01*
Y321600D01*
X416300D01*
Y322400D01*
X415900D01*
Y322800D01*
X415100D01*
Y322400D01*
X414700D01*
Y321600D01*
X415100D01*
X440800Y360900D02*
Y360500D01*
X441600D01*
Y360900D01*
X442000D01*
Y361700D01*
X441600D01*
Y362100D01*
X440800D01*
Y361700D01*
X440400D01*
Y360900D01*
X440800D01*
X456400Y327600D02*
X456800D01*
X457200Y328000D01*
X457600Y327600D01*
X458000D01*
Y328000D01*
X457600Y328400D01*
X458000Y328800D01*
Y329200D01*
X457600D01*
X457200Y328800D01*
X456800Y329200D01*
X456400D01*
Y328800D01*
X456800Y328400D01*
X456400Y328000D01*
Y327600D01*
X430809D02*
X431210D01*
X431609Y328000D01*
X432010Y327600D01*
X432409D01*
Y328000D01*
X432010Y328400D01*
X432409Y328800D01*
Y329200D01*
X432010D01*
X431609Y328800D01*
X431210Y329200D01*
X430809D01*
Y328800D01*
X431210Y328400D01*
X430809Y328000D01*
Y327600D01*
X456400Y347600D02*
X456800D01*
X457200Y348000D01*
X457600Y347600D01*
X458000D01*
Y348000D01*
X457600Y348400D01*
X458000Y348800D01*
Y349200D01*
X457600D01*
X457200Y348800D01*
X456800Y349200D01*
X456400D01*
Y348800D01*
X456800Y348400D01*
X456400Y348000D01*
Y347600D01*
X430809D02*
X431209D01*
X431609Y348000D01*
X432009Y347600D01*
X432409D01*
Y348000D01*
X432009Y348400D01*
X432409Y348800D01*
Y349200D01*
X432009D01*
X431609Y348800D01*
X431209Y349200D01*
X430809D01*
Y348800D01*
X431209Y348400D01*
X430809Y348000D01*
Y347600D01*
X658734Y571666D02*
X659134Y572466D01*
X658734Y573266D01*
X659534Y572866D01*
X660334Y573266D01*
X659934Y572466D01*
X660334Y571666D01*
X659534Y572066D01*
X658734Y571666D01*
X663737Y566663D02*
X664137Y567463D01*
X663737Y568263D01*
X664537Y567863D01*
X665337Y568263D01*
X664937Y567463D01*
X665337Y566663D01*
X664537Y567063D01*
X663737Y566663D01*
X625100Y531600D02*
Y531200D01*
X625900D01*
Y531600D01*
X626300D01*
Y532400D01*
X625900D01*
Y532800D01*
X625100D01*
Y532400D01*
X624700D01*
Y531600D01*
X625100D01*
X510417Y487000D02*
X511216Y487800D01*
X512016Y487000D01*
X511216Y486200D01*
X510417Y487000D01*
X474984D02*
X475783Y487800D01*
X476583Y487000D01*
X475783Y486200D01*
X474984Y487000D01*
X445200Y526700D02*
Y528300D01*
X446800D01*
Y526700D01*
X445200D01*
X445600Y527100D02*
Y527900D01*
X446400D01*
Y527100D01*
X445600D01*
X457011Y526700D02*
Y528300D01*
X458611D01*
Y526700D01*
X457011D01*
X457411Y527100D02*
Y527900D01*
X458211D01*
Y527100D01*
X457411D01*
X414100Y537100D02*
Y536700D01*
X414900D01*
Y537100D01*
X415300D01*
Y537900D01*
X414900D01*
Y538300D01*
X414100D01*
Y537900D01*
X413700D01*
Y537100D01*
X414100D01*
X376734Y566234D02*
X377134Y567034D01*
X376734Y567834D01*
X377534Y567434D01*
X378334Y567834D01*
X377934Y567034D01*
X378334Y566234D01*
X377534Y566634D01*
X376734Y566234D01*
X381737Y571237D02*
X382137Y572037D01*
X381737Y572837D01*
X382537Y572437D01*
X383337Y572837D01*
X382937Y572037D01*
X383337Y571237D01*
X382537Y571637D01*
X381737Y571237D01*
X616800Y413400D02*
Y413000D01*
X617600D01*
Y413400D01*
X618000D01*
Y414200D01*
X617600D01*
Y414600D01*
X616800D01*
Y414200D01*
X616400D01*
Y413400D01*
X616800D01*
Y423400D02*
Y423000D01*
X617600D01*
Y423400D01*
X618000D01*
Y424200D01*
X617600D01*
Y424600D01*
X616800D01*
Y424200D01*
X616400D01*
Y423400D01*
X616800D01*
Y433400D02*
Y433000D01*
X617600D01*
Y433400D01*
X618000D01*
Y434200D01*
X617600D01*
Y434600D01*
X616800D01*
Y434200D01*
X616400D01*
Y433400D01*
X616800D01*
Y443400D02*
Y443000D01*
X617600D01*
Y443400D01*
X618000D01*
Y444200D01*
X617600D01*
Y444600D01*
X616800D01*
Y444200D01*
X616400D01*
Y443400D01*
X616800D01*
X622600Y313600D02*
Y313200D01*
X623400D01*
Y313600D01*
X623800D01*
Y314400D01*
X623400D01*
Y314800D01*
X622600D01*
Y314400D01*
X622200D01*
Y313600D01*
X622600D01*
X663666Y290413D02*
X664066Y291213D01*
X663666Y292014D01*
X664466Y291614D01*
X665266Y292014D01*
X664866Y291213D01*
X665266Y290413D01*
X664466Y290813D01*
X663666Y290413D01*
X658663Y285411D02*
X659063Y286211D01*
X658663Y287011D01*
X659463Y286611D01*
X660263Y287011D01*
X659863Y286211D01*
X660263Y285411D01*
X659463Y285811D01*
X658663Y285411D01*
X472400Y412600D02*
X471600Y414200D01*
X473200D01*
X472400Y412600D01*
Y413000D02*
X472000Y413800D01*
X472800D01*
X472400Y413000D01*
X509100Y401000D02*
X508300Y402600D01*
X509900D01*
X509100Y401000D01*
Y401400D02*
X508700Y402200D01*
X509500D01*
X509100Y401400D01*
X500900Y403100D02*
X500100Y404700D01*
X501700D01*
X500900Y403100D01*
Y403500D02*
X500500Y404300D01*
X501300D01*
X500900Y403500D01*
X535400Y379400D02*
X534600Y381000D01*
X536200D01*
X535400Y379400D01*
Y379800D02*
X535000Y380600D01*
X535800D01*
X535400Y379800D01*
X537400Y371800D02*
X536600Y373400D01*
X538200D01*
X537400Y371800D01*
Y372200D02*
X537000Y373000D01*
X537800D01*
X537400Y372200D01*
X541300Y365600D02*
X540500Y367200D01*
X542100D01*
X541300Y365600D01*
Y366000D02*
X540900Y366800D01*
X541700D01*
X541300Y366000D01*
X594000Y376600D02*
X593200Y378200D01*
X594800D01*
X594000Y376600D01*
Y377000D02*
X593600Y377800D01*
X594400D01*
X594000Y377000D01*
X410700Y546100D02*
X409900Y547700D01*
X411500D01*
X410700Y546100D01*
Y546500D02*
X410300Y547300D01*
X411100D01*
X410700Y546500D01*
X466800Y447000D02*
X466000Y448600D01*
X467600D01*
X466800Y447000D01*
Y447400D02*
X466400Y448200D01*
X467200D01*
X466800Y447400D01*
X540700Y329600D02*
X539900Y331200D01*
X541500D01*
X540700Y329600D01*
Y330000D02*
X540300Y330800D01*
X541100D01*
X540700Y330000D01*
X677300Y266400D02*
X676500Y268000D01*
X678100D01*
X677300Y266400D01*
Y266800D02*
X676900Y267600D01*
X677700D01*
X677300Y266800D01*
X628900Y305800D02*
X628100Y307400D01*
X629700D01*
X628900Y305800D01*
Y306200D02*
X628500Y307000D01*
X629300D01*
X628900Y306200D01*
X571100Y367400D02*
X570300Y369000D01*
X571900D01*
X571100Y367400D01*
Y367800D02*
X570700Y368600D01*
X571500D01*
X571100Y367800D01*
X576895Y380300D02*
X576094Y381900D01*
X577695D01*
X576895Y380300D01*
Y380700D02*
X576495Y381500D01*
X577294D01*
X576895Y380700D01*
X571700Y376900D02*
X570900Y378500D01*
X572500D01*
X571700Y376900D01*
Y377300D02*
X571300Y378100D01*
X572100D01*
X571700Y377300D01*
X580800Y378700D02*
X580000Y380300D01*
X581600D01*
X580800Y378700D01*
Y379100D02*
X580400Y379900D01*
X581200D01*
X580800Y379100D01*
X574300Y374200D02*
X573500Y375800D01*
X575100D01*
X574300Y374200D01*
Y374600D02*
X573900Y375400D01*
X574700D01*
X574300Y374600D01*
X437400Y463800D02*
X436600Y465400D01*
X438200D01*
X437400Y463800D01*
Y464200D02*
X437000Y465000D01*
X437800D01*
X437400Y464200D01*
X565400Y469900D02*
X564600Y471500D01*
X566200D01*
X565400Y469900D01*
Y470300D02*
X565000Y471100D01*
X565800D01*
X565400Y470300D01*
X554900Y483100D02*
X554100Y484700D01*
X555700D01*
X554900Y483100D01*
Y483500D02*
X554500Y484300D01*
X555300D01*
X554900Y483500D01*
Y489100D02*
X554100Y490700D01*
X555700D01*
X554900Y489100D01*
Y489500D02*
X554500Y490300D01*
X555300D01*
X554900Y489500D01*
X550200Y496600D02*
X549400Y498200D01*
X551000D01*
X550200Y496600D01*
Y497000D02*
X549800Y497800D01*
X550600D01*
X550200Y497000D01*
X494800Y439163D02*
X494000Y440764D01*
X495600D01*
X494800Y439163D01*
Y439564D02*
X494400Y440364D01*
X495200D01*
X494800Y439564D01*
X468000Y370600D02*
X467200Y372200D01*
X468800D01*
X468000Y370600D01*
Y371000D02*
X467600Y371800D01*
X468400D01*
X468000Y371000D01*
X604500Y418600D02*
X603700Y420200D01*
X605300D01*
X604500Y418600D01*
Y419000D02*
X604100Y419800D01*
X604900D01*
X604500Y419000D01*
X604700Y432900D02*
X603900Y434500D01*
X605500D01*
X604700Y432900D01*
Y433300D02*
X604300Y434100D01*
X605100D01*
X604700Y433300D01*
Y443200D02*
X603900Y444800D01*
X605500D01*
X604700Y443200D01*
Y443600D02*
X604300Y444400D01*
X605100D01*
X604700Y443600D01*
X368900Y566900D02*
X368100Y568500D01*
X369700D01*
X368900Y566900D01*
Y567300D02*
X368500Y568100D01*
X369300D01*
X368900Y567300D01*
X680900Y267900D02*
X680100Y269500D01*
X681700D01*
X680900Y267900D01*
Y268300D02*
X680500Y269100D01*
X681300D01*
X680900Y268300D01*
X681700Y587700D02*
X680900Y589300D01*
X682500D01*
X681700Y587700D01*
Y588100D02*
X681300Y588900D01*
X682100D01*
X681700Y588100D01*
X360500Y588300D02*
X359700Y589900D01*
X361300D01*
X360500Y588300D01*
Y588700D02*
X360100Y589500D01*
X360900D01*
X360500Y588700D01*
X361100Y265900D02*
X360300Y267500D01*
X361900D01*
X361100Y265900D01*
Y266300D02*
X360700Y267100D01*
X361500D01*
X361100Y266300D01*
X501700Y433700D02*
X500900Y435300D01*
X502500D01*
X501700Y433700D01*
Y434100D02*
X501300Y434900D01*
X502100D01*
X501700Y434100D01*
X483200Y441000D02*
X482400Y442600D01*
X484000D01*
X483200Y441000D01*
Y441400D02*
X482800Y442200D01*
X483600D01*
X483200Y441400D01*
X513000Y401900D02*
X512200Y403500D01*
X513800D01*
X513000Y401900D01*
Y402300D02*
X512600Y403100D01*
X513400D01*
X513000Y402300D01*
X510900Y405300D02*
X510100Y406900D01*
X511700D01*
X510900Y405300D01*
Y405700D02*
X510500Y406500D01*
X511300D01*
X510900Y405700D01*
X508600Y408400D02*
X507800Y410000D01*
X509400D01*
X508600Y408400D01*
Y408800D02*
X508200Y409600D01*
X509000D01*
X508600Y408800D01*
X417800Y360100D02*
X417000Y361700D01*
X418600D01*
X417800Y360100D01*
Y360500D02*
X417400Y361300D01*
X418200D01*
X417800Y360500D01*
X428600Y488200D02*
X427800Y489800D01*
X429400D01*
X428600Y488200D01*
Y488600D02*
X428200Y489400D01*
X429000D01*
X428600Y488600D01*
X475000Y456900D02*
X474200Y458500D01*
X475800D01*
X475000Y456900D01*
Y457300D02*
X474600Y458100D01*
X475400D01*
X475000Y457300D01*
X594200Y443200D02*
X593400Y444800D01*
X595000D01*
X594200Y443200D01*
Y443600D02*
X593800Y444400D01*
X594600D01*
X594200Y443600D01*
X561500Y439163D02*
X560700Y440764D01*
X562300D01*
X561500Y439163D01*
Y439564D02*
X561100Y440364D01*
X561900D01*
X561500Y439564D01*
Y435200D02*
X560700Y436800D01*
X562300D01*
X561500Y435200D01*
Y435600D02*
X561100Y436400D01*
X561900D01*
X561500Y435600D01*
X556100Y430900D02*
X555300Y432500D01*
X556900D01*
X556100Y430900D01*
Y431300D02*
X555700Y432100D01*
X556500D01*
X556100Y431300D01*
X579500Y448500D02*
X578700Y450100D01*
X580300D01*
X579500Y448500D01*
Y448900D02*
X579100Y449700D01*
X579900D01*
X579500Y448900D01*
X575600Y418200D02*
X574800Y419800D01*
X576400D01*
X575600Y418200D01*
Y418600D02*
X575200Y419400D01*
X576000D01*
X575600Y418600D01*
X571700Y418200D02*
X570900Y419800D01*
X572500D01*
X571700Y418200D01*
Y418600D02*
X571300Y419400D01*
X572100D01*
X571700Y418600D01*
X579400Y418200D02*
X578600Y419800D01*
X580200D01*
X579400Y418200D01*
Y418600D02*
X579000Y419400D01*
X579800D01*
X579400Y418600D01*
X600500Y474400D02*
X599700Y476000D01*
X601300D01*
X600500Y474400D01*
Y474800D02*
X600100Y475600D01*
X600900D01*
X600500Y474800D01*
X554500Y437791D02*
X553700Y439391D01*
X555300D01*
X554500Y437791D01*
Y438191D02*
X554100Y438991D01*
X554900D01*
X554500Y438191D01*
X551500Y440200D02*
X550700Y441800D01*
X552300D01*
X551500Y440200D01*
Y440600D02*
X551100Y441400D01*
X551900D01*
X551500Y440600D01*
X579400Y408200D02*
X578600Y409800D01*
X580200D01*
X579400Y408200D01*
Y408600D02*
X579000Y409400D01*
X579800D01*
X579400Y408600D01*
X575600Y408200D02*
X574800Y409800D01*
X576400D01*
X575600Y408200D01*
Y408600D02*
X575200Y409400D01*
X576000D01*
X575600Y408600D01*
X571700Y408200D02*
X570900Y409800D01*
X572500D01*
X571700Y408200D01*
Y408600D02*
X571300Y409400D01*
X572100D01*
X571700Y408600D01*
X484500Y420700D02*
X483700Y422300D01*
X485300D01*
X484500Y420700D01*
Y421100D02*
X484100Y421900D01*
X484900D01*
X484500Y421100D01*
X506500Y422700D02*
X505700Y424300D01*
X507300D01*
X506500Y422700D01*
Y423100D02*
X506100Y423900D01*
X506900D01*
X506500Y423100D01*
X507500Y428200D02*
X506700Y429800D01*
X508300D01*
X507500Y428200D01*
Y428600D02*
X507100Y429400D01*
X507900D01*
X507500Y428600D01*
X506000Y418200D02*
X505200Y419800D01*
X506800D01*
X506000Y418200D01*
Y418600D02*
X505600Y419400D01*
X506400D01*
X506000Y418600D01*
X483044Y427200D02*
X482244Y428800D01*
X483844D01*
X483044Y427200D01*
Y427600D02*
X482644Y428400D01*
X483444D01*
X483044Y427600D01*
X571700Y396200D02*
X570900Y397800D01*
X572500D01*
X571700Y396200D01*
Y396600D02*
X571300Y397400D01*
X572100D01*
X571700Y396600D01*
X544500Y371985D02*
X543700Y373585D01*
X545300D01*
X544500Y371985D01*
Y372385D02*
X544100Y373185D01*
X544900D01*
X544500Y372385D01*
Y356700D02*
X543700Y358300D01*
X545300D01*
X544500Y356700D01*
Y357100D02*
X544100Y357900D01*
X544900D01*
X544500Y357100D01*
X438000Y497700D02*
X437200Y499300D01*
X438800D01*
X438000Y497700D01*
Y498100D02*
X437600Y498900D01*
X438400D01*
X438000Y498100D01*
X509000Y385200D02*
X508200Y386800D01*
X509800D01*
X509000Y385200D01*
Y385600D02*
X508600Y386400D01*
X509400D01*
X509000Y385600D01*
X513000Y385200D02*
X512200Y386800D01*
X513800D01*
X513000Y385200D01*
Y385600D02*
X512600Y386400D01*
X513400D01*
X513000Y385600D01*
X539000Y340700D02*
X538200Y342300D01*
X539800D01*
X539000Y340700D01*
Y341100D02*
X538600Y341900D01*
X539400D01*
X539000Y341100D01*
X536000Y337200D02*
X535200Y338800D01*
X536800D01*
X536000Y337200D01*
Y337600D02*
X535600Y338400D01*
X536400D01*
X536000Y337600D01*
X499500Y349200D02*
X498700Y350800D01*
X500300D01*
X499500Y349200D01*
Y349600D02*
X499100Y350400D01*
X499900D01*
X499500Y349600D01*
X529500Y360810D02*
X528700Y362410D01*
X530300D01*
X529500Y360810D01*
Y361210D02*
X529100Y362010D01*
X529900D01*
X529500Y361210D01*
X593000Y474400D02*
X592200Y476000D01*
X593800D01*
X593000Y474400D01*
Y474800D02*
X592600Y475600D01*
X593400D01*
X593000Y474800D01*
Y485700D02*
X592200Y487300D01*
X593800D01*
X593000Y485700D01*
Y486100D02*
X592600Y486900D01*
X593400D01*
X593000Y486100D01*
X600500Y485700D02*
X599700Y487300D01*
X601300D01*
X600500Y485700D01*
Y486100D02*
X600100Y486900D01*
X600900D01*
X600500Y486100D01*
X596750Y485700D02*
X595950Y487300D01*
X597550D01*
X596750Y485700D01*
Y486100D02*
X596350Y486900D01*
X597150D01*
X596750Y486100D01*
X523000Y501700D02*
X522200Y503300D01*
X523800D01*
X523000Y501700D01*
Y502100D02*
X522600Y502900D01*
X523400D01*
X523000Y502100D01*
X529000Y501700D02*
X528200Y503300D01*
X529800D01*
X529000Y501700D01*
Y502100D02*
X528600Y502900D01*
X529400D01*
X529000Y502100D01*
X508000Y501200D02*
X507200Y502800D01*
X508800D01*
X508000Y501200D01*
Y501600D02*
X507600Y502400D01*
X508400D01*
X508000Y501600D01*
X605490Y328200D02*
X604691Y329800D01*
X606290D01*
X605490Y328200D01*
Y328600D02*
X605091Y329400D01*
X605891D01*
X605490Y328600D01*
X605441Y333700D02*
X604640Y335300D01*
X606241D01*
X605441Y333700D01*
Y334100D02*
X605041Y334900D01*
X605840D01*
X605441Y334100D01*
X605488Y338200D02*
X604688Y339800D01*
X606288D01*
X605488Y338200D01*
Y338600D02*
X605088Y339400D01*
X605888D01*
X605488Y338600D01*
X595800Y362700D02*
X595000Y364300D01*
X596600D01*
X595800Y362700D01*
Y363100D02*
X595400Y363900D01*
X596200D01*
X595800Y363100D01*
X592000Y349200D02*
X591200Y350800D01*
X592800D01*
X592000Y349200D01*
Y349600D02*
X591600Y350400D01*
X592400D01*
X592000Y349600D01*
X605488Y342700D02*
X604688Y344300D01*
X606288D01*
X605488Y342700D01*
Y343100D02*
X605088Y343900D01*
X605888D01*
X605488Y343100D01*
X426000Y502700D02*
X425200Y504300D01*
X426800D01*
X426000Y502700D01*
Y503100D02*
X425600Y503900D01*
X426400D01*
X426000Y503100D01*
X423500Y507700D02*
X422700Y509300D01*
X424300D01*
X423500Y507700D01*
Y508100D02*
X423100Y508900D01*
X423900D01*
X423500Y508100D01*
X444000Y486200D02*
X443200Y487800D01*
X444800D01*
X444000Y486200D01*
Y486600D02*
X443600Y487400D01*
X444400D01*
X444000Y486600D01*
X455000Y486200D02*
X454200Y487800D01*
X455800D01*
X455000Y486200D01*
Y486600D02*
X454600Y487400D01*
X455400D01*
X455000Y486600D01*
Y478456D02*
X454200Y480056D01*
X455800D01*
X455000Y478456D01*
Y478856D02*
X454600Y479656D01*
X455400D01*
X455000Y478856D01*
X444000Y478456D02*
X443200Y480056D01*
X444800D01*
X444000Y478456D01*
Y478856D02*
X443600Y479656D01*
X444400D01*
X444000Y478856D01*
X581000Y396200D02*
X580200Y397800D01*
X581800D01*
X581000Y396200D01*
Y396600D02*
X580600Y397400D01*
X581400D01*
X581000Y396600D01*
X505000Y337200D02*
X504200Y338800D01*
X505800D01*
X505000Y337200D01*
Y337600D02*
X504600Y338400D01*
X505400D01*
X505000Y337600D01*
Y380700D02*
X504200Y382300D01*
X505800D01*
X505000Y380700D01*
Y381100D02*
X504600Y381900D01*
X505400D01*
X505000Y381100D01*
X596750Y474400D02*
X595950Y476000D01*
X597550D01*
X596750Y474400D01*
Y474800D02*
X596350Y475600D01*
X597150D01*
X596750Y474800D01*
X604300Y485700D02*
X603500Y487300D01*
X605100D01*
X604300Y485700D01*
Y486100D02*
X603900Y486900D01*
X604700D01*
X604300Y486100D01*
X589200Y485600D02*
X588400Y487200D01*
X590000D01*
X589200Y485600D01*
Y486000D02*
X588800Y486800D01*
X589600D01*
X589200Y486000D01*
X561000Y451900D02*
X560200Y453500D01*
X561800D01*
X561000Y451900D01*
Y452300D02*
X560600Y453100D01*
X561400D01*
X561000Y452300D01*
X594200Y432800D02*
X593400Y434400D01*
X595000D01*
X594200Y432800D01*
Y433200D02*
X593800Y434000D01*
X594600D01*
X594200Y433200D01*
X552300Y461400D02*
X551500Y463000D01*
X553100D01*
X552300Y461400D01*
Y461800D02*
X551900Y462600D01*
X552700D01*
X552300Y461800D01*
X543300Y451200D02*
X542500Y452800D01*
X544100D01*
X543300Y451200D01*
Y451600D02*
X542900Y452400D01*
X543700D01*
X543300Y451600D01*
X553000Y457700D02*
X552200Y459300D01*
X553800D01*
X553000Y457700D01*
Y458100D02*
X552600Y458900D01*
X553400D01*
X553000Y458100D01*
X546700Y447600D02*
X545900Y449200D01*
X547500D01*
X546700Y447600D01*
Y448000D02*
X546300Y448800D01*
X547100D01*
X546700Y448000D01*
X547000Y455700D02*
X546200Y457300D01*
X547800D01*
X547000Y455700D01*
Y456100D02*
X546600Y456900D01*
X547400D01*
X547000Y456100D01*
X550400Y452600D02*
X549600Y454200D01*
X551200D01*
X550400Y452600D01*
Y453000D02*
X550000Y453800D01*
X550800D01*
X550400Y453000D01*
X537800Y454500D02*
X537000Y456100D01*
X538600D01*
X537800Y454500D01*
Y454900D02*
X537400Y455700D01*
X538200D01*
X537800Y454900D01*
X567900Y418100D02*
X567100Y419700D01*
X568700D01*
X567900Y418100D01*
Y418500D02*
X567500Y419300D01*
X568300D01*
X567900Y418500D01*
X520050Y402400D02*
X519250Y404000D01*
X520850D01*
X520050Y402400D01*
Y402800D02*
X519650Y403600D01*
X520450D01*
X520050Y402800D01*
X472400Y406100D02*
X471600Y407700D01*
X473200D01*
X472400Y406100D01*
Y406500D02*
X472000Y407300D01*
X472800D01*
X472400Y406500D01*
X556400Y458800D02*
X555600Y460400D01*
X557200D01*
X556400Y458800D01*
Y459200D02*
X556000Y460000D01*
X556800D01*
X556400Y459200D01*
X514500Y451300D02*
X513700Y452900D01*
X515300D01*
X514500Y451300D01*
Y451700D02*
X514100Y452500D01*
X514900D01*
X514500Y451700D01*
X530400Y437100D02*
X529600Y438700D01*
X531200D01*
X530400Y437100D01*
Y437500D02*
X530000Y438300D01*
X530800D01*
X530400Y437500D01*
X576900Y443400D02*
X576100Y445000D01*
X577700D01*
X576900Y443400D01*
Y443800D02*
X576500Y444600D01*
X577300D01*
X576900Y443800D01*
X483400Y448900D02*
X482600Y450500D01*
X484200D01*
X483400Y448900D01*
Y449300D02*
X483000Y450100D01*
X483800D01*
X483400Y449300D01*
X429800Y432800D02*
X429000Y434400D01*
X430600D01*
X429800Y432800D01*
Y433200D02*
X429400Y434000D01*
X430200D01*
X429800Y433200D01*
X498800Y437300D02*
X498000Y438900D01*
X499600D01*
X498800Y437300D01*
Y437700D02*
X498400Y438500D01*
X499200D01*
X498800Y437700D01*
X501500Y440400D02*
X500700Y442000D01*
X502300D01*
X501500Y440400D01*
Y440800D02*
X501100Y441600D01*
X501900D01*
X501500Y440800D01*
X579400Y466600D02*
X578600Y468200D01*
X580200D01*
X579400Y466600D01*
Y467000D02*
X579000Y467800D01*
X579800D01*
X579400Y467000D01*
X515253Y463700D02*
X514453Y465300D01*
X516053D01*
X515253Y463700D01*
Y464100D02*
X514853Y464900D01*
X515653D01*
X515253Y464100D01*
X561000Y443800D02*
X560200Y445400D01*
X561800D01*
X561000Y443800D01*
Y444200D02*
X560600Y445000D01*
X561400D01*
X561000Y444200D01*
X577800Y453800D02*
X577000Y455400D01*
X578600D01*
X577800Y453800D01*
Y454200D02*
X577400Y455000D01*
X578200D01*
X577800Y454200D01*
X533900Y403700D02*
X533100Y405300D01*
X534700D01*
X533900Y403700D01*
Y404100D02*
X533500Y404900D01*
X534300D01*
X533900Y404100D01*
X474000Y532300D02*
X473200Y533900D01*
X474800D01*
X474000Y532300D01*
Y532700D02*
X473600Y533500D01*
X474400D01*
X474000Y532700D01*
X543600Y487800D02*
X541200Y492600D01*
X546000D01*
X543600Y487800D01*
Y488800D02*
X542200Y491600D01*
X545000D01*
X543600Y488800D01*
X541200Y475800D02*
X542400Y478200D01*
X541200Y480600D01*
X543600Y479400D01*
X546000Y480600D01*
X544800Y478200D01*
X546000Y475800D01*
X543600Y477000D01*
X541200Y475800D01*
Y463800D02*
Y468600D01*
X546000D01*
Y463800D01*
X541200D01*
Y454200D02*
X543600Y456600D01*
X546000Y454200D01*
X543600Y451800D01*
X541200Y454200D01*
X542400Y429000D02*
Y427800D01*
X544800D01*
Y429000D01*
X546000D01*
Y431400D01*
X544800D01*
Y432600D01*
X542400D01*
Y431400D01*
X541200D01*
Y429000D01*
X542400D01*
X541200Y415800D02*
X542400D01*
X543600Y417000D01*
X544800Y415800D01*
X546000D01*
Y417000D01*
X544800Y418200D01*
X546000Y419400D01*
Y420600D01*
X544800D01*
X543600Y419400D01*
X542400Y420600D01*
X541200D01*
Y419400D01*
X542400Y418200D01*
X541200Y417000D01*
Y415800D01*
Y403800D02*
Y408600D01*
X546000D01*
Y403800D01*
X541200D01*
X542200Y404800D02*
Y407600D01*
X545000D01*
Y404800D01*
X542200D01*
X543600Y379800D02*
X541200Y384600D01*
X546000D01*
X543600Y379800D01*
Y367800D02*
X544800Y369000D01*
X546000D01*
X544800Y370200D01*
X546000Y371400D01*
X544800D01*
X543600Y372600D01*
X542400Y371400D01*
X541200D01*
X542400Y370200D01*
X541200Y369000D01*
X542400D01*
X543600Y367800D01*
D144*
X405791Y520392D02*
G03*
X405791Y520392I-800J0D01*
G01*
X418681Y492750D02*
G03*
X418681Y492750I-800J0D01*
G01*
X460300Y399500D02*
G03*
X460300Y399500I-800J0D01*
G01*
Y419500D02*
G03*
X460300Y419500I-800J0D01*
G01*
Y429500D02*
G03*
X460300Y429500I-800J0D01*
G01*
Y439500D02*
G03*
X460300Y439500I-800J0D01*
G01*
Y449500D02*
G03*
X460300Y449500I-800J0D01*
G01*
Y459500D02*
G03*
X460300Y459500I-800J0D01*
G01*
Y409500D02*
G03*
X460300Y409500I-800J0D01*
G01*
Y389500D02*
G03*
X460300Y389500I-800J0D01*
G01*
X589300Y399500D02*
G03*
X589300Y399500I-800J0D01*
G01*
Y419500D02*
G03*
X589300Y419500I-800J0D01*
G01*
Y429500D02*
G03*
X589300Y429500I-800J0D01*
G01*
Y439500D02*
G03*
X589300Y439500I-800J0D01*
G01*
Y449500D02*
G03*
X589300Y449500I-800J0D01*
G01*
Y459500D02*
G03*
X589300Y459500I-800J0D01*
G01*
Y409500D02*
G03*
X589300Y409500I-800J0D01*
G01*
Y389500D02*
G03*
X589300Y389500I-800J0D01*
G01*
D145*
X459900Y399500D02*
G03*
X459900Y399500I-400J0D01*
G01*
Y419500D02*
G03*
X459900Y419500I-400J0D01*
G01*
Y429500D02*
G03*
X459900Y429500I-400J0D01*
G01*
Y439500D02*
G03*
X459900Y439500I-400J0D01*
G01*
Y449500D02*
G03*
X459900Y449500I-400J0D01*
G01*
Y459500D02*
G03*
X459900Y459500I-400J0D01*
G01*
Y409500D02*
G03*
X459900Y409500I-400J0D01*
G01*
Y389500D02*
G03*
X459900Y389500I-400J0D01*
G01*
X588900Y399500D02*
G03*
X588900Y399500I-400J0D01*
G01*
Y419500D02*
G03*
X588900Y419500I-400J0D01*
G01*
Y429500D02*
G03*
X588900Y429500I-400J0D01*
G01*
Y439500D02*
G03*
X588900Y439500I-400J0D01*
G01*
Y449500D02*
G03*
X588900Y449500I-400J0D01*
G01*
Y459500D02*
G03*
X588900Y459500I-400J0D01*
G01*
Y409500D02*
G03*
X588900Y409500I-400J0D01*
G01*
Y389500D02*
G03*
X588900Y389500I-400J0D01*
G01*
D146*
X545998Y507598D02*
X544799Y508798D01*
X542400D01*
X541200Y507598D01*
Y506398D01*
X542400Y505199D01*
X544799D01*
X545998Y503999D01*
Y502800D01*
X544799Y501600D01*
X542400D01*
X541200Y502800D01*
X548398Y506398D02*
Y502800D01*
X549597Y501600D01*
X553196D01*
Y500400D01*
X551997Y499201D01*
X550797D01*
X553196Y501600D02*
Y506398D01*
X555595Y501600D02*
Y506398D01*
X556795D01*
X557995Y505199D01*
Y501600D01*
Y505199D01*
X559194Y506398D01*
X560394Y505199D01*
Y501600D01*
X562793Y508798D02*
Y501600D01*
X566392D01*
X567591Y502800D01*
Y503999D01*
Y505199D01*
X566392Y506398D01*
X562793D01*
X571190Y501600D02*
X573590D01*
X574789Y502800D01*
Y505199D01*
X573590Y506398D01*
X571190D01*
X569991Y505199D01*
Y502800D01*
X571190Y501600D01*
X577188D02*
X579588D01*
X578388D01*
Y508798D01*
X577188D01*
X591588D02*
Y501600D01*
Y505199D01*
X596386D01*
Y508798D01*
Y501600D01*
X598785D02*
X601185D01*
X599985D01*
Y506398D01*
X598785D01*
X605983Y507598D02*
Y506398D01*
X604783D01*
X607183D01*
X605983D01*
Y502800D01*
X607183Y501600D01*
X622778Y507598D02*
X621578Y508798D01*
X619179D01*
X617979Y507598D01*
Y502800D01*
X619179Y501600D01*
X621578D01*
X622778Y502800D01*
X626376Y501600D02*
X628776D01*
X629975Y502800D01*
Y505199D01*
X628776Y506398D01*
X626376D01*
X625177Y505199D01*
Y502800D01*
X626376Y501600D01*
X632374Y506398D02*
Y502800D01*
X633574Y501600D01*
X637173D01*
Y506398D01*
X639572Y501600D02*
Y506398D01*
X643171D01*
X644371Y505199D01*
Y501600D01*
X647969Y507598D02*
Y506398D01*
X646770D01*
X649169D01*
X647969D01*
Y502800D01*
X649169Y501600D01*
X665967Y508798D02*
X661169D01*
Y505199D01*
X663568D01*
X661169D01*
Y501600D01*
X668367D02*
X670766D01*
X669566D01*
Y506398D01*
X668367D01*
X674365Y501600D02*
Y506398D01*
X677963D01*
X679163Y505199D01*
Y501600D01*
X681562D02*
X683961D01*
X682762D01*
Y506398D01*
X681562D01*
X687560Y501600D02*
X691159D01*
X692359Y502800D01*
X691159Y503999D01*
X688760D01*
X687560Y505199D01*
X688760Y506398D01*
X692359D01*
X694758Y508798D02*
Y501600D01*
Y505199D01*
X695958Y506398D01*
X698357D01*
X699556Y505199D01*
Y501600D01*
X705555D02*
X703155D01*
X701956Y502800D01*
Y505199D01*
X703155Y506398D01*
X705555D01*
X706754Y505199D01*
Y503999D01*
X701956D01*
X713952Y508798D02*
Y501600D01*
X710353D01*
X709153Y502800D01*
Y505199D01*
X710353Y506398D01*
X713952D01*
X723549Y508798D02*
Y501600D01*
Y505199D01*
X728347D01*
Y508798D01*
Y501600D01*
X731946D02*
X734345D01*
X735545Y502800D01*
Y505199D01*
X734345Y506398D01*
X731946D01*
X730746Y505199D01*
Y502800D01*
X731946Y501600D01*
X737944D02*
X740343D01*
X739144D01*
Y508798D01*
X737944D01*
X747541Y501600D02*
X745142D01*
X743942Y502800D01*
Y505199D01*
X745142Y506398D01*
X747541D01*
X748741Y505199D01*
Y503999D01*
X743942D01*
X763136Y507598D02*
X761936Y508798D01*
X759537D01*
X758337Y507598D01*
Y506398D01*
X759537Y505199D01*
X761936D01*
X763136Y503999D01*
Y502800D01*
X761936Y501600D01*
X759537D01*
X758337Y502800D01*
X765535Y501600D02*
X767934D01*
X766735D01*
Y506398D01*
X765535D01*
X771533D02*
X776332D01*
X771533Y501600D01*
X776332D01*
X782330D02*
X779930D01*
X778731Y502800D01*
Y505199D01*
X779930Y506398D01*
X782330D01*
X783529Y505199D01*
Y503999D01*
X778731D01*
X795529Y501600D02*
Y508798D01*
X799128D01*
X800328Y507598D01*
Y505199D01*
X799128Y503999D01*
X795529D01*
X802727Y508798D02*
Y501600D01*
Y505199D01*
X803927Y506398D01*
X806326D01*
X807526Y505199D01*
Y501600D01*
X809925Y506398D02*
Y502800D01*
X811124Y501600D01*
X814723D01*
Y500400D01*
X813523Y499201D01*
X812324D01*
X814723Y501600D02*
Y506398D01*
X817122Y501600D02*
X820721D01*
X821921Y502800D01*
X820721Y503999D01*
X818322D01*
X817122Y505199D01*
X818322Y506398D01*
X821921D01*
X824320Y501600D02*
X826719D01*
X825520D01*
Y506398D01*
X824320D01*
X835116D02*
X831518D01*
X830318Y505199D01*
Y502800D01*
X831518Y501600D01*
X835116D01*
X838715Y506398D02*
X841115D01*
X842314Y505199D01*
Y501600D01*
X838715D01*
X837516Y502800D01*
X838715Y503999D01*
X842314D01*
X844713Y501600D02*
X847113D01*
X845913D01*
Y508798D01*
X844713D01*
X857909D02*
Y501600D01*
X862708D01*
X868706D02*
X866306D01*
X865107Y502800D01*
Y505199D01*
X866306Y506398D01*
X868706D01*
X869905Y505199D01*
Y503999D01*
X865107D01*
X872305Y501600D02*
Y506398D01*
X875903D01*
X877103Y505199D01*
Y501600D01*
X881901Y499201D02*
X883101D01*
X884301Y500400D01*
Y506398D01*
X880702D01*
X879502Y505199D01*
Y502800D01*
X880702Y501600D01*
X884301D01*
X887899Y507598D02*
Y506398D01*
X886700D01*
X889099D01*
X887899D01*
Y502800D01*
X889099Y501600D01*
X892698Y508798D02*
Y501600D01*
Y505199D01*
X893898Y506398D01*
X896297D01*
X897496Y505199D01*
Y501600D01*
X909496D02*
Y508798D01*
X913095D01*
X914295Y507598D01*
Y505199D01*
X913095Y503999D01*
X909496D01*
X911896D02*
X914295Y501600D01*
X917894D02*
X920293D01*
X921492Y502800D01*
Y505199D01*
X920293Y506398D01*
X917894D01*
X916694Y505199D01*
Y502800D01*
X917894Y501600D01*
X923892Y506398D02*
Y502800D01*
X925091Y501600D01*
X928690D01*
Y506398D01*
X932289Y507598D02*
Y506398D01*
X931089D01*
X933489D01*
X932289D01*
Y502800D01*
X933489Y501600D01*
X944285D02*
Y508798D01*
X947884D01*
X949084Y507598D01*
Y505199D01*
X947884Y503999D01*
X944285D01*
X952682Y506398D02*
X955082D01*
X956281Y505199D01*
Y501600D01*
X952682D01*
X951483Y502800D01*
X952682Y503999D01*
X956281D01*
X959880Y507598D02*
Y506398D01*
X958680D01*
X961080D01*
X959880D01*
Y502800D01*
X961080Y501600D01*
X964678Y508798D02*
Y501600D01*
Y505199D01*
X965878Y506398D01*
X968277D01*
X969477Y505199D01*
Y501600D01*
X979074Y508798D02*
Y501600D01*
X983872D01*
X989870D02*
X987471D01*
X986271Y502800D01*
Y505199D01*
X987471Y506398D01*
X989870D01*
X991070Y505199D01*
Y503999D01*
X986271D01*
X993469Y501600D02*
Y506398D01*
X997068D01*
X998268Y505199D01*
Y501600D01*
X1003066Y499201D02*
X1004266D01*
X1005465Y500400D01*
Y506398D01*
X1001866D01*
X1000667Y505199D01*
Y502800D01*
X1001866Y501600D01*
X1005465D01*
X1009064Y507598D02*
Y506398D01*
X1007864D01*
X1010264D01*
X1009064D01*
Y502800D01*
X1010264Y501600D01*
X1013863Y508798D02*
Y501600D01*
Y505199D01*
X1015062Y506398D01*
X1017461D01*
X1018661Y505199D01*
Y501600D01*
X1030661D02*
Y508798D01*
X1034260D01*
X1035459Y507598D01*
Y505199D01*
X1034260Y503999D01*
X1030661D01*
X1037859Y501600D02*
X1040258D01*
X1039058D01*
Y508798D01*
X1037859D01*
X1045056Y506398D02*
X1047456D01*
X1048655Y505199D01*
Y501600D01*
X1045056D01*
X1043857Y502800D01*
X1045056Y503999D01*
X1048655D01*
X1052254Y507598D02*
Y506398D01*
X1051054D01*
X1053454D01*
X1052254D01*
Y502800D01*
X1053454Y501600D01*
X1060651D02*
X1058252D01*
X1057053Y502800D01*
Y505199D01*
X1058252Y506398D01*
X1060651D01*
X1061851Y505199D01*
Y503999D01*
X1057053D01*
X1069049Y508798D02*
Y501600D01*
X1065450D01*
X1064250Y502800D01*
Y505199D01*
X1065450Y506398D01*
X1069049D01*
X1081049Y508798D02*
Y501600D01*
Y505199D01*
X1085847D01*
Y508798D01*
Y501600D01*
X1089446D02*
X1091845D01*
X1093045Y502800D01*
Y505199D01*
X1091845Y506398D01*
X1089446D01*
X1088246Y505199D01*
Y502800D01*
X1089446Y501600D01*
X1095444D02*
X1097843D01*
X1096644D01*
Y508798D01*
X1095444D01*
X1105041Y501600D02*
X1102642D01*
X1101442Y502800D01*
Y505199D01*
X1102642Y506398D01*
X1105041D01*
X1106240Y505199D01*
Y503999D01*
X1101442D01*
X1115837Y508798D02*
X1120636D01*
X1118237D01*
Y501600D01*
X1123035Y506398D02*
Y502800D01*
X1124235Y501600D01*
X1127833D01*
Y500400D01*
X1126634Y499201D01*
X1125434D01*
X1127833Y501600D02*
Y506398D01*
X1130233Y499201D02*
Y506398D01*
X1133832D01*
X1135031Y505199D01*
Y502800D01*
X1133832Y501600D01*
X1130233D01*
X1141029D02*
X1138630D01*
X1137430Y502800D01*
Y505199D01*
X1138630Y506398D01*
X1141029D01*
X1142229Y505199D01*
Y503999D01*
X1137430D01*
X532400Y512400D02*
X1154229D01*
X532400Y496200D02*
X1154229D01*
X532400Y512400D02*
Y352200D01*
X1154229Y512400D02*
Y352200D01*
X587188Y512400D02*
Y352200D01*
X656769Y512400D02*
Y352200D01*
X791129Y512400D02*
Y352200D01*
X905096Y512400D02*
Y352200D01*
X1026261Y512400D02*
Y352200D01*
X1076649Y512400D02*
Y352200D01*
X532400Y364200D02*
X1154229D01*
X532400Y352200D02*
X1154229D01*
D147*
X545000Y442200D02*
G03*
X545000Y442200I-1400J0D01*
G01*
D148*
X545199Y348198D02*
X544199Y349198D01*
X542200D01*
X541200Y348198D01*
Y347199D01*
X542200Y346199D01*
X544199D01*
X545199Y345199D01*
Y344200D01*
X544199Y343200D01*
X542200D01*
X541200Y344200D01*
X547198Y343200D02*
X549197D01*
X548198D01*
Y349198D01*
X547198D01*
X553196Y343200D02*
X555196D01*
X556195Y344200D01*
Y346199D01*
X555196Y347199D01*
X553196D01*
X552196Y346199D01*
Y344200D01*
X553196Y343200D01*
X559194Y348198D02*
Y347199D01*
X558194D01*
X560194D01*
X559194D01*
Y344200D01*
X560194Y343200D01*
X573190Y349198D02*
Y343200D01*
X570191D01*
X569191Y344200D01*
Y346199D01*
X570191Y347199D01*
X573190D01*
X578188Y343200D02*
X576189D01*
X575189Y344200D01*
Y346199D01*
X576189Y347199D01*
X578188D01*
X579188Y346199D01*
Y345199D01*
X575189D01*
X582187Y343200D02*
Y348198D01*
Y346199D01*
X581187D01*
X583186D01*
X582187D01*
Y348198D01*
X583186Y349198D01*
X586185Y343200D02*
X588185D01*
X587185D01*
Y347199D01*
X586185D01*
X591184Y343200D02*
Y347199D01*
X594183D01*
X595183Y346199D01*
Y343200D01*
X597182D02*
X599181D01*
X598182D01*
Y347199D01*
X597182D01*
X603180Y348198D02*
Y347199D01*
X602180D01*
X604180D01*
X603180D01*
Y344200D01*
X604180Y343200D01*
X607179D02*
X609178D01*
X608178D01*
Y347199D01*
X607179D01*
X613177Y343200D02*
X615176D01*
X616176Y344200D01*
Y346199D01*
X615176Y347199D01*
X613177D01*
X612177Y346199D01*
Y344200D01*
X613177Y343200D01*
X618175D02*
Y347199D01*
X621174D01*
X622174Y346199D01*
Y343200D01*
X624173D02*
X627172D01*
X628172Y344200D01*
X627172Y345199D01*
X625173D01*
X624173Y346199D01*
X625173Y347199D01*
X628172D01*
X636169D02*
X637169D01*
Y346199D01*
X636169D01*
Y347199D01*
Y344200D02*
X637169D01*
Y343200D01*
X636169D01*
Y344200D01*
X648769Y343200D02*
Y349198D01*
X651768D01*
X652768Y348198D01*
Y346199D01*
X651768Y345199D01*
X648769D01*
X650768D02*
X652768Y343200D01*
X655767D02*
X657766D01*
X658766Y344200D01*
Y346199D01*
X657766Y347199D01*
X655767D01*
X654767Y346199D01*
Y344200D01*
X655767Y343200D01*
X660765Y347199D02*
Y344200D01*
X661765Y343200D01*
X664764D01*
Y347199D01*
X667763Y348198D02*
Y347199D01*
X666763D01*
X668762D01*
X667763D01*
Y344200D01*
X668762Y343200D01*
X677760D02*
Y349198D01*
X680759D01*
X681758Y348198D01*
Y346199D01*
X680759Y345199D01*
X677760D01*
X684757Y347199D02*
X686757D01*
X687756Y346199D01*
Y343200D01*
X684757D01*
X683758Y344200D01*
X684757Y345199D01*
X687756D01*
X690755Y348198D02*
Y347199D01*
X689756D01*
X691755D01*
X690755D01*
Y344200D01*
X691755Y343200D01*
X694754Y349198D02*
Y343200D01*
Y346199D01*
X695754Y347199D01*
X697753D01*
X698753Y346199D01*
Y343200D01*
X706750Y349198D02*
Y343200D01*
X710749D01*
X715747D02*
X713748D01*
X712748Y344200D01*
Y346199D01*
X713748Y347199D01*
X715747D01*
X716747Y346199D01*
Y345199D01*
X712748D01*
X718746Y343200D02*
Y347199D01*
X721745D01*
X722745Y346199D01*
Y343200D01*
X726744Y341201D02*
X727743D01*
X728743Y342200D01*
Y347199D01*
X725744D01*
X724744Y346199D01*
Y344200D01*
X725744Y343200D01*
X728743D01*
X731742Y348198D02*
Y347199D01*
X730742D01*
X732742D01*
X731742D01*
Y344200D01*
X732742Y343200D01*
X735741Y349198D02*
Y343200D01*
Y346199D01*
X736740Y347199D01*
X738740D01*
X739740Y346199D01*
Y343200D01*
X648769Y331200D02*
Y337198D01*
X651768D01*
X652768Y336198D01*
Y334199D01*
X651768Y333199D01*
X648769D01*
X654767Y337198D02*
Y331200D01*
Y334199D01*
X655767Y335199D01*
X657766D01*
X658766Y334199D01*
Y331200D01*
X660765Y335199D02*
Y332200D01*
X661765Y331200D01*
X664764D01*
Y330200D01*
X663764Y329201D01*
X662764D01*
X664764Y331200D02*
Y335199D01*
X666763Y331200D02*
X669762D01*
X670762Y332200D01*
X669762Y333199D01*
X667763D01*
X666763Y334199D01*
X667763Y335199D01*
X670762D01*
X672761Y331200D02*
X674760D01*
X673761D01*
Y335199D01*
X672761D01*
X681758D02*
X678759D01*
X677760Y334199D01*
Y332200D01*
X678759Y331200D01*
X681758D01*
X684757Y335199D02*
X686757D01*
X687756Y334199D01*
Y331200D01*
X684757D01*
X683758Y332200D01*
X684757Y333199D01*
X687756D01*
X689756Y331200D02*
X691755D01*
X690755D01*
Y337198D01*
X689756D01*
X700752D02*
Y331200D01*
X704751D01*
X709749D02*
X707750D01*
X706750Y332200D01*
Y334199D01*
X707750Y335199D01*
X709749D01*
X710749Y334199D01*
Y333199D01*
X706750D01*
X712748Y331200D02*
Y335199D01*
X715747D01*
X716747Y334199D01*
Y331200D01*
X720746Y329201D02*
X721745D01*
X722745Y330200D01*
Y335199D01*
X719746D01*
X718746Y334199D01*
Y332200D01*
X719746Y331200D01*
X722745D01*
X725744Y336198D02*
Y335199D01*
X724744D01*
X726744D01*
X725744D01*
Y332200D01*
X726744Y331200D01*
X729743Y337198D02*
Y331200D01*
Y334199D01*
X730742Y335199D01*
X732742D01*
X733741Y334199D01*
Y331200D01*
M02*
