G04 Layer_Color=8388736*
%FSLAX25Y25*%
%MOIN*%
G70*
G01*
G75*
%ADD90R,0.03800X0.03800*%
%ADD91R,0.03800X0.03800*%
%ADD92P,0.05374X4X180.0*%
%ADD93R,0.02178X0.04737*%
%ADD94R,0.02178X0.04737*%
%ADD95R,0.03162X0.06312*%
%ADD96R,0.06312X0.03162*%
%ADD97R,0.06312X0.02965*%
G04:AMPARAMS|DCode=98|XSize=19.81mil|YSize=90.68mil|CornerRadius=0mil|HoleSize=0mil|Usage=FLASHONLY|Rotation=315.000|XOffset=0mil|YOffset=0mil|HoleType=Round|Shape=Round|*
%AMOVALD98*
21,1,0.07087,0.01981,0.00000,0.00000,45.0*
1,1,0.01981,-0.02506,-0.02506*
1,1,0.01981,0.02506,0.02506*
%
%ADD98OVALD98*%

G04:AMPARAMS|DCode=99|XSize=19.81mil|YSize=90.68mil|CornerRadius=0mil|HoleSize=0mil|Usage=FLASHONLY|Rotation=45.000|XOffset=0mil|YOffset=0mil|HoleType=Round|Shape=Round|*
%AMOVALD99*
21,1,0.07087,0.01981,0.00000,0.00000,135.0*
1,1,0.01981,0.02506,-0.02506*
1,1,0.01981,-0.02506,0.02506*
%
%ADD99OVALD99*%

%ADD100R,0.03162X0.06509*%
%ADD101O,0.01600X0.03200*%
%ADD102O,0.03200X0.01600*%
G04:AMPARAMS|DCode=103|XSize=67.06mil|YSize=59.18mil|CornerRadius=0mil|HoleSize=0mil|Usage=FLASHONLY|Rotation=225.000|XOffset=0mil|YOffset=0mil|HoleType=Round|Shape=Rectangle|*
%AMROTATEDRECTD103*
4,1,4,0.00278,0.04463,0.04463,0.00278,-0.00278,-0.04463,-0.04463,-0.00278,0.00278,0.04463,0.0*
%
%ADD103ROTATEDRECTD103*%

G04:AMPARAMS|DCode=104|XSize=31.62mil|YSize=63.12mil|CornerRadius=0mil|HoleSize=0mil|Usage=FLASHONLY|Rotation=315.000|XOffset=0mil|YOffset=0mil|HoleType=Round|Shape=Rectangle|*
%AMROTATEDRECTD104*
4,1,4,-0.03350,-0.01114,0.01114,0.03350,0.03350,0.01114,-0.01114,-0.03350,-0.03350,-0.01114,0.0*
%
%ADD104ROTATEDRECTD104*%

%ADD105P,0.05374X4X90.0*%
%ADD106R,0.04343X0.04540*%
%ADD107R,0.04343X0.04540*%
%ADD108R,0.04658X0.04461*%
%ADD109R,0.12611X0.08674*%
G04:AMPARAMS|DCode=110|XSize=31.62mil|YSize=63.12mil|CornerRadius=0mil|HoleSize=0mil|Usage=FLASHONLY|Rotation=225.000|XOffset=0mil|YOffset=0mil|HoleType=Round|Shape=Rectangle|*
%AMROTATEDRECTD110*
4,1,4,-0.01114,0.03350,0.03350,-0.01114,0.01114,-0.03350,-0.03350,0.01114,-0.01114,0.03350,0.0*
%
%ADD110ROTATEDRECTD110*%

G04:AMPARAMS|DCode=111|XSize=67.06mil|YSize=59.18mil|CornerRadius=0mil|HoleSize=0mil|Usage=FLASHONLY|Rotation=315.000|XOffset=0mil|YOffset=0mil|HoleType=Round|Shape=Rectangle|*
%AMROTATEDRECTD111*
4,1,4,-0.04463,0.00278,-0.00278,0.04463,0.04463,-0.00278,0.00278,-0.04463,-0.04463,0.00278,0.0*
%
%ADD111ROTATEDRECTD111*%

G04:AMPARAMS|DCode=112|XSize=52.49mil|YSize=78.87mil|CornerRadius=0mil|HoleSize=0mil|Usage=FLASHONLY|Rotation=335.000|XOffset=0mil|YOffset=0mil|HoleType=Round|Shape=Rectangle|*
%AMROTATEDRECTD112*
4,1,4,-0.04045,-0.02465,-0.00712,0.04683,0.04045,0.02465,0.00712,-0.04683,-0.04045,-0.02465,0.0*
%
%ADD112ROTATEDRECTD112*%

%ADD113R,0.03800X0.03300*%
%ADD114R,0.03300X0.03800*%
%ADD115R,0.05328X0.06312*%
%ADD116R,0.09700X0.09700*%
%ADD117O,0.04737X0.01784*%
%ADD118O,0.01784X0.04737*%
%ADD119C,0.06706*%
G04:AMPARAMS|DCode=120|XSize=47.37mil|YSize=74mil|CornerRadius=0mil|HoleSize=0mil|Usage=FLASHONLY|Rotation=295.000|XOffset=0mil|YOffset=0mil|HoleType=Round|Shape=Round|*
%AMOVALD120*
21,1,0.02663,0.04737,0.00000,0.00000,25.0*
1,1,0.04737,-0.01207,-0.00563*
1,1,0.04737,0.01207,0.00563*
%
%ADD120OVALD120*%

%ADD121O,0.04737X0.07887*%
%ADD122O,0.04737X0.09068*%
%ADD123C,0.03359*%
%ADD124C,0.04343*%
%ADD125P,0.06142X4X360.0*%
%ADD126C,0.05918*%
%ADD127C,0.07000*%
%ADD128C,0.07099*%
%ADD129R,0.08674X0.08674*%
%ADD130C,0.08674*%
%ADD131P,0.06142X4X270.0*%
%ADD132O,0.07800X0.06800*%
%ADD133R,0.07800X0.06800*%
%ADD134R,0.06706X0.06706*%
D90*
X576894Y434150D02*
D03*
X576900Y439600D02*
D03*
X571494Y454750D02*
D03*
X571500Y460200D02*
D03*
X510694Y465550D02*
D03*
X510700Y471000D02*
D03*
X485006Y472750D02*
D03*
X485000Y467300D02*
D03*
X478506Y472750D02*
D03*
X478500Y467300D02*
D03*
X467994Y409750D02*
D03*
X468000Y415200D02*
D03*
X467994Y398750D02*
D03*
X468000Y404200D02*
D03*
X467994Y387750D02*
D03*
X468000Y393200D02*
D03*
X465406Y345950D02*
D03*
X465400Y340500D02*
D03*
X465394Y328450D02*
D03*
X465400Y333900D02*
D03*
X559006Y504250D02*
D03*
X559000Y498800D02*
D03*
X492356Y505750D02*
D03*
X492362Y511200D02*
D03*
X595500Y346500D02*
D03*
X595494Y341050D02*
D03*
X549494Y360682D02*
D03*
X549500Y366131D02*
D03*
D91*
X565850Y430006D02*
D03*
X571300Y430000D02*
D03*
X565250Y448494D02*
D03*
X570700Y448487D02*
D03*
X571800Y466494D02*
D03*
X566350Y466500D02*
D03*
X520050Y464506D02*
D03*
X525500Y464500D02*
D03*
X520050Y471006D02*
D03*
X525500Y471000D02*
D03*
Y477000D02*
D03*
X520050Y477006D02*
D03*
X479450Y445794D02*
D03*
X474000Y445800D02*
D03*
X479537Y424494D02*
D03*
X474087Y424500D02*
D03*
X474037Y419506D02*
D03*
X479487Y419500D02*
D03*
X434650Y398806D02*
D03*
X440100Y398800D02*
D03*
X443750Y422506D02*
D03*
X449200Y422500D02*
D03*
X431750Y422506D02*
D03*
X437200Y422500D02*
D03*
X443750Y428006D02*
D03*
X449200Y428000D02*
D03*
X443250Y465584D02*
D03*
X448700Y465578D02*
D03*
X552750Y501994D02*
D03*
X547300Y502000D02*
D03*
X547250Y508006D02*
D03*
X552700Y508000D02*
D03*
X547173Y520406D02*
D03*
X552623Y520400D02*
D03*
X486612Y530306D02*
D03*
X492062Y530300D02*
D03*
X487112Y505494D02*
D03*
X481662Y505500D02*
D03*
X487112Y511494D02*
D03*
X481662Y511500D02*
D03*
X446250Y509006D02*
D03*
X451700Y509000D02*
D03*
X451750Y514994D02*
D03*
X446300Y515000D02*
D03*
X600000Y373500D02*
D03*
X605450Y373494D02*
D03*
X599991Y368443D02*
D03*
X605441Y368437D02*
D03*
X599991Y363506D02*
D03*
X605441Y363500D02*
D03*
X599991Y358506D02*
D03*
X605441Y358500D02*
D03*
X605490Y353494D02*
D03*
X600040Y353500D02*
D03*
X596650Y331520D02*
D03*
X591200Y331526D02*
D03*
X596750Y325494D02*
D03*
X591300Y325500D02*
D03*
X569050Y337506D02*
D03*
X574500Y337500D02*
D03*
X569050Y331506D02*
D03*
X574500Y331500D02*
D03*
X558050Y350506D02*
D03*
X563500Y350500D02*
D03*
X549350Y350294D02*
D03*
X543900Y350300D02*
D03*
X554050Y448506D02*
D03*
X559500Y448500D02*
D03*
D92*
X552560Y425949D02*
D03*
X556409Y422091D02*
D03*
X533440Y452051D02*
D03*
X529591Y455909D02*
D03*
X529940Y448551D02*
D03*
X526091Y452409D02*
D03*
X363560Y271949D02*
D03*
X367409Y268091D02*
D03*
X388060Y296949D02*
D03*
X391909Y293091D02*
D03*
X411940Y310551D02*
D03*
X408091Y314409D02*
D03*
X678940Y582551D02*
D03*
X675091Y586409D02*
D03*
X653000Y559000D02*
D03*
X649151Y562858D02*
D03*
X628060Y544949D02*
D03*
X631909Y541091D02*
D03*
X409440Y531551D02*
D03*
X405591Y535409D02*
D03*
X629060Y323449D02*
D03*
X632909Y319591D02*
D03*
D93*
X564661Y435545D02*
D03*
X567220D02*
D03*
X569779D02*
D03*
X572339Y435545D02*
D03*
X564661Y443429D02*
D03*
X567220D02*
D03*
X569779D02*
D03*
D94*
X572339D02*
D03*
D95*
X557260Y455000D02*
D03*
X564741D02*
D03*
X561001Y464898D02*
D03*
X433460Y405500D02*
D03*
X440941D02*
D03*
X437201Y415398D02*
D03*
X449741Y459397D02*
D03*
X442260D02*
D03*
X446000Y449500D02*
D03*
D96*
X550201Y474240D02*
D03*
Y466759D02*
D03*
X560098Y470499D02*
D03*
D97*
X505000Y463560D02*
D03*
Y467300D02*
D03*
Y471040D02*
D03*
X493189D02*
D03*
Y467300D02*
D03*
Y463560D02*
D03*
X480457Y517260D02*
D03*
Y524740D02*
D03*
Y521000D02*
D03*
X492268Y524740D02*
D03*
Y517260D02*
D03*
D98*
X534612Y446923D02*
D03*
X536004Y445531D02*
D03*
X537396Y444139D02*
D03*
X538788Y442747D02*
D03*
X540180Y441355D02*
D03*
X541572Y439963D02*
D03*
X542964Y438572D02*
D03*
X544355Y437180D02*
D03*
X545747Y435788D02*
D03*
X547139Y434396D02*
D03*
X548531Y433004D02*
D03*
X549923Y431612D02*
D03*
X526388Y408077D02*
D03*
X524996Y409469D02*
D03*
X523604Y410861D02*
D03*
X522212Y412253D02*
D03*
X520820Y413645D02*
D03*
X519428Y415036D02*
D03*
X518037Y416429D02*
D03*
X516645Y417820D02*
D03*
X515253Y419212D02*
D03*
X513861Y420604D02*
D03*
X512469Y421996D02*
D03*
X511077Y423388D02*
D03*
D99*
X549853Y423459D02*
D03*
X548460Y422067D02*
D03*
X547069Y420675D02*
D03*
X545677Y419283D02*
D03*
X544285Y417891D02*
D03*
X542893Y416499D02*
D03*
X541501Y415107D02*
D03*
X540109Y413715D02*
D03*
X538717Y412323D02*
D03*
X537325Y410931D02*
D03*
X535933Y409540D02*
D03*
X534541Y408148D02*
D03*
X511077Y431612D02*
D03*
X512469Y433004D02*
D03*
X513861Y434396D02*
D03*
X515253Y435788D02*
D03*
X516645Y437180D02*
D03*
X518037Y438572D02*
D03*
X519428Y439963D02*
D03*
X520820Y441355D02*
D03*
X522212Y442747D02*
D03*
X523604Y444139D02*
D03*
X524996Y445531D02*
D03*
X526388Y446923D02*
D03*
D100*
X503500Y449900D02*
D03*
X508100D02*
D03*
X498900D02*
D03*
D101*
X471563Y428799D02*
D03*
X473138D02*
D03*
X474713D02*
D03*
X476287D02*
D03*
X477862D02*
D03*
X479437D02*
D03*
Y441201D02*
D03*
X477862D02*
D03*
X476287D02*
D03*
X474713D02*
D03*
X473138D02*
D03*
X471563D02*
D03*
D102*
X481701Y431063D02*
D03*
Y432638D02*
D03*
Y434213D02*
D03*
Y435787D02*
D03*
Y437362D02*
D03*
Y438937D02*
D03*
X469299D02*
D03*
Y437362D02*
D03*
Y435787D02*
D03*
Y434213D02*
D03*
Y432638D02*
D03*
Y431063D02*
D03*
D103*
X389400Y311936D02*
D03*
X379500Y302036D02*
D03*
X650101Y542100D02*
D03*
X660000Y552000D02*
D03*
D104*
X406740Y305391D02*
D03*
X401450Y310680D02*
D03*
X397096Y301037D02*
D03*
X633320Y550109D02*
D03*
X638610Y544820D02*
D03*
X642964Y554463D02*
D03*
D105*
X420449Y317940D02*
D03*
X416591Y314091D02*
D03*
X620051Y537060D02*
D03*
X623909Y540909D02*
D03*
X402051Y539151D02*
D03*
X405909Y543000D02*
D03*
X390500Y563000D02*
D03*
X386642Y559151D02*
D03*
X363051Y583060D02*
D03*
X366909Y586909D02*
D03*
X528949Y405440D02*
D03*
X525091Y401591D02*
D03*
X636949Y315440D02*
D03*
X633091Y311591D02*
D03*
X651051Y294808D02*
D03*
X654909Y298657D02*
D03*
X678449Y274440D02*
D03*
X674591Y270591D02*
D03*
X508249Y441740D02*
D03*
X504391Y437891D02*
D03*
D106*
X442510Y433874D02*
D03*
X446250Y443126D02*
D03*
D107*
X449990Y433874D02*
D03*
D108*
X565900Y503932D02*
D03*
Y497868D02*
D03*
X472962Y518569D02*
D03*
Y524632D02*
D03*
X496700Y425069D02*
D03*
Y431132D02*
D03*
D109*
X538500Y467000D02*
D03*
Y487000D02*
D03*
D110*
X397391Y543820D02*
D03*
X402680Y549110D02*
D03*
X393037Y553464D02*
D03*
X641609Y310927D02*
D03*
X636320Y305638D02*
D03*
X645963Y301284D02*
D03*
D111*
X638600Y293899D02*
D03*
X648500Y284000D02*
D03*
X407000Y558000D02*
D03*
X397100Y567900D02*
D03*
D112*
X611316Y307021D02*
D03*
X600683Y311979D02*
D03*
D113*
X585500Y343000D02*
D03*
X580500D02*
D03*
D114*
Y332000D02*
D03*
Y337000D02*
D03*
X585500Y332000D02*
D03*
Y337000D02*
D03*
D115*
X563500Y357500D02*
D03*
X557201Y366161D02*
D03*
X563500D02*
D03*
X557201Y357500D02*
D03*
D116*
X583000Y361500D02*
D03*
D117*
X591400Y365400D02*
D03*
Y363432D02*
D03*
Y361463D02*
D03*
Y359494D02*
D03*
Y357526D02*
D03*
X574526D02*
D03*
Y359494D02*
D03*
Y361463D02*
D03*
Y363432D02*
D03*
Y365400D02*
D03*
D118*
X586900Y353026D02*
D03*
X584932D02*
D03*
X582963D02*
D03*
X580995D02*
D03*
X579026D02*
D03*
Y369900D02*
D03*
X580995D02*
D03*
X582963D02*
D03*
X584932D02*
D03*
X586900D02*
D03*
D119*
X408372Y513141D02*
D03*
X411542Y506344D02*
D03*
X414500Y500000D02*
D03*
X617200Y413800D02*
D03*
Y423800D02*
D03*
Y433800D02*
D03*
D120*
X404991Y520392D02*
D03*
X417881Y492750D02*
D03*
D121*
X538130Y529370D02*
D03*
X504114D02*
D03*
D122*
X538130Y513031D02*
D03*
X504114D02*
D03*
D123*
X532500Y515000D02*
D03*
X509744D02*
D03*
D124*
X382966Y282534D02*
D03*
X659534Y572466D02*
D03*
X377534Y567034D02*
D03*
X664466Y291213D02*
D03*
D125*
X377963Y287537D02*
D03*
X664537Y567463D02*
D03*
D126*
X415500Y322000D02*
D03*
X441200Y361300D02*
D03*
X625500Y532000D02*
D03*
X414500Y537500D02*
D03*
X623000Y314000D02*
D03*
D127*
X457200Y328400D02*
D03*
X431609D02*
D03*
X457200Y348400D02*
D03*
X431609D02*
D03*
D128*
X511216Y487000D02*
D03*
X475783D02*
D03*
D129*
X446000Y527500D02*
D03*
D130*
X457811D02*
D03*
D131*
X382537Y572037D02*
D03*
X659463Y286211D02*
D03*
D132*
X459500Y399500D02*
D03*
Y419500D02*
D03*
Y429500D02*
D03*
Y439500D02*
D03*
Y449500D02*
D03*
Y409500D02*
D03*
Y389500D02*
D03*
X588500Y399500D02*
D03*
Y419500D02*
D03*
Y429500D02*
D03*
Y439500D02*
D03*
Y449500D02*
D03*
Y409500D02*
D03*
Y389500D02*
D03*
D133*
X459500Y459500D02*
D03*
X588500D02*
D03*
D134*
X617200Y443800D02*
D03*
M02*
