G04 Layer_Physical_Order=2*
G04 Layer_Color=16711680*
%FSLAX25Y25*%
%MOIN*%
G70*
G01*
G75*
%ADD10C,0.00600*%
%ADD12C,0.02000*%
%ADD14R,0.03000X0.03000*%
%ADD15R,0.03000X0.03000*%
%ADD17R,0.01378X0.03937*%
%ADD18R,0.01378X0.03937*%
%ADD43C,0.05000*%
%ADD44C,0.01000*%
%ADD45C,0.05906*%
G04:AMPARAMS|DCode=46|XSize=39.37mil|YSize=66mil|CornerRadius=0mil|HoleSize=0mil|Usage=FLASHONLY|Rotation=295.000|XOffset=0mil|YOffset=0mil|HoleType=Round|Shape=Round|*
%AMOVALD46*
21,1,0.02663,0.03937,0.00000,0.00000,25.0*
1,1,0.03937,-0.01207,-0.00563*
1,1,0.03937,0.01207,0.00563*
%
%ADD46OVALD46*%

%ADD47O,0.03937X0.07087*%
%ADD48O,0.03937X0.08268*%
%ADD49C,0.02559*%
%ADD50C,0.03543*%
%ADD51P,0.05011X4X360.0*%
%ADD52C,0.05118*%
%ADD53C,0.06200*%
%ADD54C,0.06299*%
%ADD55R,0.07874X0.07874*%
%ADD56C,0.07874*%
%ADD57P,0.05011X4X270.0*%
%ADD58O,0.07000X0.06000*%
%ADD59R,0.07000X0.06000*%
%ADD60R,0.05906X0.05906*%
%ADD61C,0.02400*%
G04:AMPARAMS|DCode=62|XSize=47.24mil|YSize=78.74mil|CornerRadius=0mil|HoleSize=0mil|Usage=FLASHONLY|Rotation=135.000|XOffset=0mil|YOffset=0mil|HoleType=Round|Shape=Round|*
%AMOVALD62*
21,1,0.03150,0.04724,0.00000,0.00000,225.0*
1,1,0.04724,0.01114,0.01114*
1,1,0.04724,-0.01114,-0.01114*
%
%ADD62OVALD62*%

G04:AMPARAMS|DCode=63|XSize=47.24mil|YSize=78.74mil|CornerRadius=0mil|HoleSize=0mil|Usage=FLASHONLY|Rotation=45.000|XOffset=0mil|YOffset=0mil|HoleType=Round|Shape=Round|*
%AMOVALD63*
21,1,0.03150,0.04724,0.00000,0.00000,135.0*
1,1,0.04724,0.01114,-0.01114*
1,1,0.04724,-0.01114,0.01114*
%
%ADD63OVALD63*%

%ADD64R,0.01181X0.05906*%
%ADD65R,0.03937X0.07874*%
%ADD66R,0.07874X0.03937*%
G36*
X569100Y470000D02*
Y467900D01*
Y463400D01*
X557100D01*
X556800Y463700D01*
X556900Y472200D01*
X557000Y472300D01*
X569100D01*
Y470000D01*
D02*
G37*
G36*
X470000Y467500D02*
X469000Y466500D01*
X462500Y473000D01*
X437500D01*
X437000Y486000D01*
X440500Y489500D01*
X470000D01*
Y467500D01*
D02*
G37*
G36*
X513000Y513000D02*
Y507000D01*
X510500D01*
Y513031D01*
X512968D01*
X513000Y513000D01*
D02*
G37*
G36*
X545951Y362528D02*
X531052D01*
X530798Y362908D01*
X530202Y363306D01*
X529500Y363445D01*
X528798Y363306D01*
X528202Y362908D01*
X527804Y362313D01*
X527665Y361610D01*
X527804Y360908D01*
X528202Y360313D01*
X528798Y359915D01*
X529500Y359775D01*
X530202Y359915D01*
X530798Y360313D01*
X531052Y360693D01*
X545951D01*
Y359297D01*
X545451Y359030D01*
X545202Y359196D01*
X544500Y359335D01*
X543798Y359196D01*
X543202Y358798D01*
X542804Y358202D01*
X542665Y357500D01*
X542804Y356798D01*
X543202Y356202D01*
X543798Y355804D01*
X544500Y355665D01*
X544948Y355754D01*
X546283Y354420D01*
X546141Y353908D01*
X546091Y353789D01*
X546000Y353697D01*
Y353568D01*
X545951Y353449D01*
Y346622D01*
X531161D01*
X530810Y346552D01*
X530513Y346354D01*
X529237Y345078D01*
X529215Y345045D01*
X527867Y343939D01*
X526295Y343098D01*
X524589Y342581D01*
X522853Y342410D01*
X522815Y342418D01*
X474142D01*
X474104Y342410D01*
X472368Y342581D01*
X470662Y343098D01*
X469090Y343939D01*
X467742Y345045D01*
X467720Y345078D01*
X453578Y359220D01*
X453545Y359242D01*
X452439Y360590D01*
X451824Y361740D01*
X452253Y361997D01*
X452351Y361851D01*
X456351Y357851D01*
X456649Y357652D01*
X457000Y357582D01*
X521095D01*
X521446Y357652D01*
X521743Y357851D01*
X532538Y368645D01*
X539801D01*
X539952Y368145D01*
X539714Y367986D01*
X539228Y367258D01*
X539156Y366900D01*
X543444D01*
X543372Y367258D01*
X542886Y367986D01*
X542648Y368145D01*
X542799Y368645D01*
X545951D01*
Y362528D01*
D02*
G37*
G36*
X569880Y398082D02*
X569780Y397918D01*
X555500D01*
X555149Y397848D01*
X554851Y397649D01*
X543851Y386649D01*
X543652Y386351D01*
X543582Y386000D01*
Y374336D01*
X543202Y374082D01*
X542804Y373487D01*
X542665Y372785D01*
X542804Y372082D01*
X543202Y371487D01*
X543798Y371089D01*
X544343Y370981D01*
X544294Y370481D01*
X539088D01*
X538936Y370981D01*
X538986Y371014D01*
X539472Y371742D01*
X539544Y372100D01*
X535256D01*
X535328Y371742D01*
X535814Y371014D01*
X535864Y370981D01*
X535712Y370481D01*
X532158D01*
X531806Y370411D01*
X531509Y370212D01*
X520714Y359418D01*
X494545D01*
Y360575D01*
X509492D01*
X509843Y360644D01*
X510141Y360843D01*
X537649Y388351D01*
X537848Y388649D01*
X537918Y389000D01*
Y396775D01*
X538018Y396842D01*
X538518Y396574D01*
Y388830D01*
X543655D01*
Y397904D01*
X539716D01*
X539467Y398405D01*
X539602Y398582D01*
X569598D01*
X569880Y398082D01*
D02*
G37*
G36*
X567800Y447000D02*
Y446600D01*
X556600D01*
Y450700D01*
Y451200D01*
X559300D01*
Y458000D01*
Y458100D01*
Y458200D01*
X567800D01*
Y447000D01*
D02*
G37*
G36*
X602475Y383116D02*
X604295Y382362D01*
X605933Y381267D01*
X606629Y380571D01*
X606629Y380571D01*
X610300Y376900D01*
X610371Y376829D01*
X611067Y376132D01*
X612162Y374495D01*
X612916Y372675D01*
X613300Y370743D01*
Y369758D01*
Y358500D01*
Y321342D01*
Y320357D01*
X612944Y318570D01*
X612907Y318534D01*
X612654Y318419D01*
X612369Y318413D01*
X611197Y319414D01*
X609640Y320368D01*
X607954Y321066D01*
X606178Y321493D01*
X604358Y321636D01*
Y321631D01*
X564642D01*
X564594Y321622D01*
X563597Y321753D01*
X562623Y322157D01*
X561825Y322769D01*
X561797Y322810D01*
X560883Y323725D01*
X560886Y323728D01*
X559497Y324914D01*
X557940Y325868D01*
X556253Y326566D01*
X554913Y326888D01*
X554972Y327388D01*
X557537D01*
Y329039D01*
X558700D01*
Y327400D01*
X562900D01*
Y330905D01*
X563362Y331097D01*
X564150Y330309D01*
Y327406D01*
X568350D01*
Y331606D01*
X565448D01*
X562405Y334649D01*
X562108Y334848D01*
X561756Y334918D01*
X557927D01*
X557537Y335184D01*
Y336834D01*
X558700D01*
Y335731D01*
X562900D01*
Y339236D01*
X563362Y339427D01*
X564150Y338639D01*
Y335737D01*
X568350D01*
Y339937D01*
X565448D01*
X563236Y342149D01*
X562938Y342348D01*
X562587Y342418D01*
X546600D01*
Y344787D01*
X548463D01*
Y343136D01*
X557537D01*
Y348273D01*
X548463D01*
Y346622D01*
X546600D01*
Y353449D01*
X547062Y353640D01*
X547851Y352851D01*
X548149Y352652D01*
X548463Y352590D01*
Y350932D01*
X557537D01*
Y356068D01*
X548463D01*
Y355488D01*
X548001Y355297D01*
X546600Y356698D01*
Y360693D01*
X548463D01*
Y359042D01*
X557537D01*
Y364179D01*
X548463D01*
Y362528D01*
X546600D01*
Y368645D01*
X548463D01*
Y366995D01*
X557537D01*
Y372131D01*
X548463D01*
Y370481D01*
X546600D01*
Y372300D01*
Y377122D01*
X546731Y377782D01*
X546989Y378403D01*
X547362Y378962D01*
X547600Y379200D01*
X547600D01*
X547963Y379563D01*
X548463Y379356D01*
Y374711D01*
X557537D01*
Y376362D01*
X558400D01*
Y375200D01*
X562600D01*
Y376584D01*
X564374Y377122D01*
X566124Y378057D01*
X567658Y379316D01*
X567636Y379338D01*
X568720Y380422D01*
X568742Y380455D01*
X570090Y381561D01*
X571662Y382402D01*
X573368Y382919D01*
X575104Y383090D01*
X575142Y383082D01*
X575721D01*
X575873Y382582D01*
X575597Y382398D01*
X575199Y381802D01*
X575183Y381722D01*
X574256Y381338D01*
X573163Y380499D01*
X573182Y380480D01*
X573182Y380480D01*
X572148Y379446D01*
X571700Y379535D01*
X570998Y379396D01*
X570402Y378998D01*
X570004Y378402D01*
X569865Y377700D01*
X570004Y376998D01*
X570402Y376402D01*
X570998Y376004D01*
X571700Y375865D01*
X572185Y375961D01*
X572292Y375895D01*
X572577Y375566D01*
X572465Y375000D01*
X572604Y374298D01*
X573002Y373702D01*
X573598Y373304D01*
X574300Y373165D01*
X575002Y373304D01*
X575598Y373702D01*
X575996Y374298D01*
X576135Y375000D01*
X576046Y375448D01*
X578035Y377437D01*
X578036Y377440D01*
X578844Y378059D01*
X579434Y378304D01*
X579502Y378202D01*
X580098Y377804D01*
X580800Y377665D01*
X581502Y377804D01*
X582098Y378202D01*
X582496Y378798D01*
X582635Y379500D01*
X582496Y380202D01*
X582098Y380798D01*
X581502Y381196D01*
X580800Y381335D01*
X580098Y381196D01*
X579502Y380798D01*
X579261Y380436D01*
X579107Y380434D01*
X578696Y380928D01*
X578730Y381100D01*
X578590Y381802D01*
X578192Y382398D01*
X577916Y382582D01*
X578068Y383082D01*
X588858D01*
Y383066D01*
X590568Y383201D01*
X591814Y383500D01*
X600543D01*
X602475Y383116D01*
D02*
G37*
G36*
X700527Y623929D02*
X702972Y623442D01*
X705331Y622641D01*
X707566Y621539D01*
X709638Y620155D01*
X711512Y618512D01*
X713155Y616638D01*
X714539Y614566D01*
X715641Y612331D01*
X716442Y609972D01*
X716929Y607527D01*
X717092Y605041D01*
X716929Y602554D01*
X716442Y600110D01*
X715641Y597750D01*
X714539Y595515D01*
X713155Y593443D01*
X711512Y591570D01*
X709638Y589927D01*
X708974Y589483D01*
X708977Y589479D01*
X702296Y584580D01*
X695575Y579186D01*
X689096Y573504D01*
X687285Y571771D01*
X686936Y572128D01*
X689789Y574982D01*
X690143Y575511D01*
X690267Y576135D01*
Y584690D01*
X691862Y586285D01*
X692337Y586904D01*
X692635Y587624D01*
X692737Y588398D01*
X692635Y589171D01*
X692337Y589891D01*
X691862Y590510D01*
X691243Y590985D01*
X690522Y591283D01*
X689749Y591385D01*
X688976Y591283D01*
X688255Y590985D01*
X687636Y590510D01*
X685409Y588283D01*
X684935Y587664D01*
X684636Y586944D01*
X684534Y586170D01*
X684636Y585397D01*
X684935Y584677D01*
X685409Y584058D01*
X686028Y583583D01*
X686749Y583284D01*
X687004Y583251D01*
Y576811D01*
X641334Y531141D01*
X640981Y530612D01*
X640857Y529988D01*
Y513176D01*
X622820Y495140D01*
X622467Y494610D01*
X622342Y493986D01*
Y388744D01*
X622369Y388613D01*
Y383088D01*
X622493Y382464D01*
X622847Y381935D01*
X628869Y375912D01*
Y332500D01*
X628993Y331876D01*
X629347Y331347D01*
X671585Y289108D01*
Y287169D01*
X671329Y287135D01*
X670609Y286837D01*
X669990Y286362D01*
X669515Y285743D01*
X669217Y285022D01*
X669115Y284249D01*
X669217Y283476D01*
X669515Y282755D01*
X669990Y282136D01*
X672217Y279909D01*
X672836Y279434D01*
X673556Y279136D01*
X674330Y279034D01*
X675103Y279136D01*
X675823Y279434D01*
X676442Y279909D01*
X676917Y280528D01*
X677216Y281249D01*
X677317Y282022D01*
X677216Y282795D01*
X676917Y283516D01*
X676442Y284135D01*
X674848Y285730D01*
Y289784D01*
X674723Y290408D01*
X674370Y290937D01*
X632131Y333176D01*
Y373668D01*
X632626Y373739D01*
X634159Y368479D01*
X636930Y360319D01*
X640053Y352287D01*
X643524Y344399D01*
X647335Y336670D01*
X651480Y329114D01*
X655951Y321747D01*
X660739Y314581D01*
X665835Y307631D01*
X671229Y300910D01*
X676911Y294431D01*
X682870Y288206D01*
X689096Y282247D01*
X695575Y276565D01*
X702296Y271170D01*
X708977Y266272D01*
X708974Y266268D01*
X709638Y265824D01*
X711512Y264181D01*
X713155Y262308D01*
X714539Y260236D01*
X715641Y258000D01*
X716442Y255641D01*
X716929Y253197D01*
X717092Y250710D01*
X716929Y248223D01*
X716442Y245779D01*
X715641Y243420D01*
X714539Y241185D01*
X713155Y239113D01*
X711512Y237239D01*
X709638Y235596D01*
X707566Y234211D01*
X705331Y233109D01*
X702972Y232308D01*
X700527Y231822D01*
X698041Y231659D01*
X695554Y231822D01*
X693110Y232308D01*
X690750Y233109D01*
X688515Y234211D01*
X686443Y235596D01*
X684570Y237239D01*
X682927Y239113D01*
X682483Y239777D01*
X682479Y239774D01*
X677580Y246455D01*
X672186Y253176D01*
X667255Y258799D01*
X667519Y259256D01*
X667635Y259233D01*
X676190D01*
X677785Y257638D01*
X678404Y257163D01*
X679124Y256865D01*
X679897Y256763D01*
X680671Y256865D01*
X681391Y257163D01*
X682010Y257638D01*
X682485Y258257D01*
X682783Y258978D01*
X682885Y259751D01*
X682783Y260524D01*
X682485Y261245D01*
X682010Y261864D01*
X679783Y264091D01*
X679164Y264565D01*
X678580Y264808D01*
X678486Y265198D01*
X678506Y265360D01*
X678886Y265614D01*
X679372Y266342D01*
X679480Y266883D01*
X680031Y267116D01*
X680198Y267004D01*
X680900Y266865D01*
X681602Y267004D01*
X682198Y267402D01*
X682320Y267585D01*
X684542D01*
X686136Y265990D01*
X686755Y265515D01*
X687476Y265217D01*
X688249Y265115D01*
X689022Y265217D01*
X689743Y265515D01*
X690362Y265990D01*
X690837Y266609D01*
X691135Y267329D01*
X691237Y268103D01*
X691135Y268876D01*
X690837Y269596D01*
X690362Y270215D01*
X688135Y272442D01*
X687516Y272917D01*
X686795Y273216D01*
X686022Y273317D01*
X685249Y273216D01*
X684528Y272917D01*
X683909Y272442D01*
X683434Y271824D01*
X683136Y271103D01*
X683102Y270848D01*
X681416D01*
X680792Y270723D01*
X680345Y270425D01*
X680198Y270396D01*
X679602Y269998D01*
X679204Y269402D01*
X679164Y269201D01*
X678609Y268971D01*
X678158Y269272D01*
X677800Y269344D01*
Y267200D01*
X677300D01*
Y266700D01*
X675156D01*
X675228Y266342D01*
X675714Y265614D01*
X676360Y265182D01*
X676391Y264863D01*
X676348Y264636D01*
X676177Y264565D01*
X675558Y264091D01*
X675083Y263472D01*
X674784Y262751D01*
X674751Y262496D01*
X668311D01*
X613264Y317543D01*
X613289Y317836D01*
X613328Y317971D01*
X613393Y318100D01*
X613456Y318243D01*
X613515Y318306D01*
X613514Y318342D01*
X613581Y318443D01*
X613937Y320231D01*
X613924Y320296D01*
X613949Y320357D01*
Y321342D01*
Y358500D01*
Y369758D01*
Y370743D01*
X613924Y370804D01*
X613937Y370869D01*
X613553Y372801D01*
X613516Y372857D01*
Y372923D01*
X612762Y374743D01*
X612715Y374790D01*
X612702Y374855D01*
X611608Y376493D01*
X611552Y376530D01*
X611527Y376592D01*
X610830Y377288D01*
X610830Y377288D01*
X610759Y377359D01*
X610759Y377359D01*
X610759Y377359D01*
X607088Y381030D01*
X607088Y381030D01*
X606392Y381727D01*
X606330Y381752D01*
X606293Y381807D01*
X604655Y382902D01*
X604590Y382915D01*
X604543Y382962D01*
X602723Y383716D01*
X602657D01*
X602601Y383753D01*
X600669Y384137D01*
X600604Y384124D01*
X600543Y384149D01*
X594601D01*
X594460Y384649D01*
X595285Y385154D01*
X596589Y386269D01*
X596593Y386265D01*
X597589Y387479D01*
X598329Y388864D01*
X598785Y390366D01*
X598939Y391929D01*
X598918D01*
Y405858D01*
X598934D01*
X598799Y407568D01*
X598399Y409237D01*
X597742Y410822D01*
X596846Y412285D01*
X595731Y413589D01*
X595720Y413578D01*
X591914Y417384D01*
X592145Y417685D01*
X592507Y418560D01*
X592631Y419500D01*
X592507Y420440D01*
X592145Y421315D01*
X591633Y421982D01*
X591773Y422482D01*
X592520D01*
X596251Y418751D01*
X596549Y418552D01*
X596900Y418482D01*
X602948D01*
X603202Y418102D01*
X603798Y417704D01*
X604500Y417565D01*
X605202Y417704D01*
X605373Y417819D01*
X605873Y417551D01*
Y385500D01*
X605873Y385500D01*
X605980Y384691D01*
X606292Y383937D01*
X606789Y383289D01*
X619373Y370705D01*
Y323174D01*
X619373Y323174D01*
X619480Y322365D01*
X619792Y321611D01*
X620289Y320963D01*
X623647Y317605D01*
X623413Y317132D01*
X623000Y317186D01*
X622175Y317078D01*
X621407Y316759D01*
X620747Y316253D01*
X620241Y315593D01*
X619922Y314825D01*
X619814Y314000D01*
X619922Y313175D01*
X620241Y312407D01*
X620747Y311747D01*
X621407Y311241D01*
X622175Y310922D01*
X623000Y310814D01*
X623825Y310922D01*
X624593Y311241D01*
X625253Y311747D01*
X625759Y312407D01*
X626078Y313175D01*
X626186Y314000D01*
X626132Y314413D01*
X626606Y314647D01*
X657252Y284000D01*
X657900Y283503D01*
X658654Y283191D01*
X659202Y283119D01*
X659463Y282857D01*
X659725Y283119D01*
X660273Y283191D01*
X661027Y283503D01*
X661674Y284000D01*
X662171Y284647D01*
X662484Y285402D01*
X662556Y285949D01*
X662817Y286211D01*
X662556Y286473D01*
X662484Y287020D01*
X662171Y287774D01*
X661674Y288422D01*
X625627Y324469D01*
Y372000D01*
X625520Y372809D01*
X625208Y373563D01*
X624711Y374211D01*
X624711Y374211D01*
X612127Y386795D01*
Y506373D01*
X628500D01*
X628500Y506373D01*
X629309Y506480D01*
X630063Y506792D01*
X630711Y507289D01*
X638711Y515289D01*
X639208Y515937D01*
X639520Y516691D01*
X639573Y517095D01*
X639627Y517500D01*
X639627Y517500D01*
Y538132D01*
X666748Y565252D01*
X667244Y565900D01*
X667557Y566654D01*
X667629Y567202D01*
X667891Y567463D01*
X667629Y567725D01*
X667557Y568273D01*
X667244Y569027D01*
X666748Y569674D01*
X666100Y570171D01*
X665346Y570483D01*
X664798Y570556D01*
X664537Y570817D01*
X664275Y570556D01*
X663727Y570483D01*
X662973Y570171D01*
X662326Y569674D01*
X634289Y541638D01*
X633792Y540990D01*
X633480Y540236D01*
X633373Y539427D01*
X633373Y539427D01*
Y518795D01*
X627205Y512627D01*
X598000D01*
X598000Y512627D01*
X597595Y512573D01*
X597191Y512520D01*
X596437Y512208D01*
X595789Y511711D01*
X566461Y482383D01*
X556653D01*
X556385Y482883D01*
X556596Y483198D01*
X556735Y483900D01*
X556596Y484602D01*
X556198Y485198D01*
X555818Y485452D01*
Y488348D01*
X556198Y488602D01*
X556596Y489198D01*
X556735Y489900D01*
X556596Y490602D01*
X556198Y491198D01*
X555602Y491596D01*
X554900Y491735D01*
X554198Y491596D01*
X553602Y491198D01*
X553204Y490602D01*
X553065Y489900D01*
X553204Y489198D01*
X553602Y488602D01*
X553982Y488348D01*
Y485452D01*
X553602Y485198D01*
X553204Y484602D01*
X553065Y483900D01*
X553204Y483198D01*
X553415Y482883D01*
X553147Y482383D01*
X470649D01*
Y489500D01*
X470459Y489959D01*
X470000Y490149D01*
X440500D01*
X440041Y489959D01*
X436541Y486459D01*
X436536Y486447D01*
X436523Y486441D01*
X436441Y486219D01*
X436351Y486000D01*
X436356Y485988D01*
X436351Y485975D01*
X436719Y476398D01*
X421789Y461467D01*
X421292Y460820D01*
X420980Y460066D01*
X420873Y459256D01*
X420873Y459256D01*
Y318127D01*
X405427D01*
X404617Y318020D01*
X403863Y317708D01*
X403216Y317211D01*
X403216Y317211D01*
X375752Y289748D01*
X375255Y289100D01*
X374943Y288346D01*
X374871Y287798D01*
X374609Y287537D01*
X374871Y287275D01*
X374943Y286727D01*
X375255Y285973D01*
X375752Y285326D01*
X376400Y284829D01*
X377154Y284517D01*
X377702Y284444D01*
X377963Y284183D01*
X378225Y284444D01*
X378773Y284517D01*
X379527Y284829D01*
X380174Y285326D01*
X406722Y311873D01*
X424000D01*
X424809Y311980D01*
X425563Y312292D01*
X426211Y312789D01*
X426708Y313437D01*
X427020Y314191D01*
X427127Y315000D01*
Y327252D01*
X427615Y327330D01*
X428028Y326332D01*
X428685Y325476D01*
X429542Y324819D01*
X430539Y324406D01*
X431109Y324330D01*
Y328400D01*
Y332470D01*
X430539Y332395D01*
X429542Y331981D01*
X428685Y331324D01*
X428028Y330468D01*
X427615Y329470D01*
X427127Y329549D01*
Y433200D01*
X427627Y433249D01*
X427728Y432742D01*
X428214Y432014D01*
X428942Y431528D01*
X429300Y431456D01*
Y433600D01*
Y435744D01*
X428942Y435672D01*
X428214Y435186D01*
X427728Y434458D01*
X427627Y433951D01*
X427127Y434000D01*
Y457961D01*
X441516Y472351D01*
X462231D01*
X467888Y466693D01*
X467697Y466231D01*
X438198D01*
X438102Y466296D01*
X437400Y466435D01*
X436698Y466296D01*
X436102Y465898D01*
X435704Y465302D01*
X435565Y464600D01*
X435704Y463898D01*
X436102Y463302D01*
X436698Y462904D01*
X437400Y462765D01*
X438102Y462904D01*
X438198Y462969D01*
X455000D01*
Y460000D01*
X459500D01*
X464000D01*
Y462969D01*
X469363D01*
X469987Y463093D01*
X470516Y463447D01*
X472753Y465684D01*
X473107Y466213D01*
X473231Y466837D01*
Y471424D01*
X475332Y473525D01*
X548068D01*
X552046Y469547D01*
X552576Y469193D01*
X553200Y469069D01*
X555858D01*
X556210Y468713D01*
X556151Y463708D01*
X556152Y463704D01*
X556151Y463700D01*
X556244Y463474D01*
X556335Y463246D01*
X556339Y463245D01*
X556341Y463241D01*
X556641Y462941D01*
X557100Y462751D01*
X569100D01*
X569559Y462941D01*
X569749Y463400D01*
Y467900D01*
Y472300D01*
X569559Y472759D01*
X569100Y472949D01*
X557000D01*
X556541Y472759D01*
X556441Y472659D01*
X556347Y472433D01*
X556304Y472331D01*
X553876D01*
X550539Y475668D01*
X550731Y476130D01*
X567756D01*
X567756Y476130D01*
X568566Y476236D01*
X569320Y476549D01*
X569967Y477045D01*
X599295Y506373D01*
X605873D01*
Y488215D01*
X605373Y487948D01*
X605002Y488196D01*
X604300Y488335D01*
X603598Y488196D01*
X603002Y487798D01*
X602678Y487312D01*
X602510Y487274D01*
X602290D01*
X602122Y487312D01*
X601798Y487798D01*
X601202Y488196D01*
X600500Y488335D01*
X599798Y488196D01*
X599202Y487798D01*
X598903Y487350D01*
X598847Y487332D01*
X598403D01*
X598347Y487350D01*
X598048Y487798D01*
X597452Y488196D01*
X596750Y488335D01*
X596048Y488196D01*
X595452Y487798D01*
X595153Y487350D01*
X595097Y487332D01*
X594653D01*
X594597Y487350D01*
X594298Y487798D01*
X593702Y488196D01*
X593000Y488335D01*
X592298Y488196D01*
X591702Y487798D01*
X591344Y487262D01*
X591303Y487247D01*
X591061Y487221D01*
X590802Y487242D01*
X590498Y487698D01*
X589902Y488096D01*
X589200Y488235D01*
X588498Y488096D01*
X587902Y487698D01*
X587504Y487102D01*
X587365Y486400D01*
X587504Y485698D01*
X587902Y485102D01*
X588282Y484848D01*
Y471180D01*
X581251Y464149D01*
X581052Y463851D01*
X580982Y463500D01*
Y451076D01*
X580482Y450808D01*
X580202Y450996D01*
X579500Y451135D01*
X578798Y450996D01*
X578202Y450598D01*
X577804Y450002D01*
X577665Y449300D01*
X577804Y448598D01*
X578202Y448002D01*
X578798Y447604D01*
X578982Y447568D01*
Y445223D01*
X578482Y445072D01*
X578198Y445498D01*
X577602Y445896D01*
X576900Y446035D01*
X576198Y445896D01*
X575602Y445498D01*
X575204Y444902D01*
X575065Y444200D01*
X575204Y443498D01*
X575602Y442902D01*
X575982Y442648D01*
Y428177D01*
X575023Y427218D01*
X561880D01*
X557846Y431252D01*
X557935Y431700D01*
X557796Y432402D01*
X557398Y432998D01*
X556802Y433396D01*
X556100Y433535D01*
X555398Y433396D01*
X554802Y432998D01*
X554404Y432402D01*
X554265Y431700D01*
X554404Y430998D01*
X554802Y430402D01*
X555398Y430004D01*
X556100Y429865D01*
X556548Y429954D01*
X560023Y426480D01*
X559831Y426018D01*
X520780D01*
X518734Y428064D01*
X518436Y428263D01*
X518085Y428333D01*
X510415D01*
X510064Y428263D01*
X509766Y428064D01*
X509388Y427686D01*
X509000Y428005D01*
X509196Y428298D01*
X509335Y429000D01*
X509196Y429702D01*
X508798Y430298D01*
X508202Y430696D01*
X507875Y430761D01*
X507718Y431237D01*
X508003Y431582D01*
X539500D01*
X539851Y431652D01*
X540149Y431851D01*
X548380Y440082D01*
X549948D01*
X550202Y439702D01*
X550798Y439304D01*
X551500Y439165D01*
X552202Y439304D01*
X552311Y439377D01*
X552761Y439077D01*
X552665Y438591D01*
X552804Y437888D01*
X553202Y437293D01*
X553798Y436895D01*
X554500Y436756D01*
X555202Y436895D01*
X555798Y437293D01*
X556196Y437888D01*
X556335Y438591D01*
X556196Y439293D01*
X555798Y439888D01*
X555418Y440142D01*
Y441124D01*
X555768Y441411D01*
X556582D01*
Y440000D01*
X556652Y439649D01*
X556851Y439351D01*
X559754Y436448D01*
X559665Y436000D01*
X559804Y435298D01*
X560202Y434702D01*
X560798Y434304D01*
X561500Y434165D01*
X562202Y434304D01*
X562798Y434702D01*
X562872Y434814D01*
X563372Y434662D01*
Y432977D01*
X568090D01*
Y432577D01*
X569279D01*
Y435545D01*
X570280D01*
Y432577D01*
X571468D01*
Y432977D01*
X573628D01*
Y438114D01*
X573256D01*
Y438661D01*
X573186Y439013D01*
X572987Y439310D01*
X572337Y439960D01*
X572544Y440460D01*
X574028D01*
Y442929D01*
X572339D01*
Y443429D01*
X571839D01*
Y446397D01*
X570650D01*
X570318Y446760D01*
Y452700D01*
X570248Y453051D01*
X570049Y453349D01*
X569751Y453548D01*
X569400Y453618D01*
X568449D01*
Y458200D01*
X568259Y458659D01*
X567800Y458849D01*
X559300D01*
X558977Y458716D01*
X558523Y458994D01*
X558544Y459100D01*
X556900D01*
Y457456D01*
X557258Y457528D01*
X557986Y458014D01*
X558189Y458317D01*
X558365Y458272D01*
X558651Y458108D01*
Y451849D01*
X556600D01*
X556141Y451659D01*
X555951Y451200D01*
Y446600D01*
X556141Y446141D01*
X556600Y445951D01*
X558726D01*
X558962Y445510D01*
X558928Y445458D01*
X558856Y445100D01*
X561000D01*
Y444100D01*
X558856D01*
X558928Y443742D01*
X558964Y443688D01*
X558728Y443247D01*
X556148D01*
X550918Y448477D01*
Y449967D01*
X550848Y450318D01*
X550649Y450616D01*
X550162Y451102D01*
X550400Y451565D01*
X551102Y451704D01*
X551698Y452102D01*
X552096Y452698D01*
X552235Y453400D01*
X552146Y453848D01*
X553649Y455351D01*
X553848Y455649D01*
X553918Y456000D01*
Y456948D01*
X554298Y457202D01*
X554696Y457798D01*
X555197Y457758D01*
X555542Y457528D01*
X555900Y457456D01*
Y459600D01*
Y461744D01*
X555542Y461672D01*
X554814Y461186D01*
X554328Y460458D01*
X554324Y460439D01*
X553842Y460213D01*
X553592Y460335D01*
X553526Y460855D01*
X553598Y460902D01*
X553996Y461498D01*
X554135Y462200D01*
X553996Y462902D01*
X553598Y463498D01*
X553002Y463896D01*
X552300Y464035D01*
X551598Y463896D01*
X551002Y463498D01*
X550604Y462902D01*
X550465Y462200D01*
X550604Y461498D01*
X550643Y461440D01*
X547448Y458246D01*
X547000Y458335D01*
X546298Y458196D01*
X545702Y457798D01*
X545304Y457202D01*
X545216Y456756D01*
X544676Y456589D01*
X532416Y468849D01*
X532118Y469048D01*
X531767Y469118D01*
X479200D01*
X478849Y469048D01*
X478551Y468849D01*
X466151Y456449D01*
X465952Y456151D01*
X465882Y455800D01*
Y449352D01*
X465502Y449098D01*
X465104Y448502D01*
X464965Y447800D01*
X465104Y447098D01*
X465502Y446502D01*
X466098Y446104D01*
X466800Y445965D01*
X467502Y446104D01*
X467793Y446299D01*
X468348Y446068D01*
X468352Y446049D01*
X468551Y445751D01*
X470951Y443351D01*
X471249Y443152D01*
X471600Y443082D01*
X479920D01*
X481405Y441597D01*
X481504Y441098D01*
X481902Y440502D01*
X482498Y440104D01*
X483200Y439965D01*
X483902Y440104D01*
X484498Y440502D01*
X484896Y441098D01*
X485035Y441800D01*
X484896Y442502D01*
X484498Y443098D01*
X483902Y443496D01*
X483200Y443635D01*
X482498Y443496D01*
X482261Y443337D01*
X480949Y444649D01*
X480651Y444848D01*
X480300Y444918D01*
X471980D01*
X470118Y446780D01*
Y456123D01*
X480077Y466082D01*
X513134D01*
X513369Y465641D01*
X513180Y465358D01*
X513109Y465000D01*
X517396D01*
X517325Y465358D01*
X517136Y465641D01*
X517372Y466082D01*
X530890D01*
X542431Y454541D01*
X542292Y453973D01*
X541714Y453586D01*
X541228Y452858D01*
X541156Y452500D01*
X543300D01*
Y452000D01*
X543800D01*
Y449856D01*
X544158Y449928D01*
X544886Y450414D01*
X545273Y450992D01*
X545841Y451131D01*
X546306Y450667D01*
X546141Y450124D01*
X545998Y450096D01*
X545402Y449698D01*
X545148Y449318D01*
X544500D01*
X544149Y449248D01*
X543851Y449049D01*
X533078Y438276D01*
X532536Y438440D01*
X532472Y438758D01*
X531986Y439486D01*
X531258Y439972D01*
X530900Y440044D01*
Y437900D01*
X530400D01*
Y437400D01*
X528256D01*
X528328Y437042D01*
X528814Y436314D01*
X529407Y435918D01*
X529255Y435418D01*
X503252D01*
X502998Y435798D01*
X502402Y436196D01*
X501700Y436335D01*
X500998Y436196D01*
X500402Y435798D01*
X500004Y435202D01*
X499865Y434500D01*
X500004Y433798D01*
X500402Y433202D01*
X500998Y432804D01*
X501700Y432665D01*
X502402Y432804D01*
X502998Y433202D01*
X503252Y433582D01*
X506600D01*
X506734Y433351D01*
X506785Y433082D01*
X493851Y420149D01*
X493652Y419851D01*
X493582Y419500D01*
Y388303D01*
X493599Y388222D01*
X493250Y387722D01*
X485471D01*
Y385924D01*
X482350D01*
Y387106D01*
X478150D01*
Y382906D01*
X479332D01*
Y381106D01*
X478150D01*
Y376906D01*
X479332D01*
Y375030D01*
X476620Y372318D01*
X469552D01*
X469298Y372698D01*
X468702Y373096D01*
X468000Y373235D01*
X467298Y373096D01*
X466702Y372698D01*
X466304Y372102D01*
X466165Y371400D01*
X466304Y370698D01*
X466702Y370102D01*
X467298Y369704D01*
X468000Y369565D01*
X468702Y369704D01*
X469298Y370102D01*
X469552Y370482D01*
X477000D01*
X477351Y370552D01*
X477649Y370751D01*
X480899Y374001D01*
X481098Y374299D01*
X481168Y374650D01*
Y376906D01*
X482350D01*
Y381106D01*
X481168D01*
Y382906D01*
X482350D01*
Y384089D01*
X485471D01*
Y382585D01*
X494545D01*
Y386307D01*
X495007Y386498D01*
X497354Y384151D01*
X497652Y383952D01*
X498003Y383882D01*
X501320D01*
X503254Y381948D01*
X503165Y381500D01*
X503304Y380798D01*
X503702Y380202D01*
X504298Y379804D01*
X505000Y379665D01*
X505702Y379804D01*
X506298Y380202D01*
X506696Y380798D01*
X506835Y381500D01*
X506696Y382202D01*
X506298Y382798D01*
X505702Y383196D01*
X505000Y383335D01*
X504552Y383246D01*
X503177Y384620D01*
X503369Y385082D01*
X507448D01*
X507702Y384702D01*
X508298Y384304D01*
X509000Y384165D01*
X509702Y384304D01*
X510298Y384702D01*
X510696Y385298D01*
X510745Y385547D01*
X511255D01*
X511304Y385298D01*
X511702Y384702D01*
X512298Y384304D01*
X513000Y384165D01*
X513702Y384304D01*
X514298Y384702D01*
X514696Y385298D01*
X514835Y386000D01*
X514696Y386702D01*
X514298Y387298D01*
X513702Y387696D01*
X513000Y387835D01*
X512552Y387746D01*
X511876Y388422D01*
X511655Y388830D01*
X511655D01*
X511655Y388830D01*
Y397904D01*
X506518D01*
Y389448D01*
X503655D01*
Y397904D01*
X498518D01*
X498118Y398145D01*
Y409820D01*
X505552Y417254D01*
X506000Y417165D01*
X506702Y417304D01*
X507298Y417702D01*
X507696Y418298D01*
X507835Y419000D01*
X507696Y419702D01*
X507298Y420298D01*
X506702Y420696D01*
X506000Y420835D01*
X505298Y420696D01*
X504702Y420298D01*
X504304Y419702D01*
X504165Y419000D01*
X504254Y418552D01*
X497380Y411677D01*
X496918Y411869D01*
Y417120D01*
X504612Y424814D01*
X505000Y424496D01*
X504804Y424202D01*
X504665Y423500D01*
X504804Y422798D01*
X505202Y422202D01*
X505798Y421804D01*
X506500Y421665D01*
X507202Y421804D01*
X507798Y422202D01*
X508196Y422798D01*
X508335Y423500D01*
X508246Y423948D01*
X510795Y426498D01*
X517705D01*
X519287Y424915D01*
X519251Y424549D01*
X507951Y413249D01*
X507752Y412951D01*
X507682Y412600D01*
Y410752D01*
X507302Y410498D01*
X506904Y409902D01*
X506765Y409200D01*
X506904Y408498D01*
X507302Y407902D01*
X507898Y407504D01*
X508600Y407365D01*
X509037Y407452D01*
X509338Y407002D01*
X509204Y406802D01*
X509065Y406100D01*
X509204Y405398D01*
X509602Y404802D01*
X510198Y404404D01*
X510900Y404265D01*
X511390Y404362D01*
X511476Y404262D01*
X511638Y403902D01*
X511304Y403402D01*
X511298Y403370D01*
X510767Y403265D01*
X510686Y403386D01*
X509958Y403872D01*
X509600Y403944D01*
Y401800D01*
Y399656D01*
X509958Y399728D01*
X510686Y400214D01*
X511172Y400942D01*
X511227Y401214D01*
X511459Y401306D01*
X511765Y401360D01*
X512298Y401004D01*
X513000Y400865D01*
X513702Y401004D01*
X514298Y401402D01*
X514696Y401998D01*
X514835Y402700D01*
X514696Y403402D01*
X514298Y403998D01*
X513918Y404252D01*
Y411020D01*
X523480Y420582D01*
X565777D01*
X566044Y420082D01*
X565828Y419758D01*
X565756Y419400D01*
X567900D01*
Y418900D01*
X568400D01*
Y416756D01*
X568758Y416828D01*
X569486Y417314D01*
X569773Y417744D01*
X570375D01*
X570402Y417702D01*
X570782Y417448D01*
Y410552D01*
X570402Y410298D01*
X570004Y409702D01*
X569865Y409000D01*
X570004Y408298D01*
X570402Y407702D01*
X570998Y407304D01*
X571700Y407165D01*
X572402Y407304D01*
X572998Y407702D01*
X573395Y408297D01*
X573400Y408298D01*
X573900D01*
X573905Y408297D01*
X574302Y407702D01*
X574898Y407304D01*
X575600Y407165D01*
X576302Y407304D01*
X576898Y407702D01*
X577222Y408188D01*
X577390Y408226D01*
X577610D01*
X577778Y408188D01*
X578102Y407702D01*
X578698Y407304D01*
X579400Y407165D01*
X580102Y407304D01*
X580698Y407702D01*
X581096Y408298D01*
X581235Y409000D01*
X581096Y409702D01*
X580698Y410298D01*
X580318Y410552D01*
Y417448D01*
X580698Y417702D01*
X581096Y418298D01*
X581235Y419000D01*
X581096Y419702D01*
X580842Y420082D01*
X581103Y420582D01*
X584031D01*
X584045Y420578D01*
X584446Y420082D01*
X584369Y419500D01*
X584493Y418560D01*
X584855Y417685D01*
X585432Y416932D01*
X586185Y416355D01*
X587060Y415993D01*
X588000Y415869D01*
X589000D01*
X589940Y415993D01*
X590484Y416218D01*
X594422Y412280D01*
X594455Y412258D01*
X595561Y410910D01*
X596402Y409338D01*
X596919Y407632D01*
X597090Y405896D01*
X597082Y405858D01*
Y391929D01*
X597080D01*
X596961Y390729D01*
X596611Y389575D01*
X596043Y388512D01*
X595278Y387580D01*
X594911Y387260D01*
X593910Y386439D01*
X592338Y385598D01*
X590632Y385081D01*
X588896Y384910D01*
X588858Y384918D01*
X575142D01*
Y384934D01*
X573432Y384799D01*
X571763Y384399D01*
X570178Y383742D01*
X568715Y382846D01*
X567411Y381731D01*
X567422Y381720D01*
X566338Y380636D01*
X566324Y380615D01*
X565091Y379603D01*
X563662Y378839D01*
X563002Y378639D01*
X562600Y378937D01*
Y379400D01*
X558400D01*
Y378197D01*
X557537D01*
Y379848D01*
X548843D01*
X548803Y379865D01*
X548711Y379956D01*
X548211Y380163D01*
X548082D01*
X547963Y380212D01*
X547844Y380163D01*
X547715D01*
X547623Y380072D01*
X547504Y380022D01*
X546903Y379421D01*
X546877Y379360D01*
X546822Y379323D01*
X546449Y378764D01*
X546436Y378699D01*
X546389Y378651D01*
X546131Y378030D01*
Y377964D01*
X546094Y377908D01*
X545963Y377249D01*
X545976Y377184D01*
X545951Y377122D01*
Y375127D01*
X545451Y374844D01*
X545418Y374864D01*
Y385620D01*
X547601Y387803D01*
X548063Y387612D01*
Y385811D01*
X552500D01*
Y388280D01*
X548731D01*
X548539Y388741D01*
X555880Y396082D01*
X570148D01*
X570402Y395702D01*
X570998Y395304D01*
X571700Y395165D01*
X572402Y395304D01*
X572998Y395702D01*
X573396Y396298D01*
X573529Y396967D01*
X573661Y397052D01*
X574006Y397196D01*
X574851Y396351D01*
X575149Y396152D01*
X575500Y396082D01*
X579448D01*
X579702Y395702D01*
X580298Y395304D01*
X581000Y395165D01*
X581702Y395304D01*
X582082Y395558D01*
X582582Y395297D01*
Y394500D01*
X582652Y394149D01*
X582851Y393851D01*
X585086Y391616D01*
X584855Y391316D01*
X584493Y390440D01*
X584369Y389500D01*
X584493Y388560D01*
X584855Y387684D01*
X585432Y386932D01*
X586185Y386355D01*
X587060Y385993D01*
X588000Y385869D01*
X589000D01*
X589940Y385993D01*
X590815Y386355D01*
X591568Y386932D01*
X592145Y387684D01*
X592507Y388560D01*
X592631Y389500D01*
X592507Y390440D01*
X592145Y391316D01*
X591568Y392068D01*
X590815Y392645D01*
X589940Y393007D01*
X589000Y393131D01*
X588000D01*
X587060Y393007D01*
X586516Y392782D01*
X584418Y394880D01*
Y397469D01*
X584601Y397559D01*
X584918Y397603D01*
X585432Y396933D01*
X586185Y396355D01*
X587060Y395993D01*
X588000Y395869D01*
X589000D01*
X589940Y395993D01*
X590815Y396355D01*
X591568Y396933D01*
X592145Y397685D01*
X592507Y398560D01*
X592631Y399500D01*
X592507Y400440D01*
X592145Y401315D01*
X591568Y402068D01*
X590815Y402645D01*
X589940Y403007D01*
X589000Y403131D01*
X588000D01*
X587060Y403007D01*
X586439Y402750D01*
X586100Y402818D01*
X536023D01*
X535756Y403318D01*
X535972Y403642D01*
X536044Y404000D01*
X531756D01*
X531828Y403642D01*
X532044Y403318D01*
X531777Y402818D01*
X526441D01*
X526090Y402748D01*
X525792Y402549D01*
X520351Y397108D01*
X520152Y396810D01*
X520082Y396459D01*
Y389653D01*
X520076Y389649D01*
X519576Y389916D01*
Y397904D01*
X514439D01*
Y388830D01*
X519086D01*
X519293Y388331D01*
X509120Y378158D01*
X494545D01*
Y379809D01*
X485471D01*
Y374672D01*
X494545D01*
Y376323D01*
X509500D01*
X509851Y376392D01*
X510149Y376591D01*
X521649Y388091D01*
X521848Y388389D01*
X521918Y388740D01*
Y395734D01*
X522018Y395801D01*
X522518Y395534D01*
Y388830D01*
X527655D01*
Y388830D01*
X527809Y388767D01*
X527895Y388192D01*
X510025Y370323D01*
X494545D01*
Y371974D01*
X485471D01*
Y366837D01*
X494545D01*
Y368488D01*
X510405D01*
X510757Y368558D01*
X511054Y368757D01*
X529649Y387351D01*
X529848Y387649D01*
X529918Y388000D01*
Y395775D01*
X530018Y395842D01*
X530518Y395574D01*
Y388830D01*
X534879D01*
X535071Y388369D01*
X509112Y362410D01*
X494545D01*
Y364061D01*
X485471D01*
Y359418D01*
X457380D01*
X453918Y362880D01*
Y422620D01*
X457516Y426218D01*
X458060Y425993D01*
X459000Y425869D01*
X460000D01*
X460940Y425993D01*
X461816Y426355D01*
X462568Y426932D01*
X463145Y427684D01*
X463507Y428560D01*
X463631Y429500D01*
X463507Y430440D01*
X463145Y431316D01*
X462568Y432068D01*
X461816Y432645D01*
X460940Y433007D01*
X460000Y433131D01*
X459000D01*
X458060Y433007D01*
X457185Y432645D01*
X456432Y432068D01*
X455855Y431316D01*
X455493Y430440D01*
X455369Y429500D01*
X455493Y428560D01*
X455855Y427684D01*
X456086Y427384D01*
X452351Y423649D01*
X452152Y423351D01*
X452082Y423000D01*
Y362654D01*
X451760Y362396D01*
X451603Y362346D01*
X451531Y362386D01*
X451081Y363868D01*
X450910Y365604D01*
X450918Y365642D01*
Y425858D01*
X450910Y425896D01*
X451081Y427632D01*
X451598Y429338D01*
X452439Y430910D01*
X453545Y432258D01*
X453578Y432280D01*
X457516Y436218D01*
X458060Y435993D01*
X459000Y435869D01*
X460000D01*
X460940Y435993D01*
X461816Y436355D01*
X462568Y436932D01*
X463145Y437684D01*
X463507Y438560D01*
X463631Y439500D01*
X463507Y440440D01*
X463145Y441316D01*
X462568Y442068D01*
X461816Y442645D01*
X460940Y443007D01*
X460000Y443131D01*
X459000D01*
X458060Y443007D01*
X457185Y442645D01*
X456432Y442068D01*
X455855Y441316D01*
X455493Y440440D01*
X455369Y439500D01*
X455493Y438560D01*
X455855Y437684D01*
X456086Y437384D01*
X452280Y433578D01*
X452269Y433589D01*
X451154Y432284D01*
X450258Y430822D01*
X449601Y429237D01*
X449201Y427568D01*
X449066Y425858D01*
X449082D01*
Y365642D01*
X449066D01*
X449201Y363932D01*
X449601Y362263D01*
X450258Y360678D01*
X451154Y359215D01*
X452269Y357911D01*
X452280Y357922D01*
X457621Y352581D01*
X457388Y352107D01*
X457200Y352132D01*
X456234Y352005D01*
X455334Y351632D01*
X454561Y351039D01*
X453968Y350266D01*
X453595Y349366D01*
X453468Y348400D01*
X453595Y347434D01*
X453968Y346534D01*
X454561Y345761D01*
X455334Y345168D01*
X456234Y344795D01*
X457200Y344668D01*
X458166Y344795D01*
X459066Y345168D01*
X459839Y345761D01*
X460432Y346534D01*
X460805Y347434D01*
X460932Y348400D01*
X460907Y348588D01*
X461381Y348821D01*
X466422Y343780D01*
X466411Y343769D01*
X467716Y342654D01*
X469178Y341758D01*
X470763Y341101D01*
X472432Y340701D01*
X474142Y340566D01*
Y340582D01*
X485047D01*
X485471Y340399D01*
X485471Y340082D01*
Y335262D01*
X494545D01*
Y340082D01*
X494545Y340399D01*
X494969Y340582D01*
X522815D01*
Y340566D01*
X524525Y340701D01*
X526193Y341101D01*
X527778Y341758D01*
X529241Y342654D01*
X530546Y343769D01*
X530535Y343780D01*
X531541Y344787D01*
X545951D01*
Y342418D01*
X540552D01*
X540298Y342798D01*
X539702Y343196D01*
X539000Y343335D01*
X538298Y343196D01*
X537702Y342798D01*
X537304Y342202D01*
X537165Y341500D01*
X537304Y340798D01*
X537702Y340202D01*
X538298Y339804D01*
X539000Y339665D01*
X539702Y339804D01*
X540298Y340202D01*
X540552Y340582D01*
X548071D01*
X548463Y340320D01*
Y335184D01*
X548073Y334918D01*
X540380D01*
X537746Y337552D01*
X537835Y338000D01*
X537696Y338702D01*
X537298Y339298D01*
X536702Y339696D01*
X536000Y339835D01*
X535298Y339696D01*
X534702Y339298D01*
X534304Y338702D01*
X534165Y338000D01*
X534304Y337298D01*
X534702Y336702D01*
X535298Y336304D01*
X536000Y336165D01*
X536448Y336254D01*
X539351Y333351D01*
X539649Y333152D01*
X540000Y333082D01*
X540345D01*
X540395Y332582D01*
X539842Y332472D01*
X539114Y331986D01*
X538628Y331258D01*
X538556Y330900D01*
X542844D01*
X542772Y331258D01*
X542286Y331986D01*
X541558Y332472D01*
X541005Y332582D01*
X541055Y333082D01*
X561376D01*
X562397Y332062D01*
X562205Y331600D01*
X558700D01*
Y330874D01*
X557537D01*
Y332525D01*
X548463D01*
Y327388D01*
X548069Y327131D01*
X494847D01*
X494545Y327506D01*
X494545Y327631D01*
Y329157D01*
X497075D01*
X497426Y329227D01*
X497724Y329426D01*
X504552Y336254D01*
X505000Y336165D01*
X505702Y336304D01*
X506298Y336702D01*
X506696Y337298D01*
X506835Y338000D01*
X506696Y338702D01*
X506298Y339298D01*
X505702Y339696D01*
X505000Y339835D01*
X504298Y339696D01*
X503702Y339298D01*
X503304Y338702D01*
X503165Y338000D01*
X503254Y337552D01*
X496695Y330992D01*
X494545D01*
Y332643D01*
X485471D01*
Y327631D01*
X485471Y327506D01*
X485169Y327131D01*
X463500D01*
X462876Y327007D01*
X462347Y326654D01*
X457824Y322131D01*
X439500D01*
X438876Y322007D01*
X438346Y321654D01*
X418324Y301631D01*
X412398D01*
X411773Y301507D01*
X411244Y301153D01*
X385506Y275415D01*
X380169D01*
X380135Y275671D01*
X379837Y276391D01*
X379362Y277010D01*
X378743Y277485D01*
X378022Y277783D01*
X377249Y277885D01*
X376476Y277783D01*
X375755Y277485D01*
X375136Y277010D01*
X372909Y274783D01*
X372434Y274164D01*
X372136Y273444D01*
X372034Y272670D01*
X372136Y271897D01*
X372434Y271177D01*
X372909Y270558D01*
X373528Y270083D01*
X374249Y269784D01*
X375022Y269683D01*
X375795Y269784D01*
X376516Y270083D01*
X377135Y270558D01*
X378730Y272152D01*
X386181D01*
X386806Y272277D01*
X387335Y272630D01*
X413073Y298369D01*
X419000D01*
X419624Y298493D01*
X420154Y298847D01*
X440176Y318869D01*
X458500D01*
X459124Y318993D01*
X459654Y319346D01*
X464176Y323869D01*
X509548D01*
X509564Y323369D01*
X503660Y322982D01*
X495093Y322043D01*
X486576Y320732D01*
X478124Y319051D01*
X469753Y317003D01*
X461479Y314591D01*
X453319Y311821D01*
X445287Y308698D01*
X437399Y305227D01*
X429670Y301415D01*
X422114Y297270D01*
X414747Y292800D01*
X407581Y288012D01*
X400631Y282916D01*
X393910Y277522D01*
X387431Y271840D01*
X381206Y265880D01*
X375247Y259655D01*
X369565Y253176D01*
X364170Y246455D01*
X359272Y239774D01*
X359268Y239777D01*
X358824Y239113D01*
X357181Y237239D01*
X355308Y235596D01*
X353236Y234211D01*
X351000Y233109D01*
X348641Y232308D01*
X346197Y231822D01*
X343710Y231659D01*
X341223Y231822D01*
X338779Y232308D01*
X336420Y233109D01*
X334185Y234211D01*
X332113Y235596D01*
X330239Y237239D01*
X328596Y239113D01*
X327211Y241185D01*
X326109Y243420D01*
X325308Y245779D01*
X324822Y248223D01*
X324659Y250710D01*
X324822Y253197D01*
X325308Y255641D01*
X326109Y258000D01*
X327211Y260236D01*
X328596Y262308D01*
X330239Y264181D01*
X332113Y265824D01*
X332777Y266268D01*
X332774Y266272D01*
X339455Y271170D01*
X346176Y276565D01*
X352655Y282247D01*
X358880Y288206D01*
X364840Y294431D01*
X370522Y300910D01*
X375916Y307631D01*
X381012Y314581D01*
X385800Y321747D01*
X390270Y329114D01*
X394415Y336670D01*
X398227Y344399D01*
X401698Y352287D01*
X404821Y360319D01*
X407591Y368479D01*
X410003Y376753D01*
X412051Y385124D01*
X413732Y393576D01*
X415043Y402094D01*
X415982Y410660D01*
X416545Y419260D01*
X416733Y427875D01*
X416545Y436491D01*
X415982Y445091D01*
X415043Y453657D01*
X413732Y462175D01*
X412051Y470627D01*
X410003Y478998D01*
X407591Y487271D01*
X404821Y495432D01*
X401698Y503464D01*
X398227Y511352D01*
X394415Y519081D01*
X390270Y526637D01*
X385800Y534004D01*
X381012Y541170D01*
X375916Y548119D01*
X370522Y554840D01*
X364840Y561320D01*
X358880Y567545D01*
X352655Y573504D01*
X346176Y579186D01*
X339455Y584580D01*
X332774Y589479D01*
X332777Y589483D01*
X332113Y589927D01*
X330239Y591570D01*
X328596Y593443D01*
X327211Y595515D01*
X326109Y597750D01*
X325308Y600110D01*
X324822Y602554D01*
X324659Y605041D01*
X324822Y607527D01*
X325308Y609972D01*
X326109Y612331D01*
X327211Y614566D01*
X328596Y616638D01*
X330239Y618512D01*
X332113Y620155D01*
X334185Y621539D01*
X336420Y622641D01*
X338779Y623442D01*
X341223Y623929D01*
X343710Y624092D01*
X346197Y623929D01*
X348641Y623442D01*
X351000Y622641D01*
X353236Y621539D01*
X355308Y620155D01*
X357181Y618512D01*
X358824Y616638D01*
X359268Y615974D01*
X359272Y615976D01*
X364170Y609296D01*
X369565Y602575D01*
X375247Y596096D01*
X381206Y589870D01*
X387431Y583911D01*
X393910Y578229D01*
X400631Y572835D01*
X407581Y567739D01*
X414747Y562951D01*
X422114Y558481D01*
X429670Y554335D01*
X437399Y550524D01*
X445287Y547053D01*
X453319Y543929D01*
X461479Y541159D01*
X469753Y538748D01*
X478124Y536699D01*
X486576Y535018D01*
X495093Y533707D01*
X501802Y532973D01*
X502028Y532445D01*
X501871Y532240D01*
X501612Y531615D01*
X501523Y530945D01*
Y527795D01*
X501612Y527125D01*
X501871Y526500D01*
X502282Y525963D01*
X502819Y525552D01*
X503444Y525293D01*
X504114Y525205D01*
X504785Y525293D01*
X505409Y525552D01*
X505946Y525963D01*
X506358Y526500D01*
X506617Y527125D01*
X506705Y527795D01*
Y530945D01*
X506617Y531615D01*
X506421Y532087D01*
X506680Y532571D01*
X512260Y532205D01*
X520875Y532018D01*
X529491Y532205D01*
X535599Y532606D01*
X535837Y532120D01*
X535628Y531615D01*
X535539Y530945D01*
Y527795D01*
X535628Y527125D01*
X535886Y526500D01*
X536298Y525963D01*
X536835Y525552D01*
X537459Y525293D01*
X538130Y525205D01*
X538800Y525293D01*
X539425Y525552D01*
X539962Y525963D01*
X540374Y526500D01*
X540632Y527125D01*
X540721Y527795D01*
Y530945D01*
X540632Y531615D01*
X540374Y532240D01*
X540178Y532495D01*
X540404Y533022D01*
X546657Y533707D01*
X555175Y535018D01*
X563627Y536699D01*
X571998Y538748D01*
X580271Y541159D01*
X588432Y543929D01*
X596464Y547053D01*
X604352Y550524D01*
X612081Y554335D01*
X619637Y558481D01*
X627004Y562951D01*
X634170Y567739D01*
X641119Y572835D01*
X647840Y578229D01*
X650884Y580898D01*
X651226Y580533D01*
X566824Y496131D01*
X552047D01*
X551812Y496572D01*
X551896Y496698D01*
X552035Y497400D01*
X551896Y498102D01*
X551498Y498698D01*
X550902Y499096D01*
X550200Y499235D01*
X549498Y499096D01*
X548902Y498698D01*
X548648Y498318D01*
X540845D01*
X533499Y505664D01*
X533690Y506126D01*
X533811D01*
Y510079D01*
X534811D01*
Y506126D01*
X535902D01*
Y508797D01*
X536402Y508955D01*
X536835Y508623D01*
X537459Y508364D01*
X538130Y508276D01*
X538800Y508364D01*
X539425Y508623D01*
X539962Y509034D01*
X540374Y509571D01*
X540632Y510196D01*
X540721Y510866D01*
Y515197D01*
X540632Y515867D01*
X540374Y516492D01*
X539962Y517029D01*
X539425Y517440D01*
X538800Y517699D01*
X538130Y517788D01*
X537459Y517699D01*
X536835Y517440D01*
X536298Y517029D01*
X535886Y516492D01*
X535628Y515867D01*
X535539Y515197D01*
Y514032D01*
X534669D01*
X534323Y514532D01*
X534416Y515000D01*
X534270Y515733D01*
X533855Y516355D01*
X533233Y516771D01*
X532500Y516916D01*
X531767Y516771D01*
X531145Y516355D01*
X530729Y515733D01*
X530653Y515351D01*
X530111Y515187D01*
X528149Y517149D01*
X527851Y517348D01*
X527500Y517418D01*
X514500D01*
X514149Y517348D01*
X513851Y517149D01*
X512093Y515390D01*
X511550Y515555D01*
X511515Y515733D01*
X511099Y516355D01*
X510477Y516771D01*
X509744Y516916D01*
X509011Y516771D01*
X508389Y516355D01*
X507974Y515733D01*
X507828Y515000D01*
X507921Y514532D01*
X507575Y514032D01*
X506705D01*
Y515197D01*
X506617Y515867D01*
X506358Y516492D01*
X505946Y517029D01*
X505409Y517440D01*
X504785Y517699D01*
X504114Y517788D01*
X503444Y517699D01*
X502819Y517440D01*
X502282Y517029D01*
X501871Y516492D01*
X501612Y515867D01*
X501523Y515197D01*
Y510866D01*
X501612Y510196D01*
X501871Y509571D01*
X502282Y509034D01*
X502819Y508623D01*
X503444Y508364D01*
X504114Y508276D01*
X504785Y508364D01*
X505409Y508623D01*
X505842Y508955D01*
X506343Y508797D01*
Y506126D01*
X507433D01*
Y510079D01*
X508433D01*
Y506126D01*
X508614D01*
Y510079D01*
X509614D01*
Y506126D01*
X510165D01*
Y503641D01*
X509751Y503255D01*
X509298Y503298D01*
X508702Y503696D01*
X508000Y503835D01*
X507298Y503696D01*
X506702Y503298D01*
X506304Y502702D01*
X506165Y502000D01*
X506304Y501298D01*
X506702Y500702D01*
X507298Y500304D01*
X508000Y500165D01*
X508702Y500304D01*
X509298Y500702D01*
X509552Y501082D01*
X510000D01*
X510351Y501152D01*
X510649Y501351D01*
X511731Y502434D01*
X511931Y502732D01*
X512000Y503083D01*
Y506351D01*
X513000D01*
X513423Y506526D01*
X517048D01*
Y503331D01*
X517048Y503331D01*
X517133Y502902D01*
X517376Y502538D01*
X521707Y498207D01*
X521707Y498207D01*
X522071Y497964D01*
X522500Y497878D01*
X525500D01*
X525500Y497878D01*
X525929Y497964D01*
X526293Y498207D01*
X528792Y500706D01*
X529000Y500665D01*
X529702Y500804D01*
X530298Y501202D01*
X530696Y501798D01*
X530835Y502500D01*
X530696Y503202D01*
X530298Y503798D01*
X529702Y504196D01*
X529000Y504335D01*
X528792Y504294D01*
X527022Y506064D01*
X527213Y506526D01*
X530722D01*
Y506226D01*
X530792Y505875D01*
X530991Y505577D01*
X539817Y496751D01*
X539996Y496631D01*
X539862Y496131D01*
X454676D01*
X435131Y515676D01*
Y533500D01*
X435007Y534124D01*
X434654Y534654D01*
X372018Y597289D01*
X371489Y597643D01*
X370865Y597767D01*
X364310D01*
X362715Y599362D01*
X362096Y599837D01*
X361376Y600135D01*
X360603Y600237D01*
X359829Y600135D01*
X359109Y599837D01*
X358490Y599362D01*
X358015Y598743D01*
X357717Y598022D01*
X357615Y597249D01*
X357717Y596476D01*
X358015Y595755D01*
X358490Y595136D01*
X360717Y592909D01*
X361336Y592435D01*
X362056Y592136D01*
X362830Y592034D01*
X363603Y592136D01*
X364323Y592435D01*
X364942Y592909D01*
X365417Y593528D01*
X365716Y594249D01*
X365749Y594504D01*
X370189D01*
X431869Y532824D01*
Y515000D01*
X431993Y514376D01*
X432346Y513846D01*
X452846Y493347D01*
X453376Y492993D01*
X454000Y492869D01*
X567500D01*
X568124Y492993D01*
X568653Y493347D01*
X655392Y580085D01*
X662331D01*
X662365Y579829D01*
X662663Y579109D01*
X663138Y578490D01*
X663757Y578015D01*
X664478Y577717D01*
X665251Y577615D01*
X666024Y577717D01*
X666745Y578015D01*
X667364Y578490D01*
X669591Y580717D01*
X670065Y581336D01*
X670364Y582056D01*
X670466Y582830D01*
X670364Y583603D01*
X670065Y584324D01*
X669591Y584942D01*
X668972Y585417D01*
X668251Y585716D01*
X667478Y585817D01*
X666705Y585716D01*
X665984Y585417D01*
X665365Y584942D01*
X663770Y583348D01*
X654716D01*
X654716Y583348D01*
X654353Y583275D01*
X654124Y583740D01*
X654320Y583911D01*
X660545Y589870D01*
X666504Y596096D01*
X672186Y602575D01*
X677580Y609296D01*
X682479Y615976D01*
X682483Y615974D01*
X682927Y616638D01*
X684570Y618512D01*
X686443Y620155D01*
X688515Y621539D01*
X690750Y622641D01*
X693110Y623442D01*
X695554Y623929D01*
X698041Y624092D01*
X700527Y623929D01*
D02*
G37*
%LPC*%
G36*
X543444Y365900D02*
X541800D01*
Y364256D01*
X542158Y364328D01*
X542886Y364814D01*
X543372Y365542D01*
X543444Y365900D01*
D02*
G37*
G36*
X540800D02*
X539156D01*
X539228Y365542D01*
X539714Y364814D01*
X540442Y364328D01*
X540800Y364256D01*
Y365900D01*
D02*
G37*
G36*
X494545Y356029D02*
X485471D01*
Y350918D01*
X480095D01*
X479744Y350848D01*
X479446Y350649D01*
X476602Y347805D01*
X473700D01*
Y343605D01*
X477900D01*
Y346507D01*
X478688Y347295D01*
X479150Y347104D01*
Y343611D01*
X483350D01*
Y344787D01*
X485471D01*
Y343136D01*
X494545D01*
Y348273D01*
X485471D01*
Y346622D01*
X483350D01*
Y347811D01*
X479857D01*
X479666Y348273D01*
X480475Y349082D01*
X497948D01*
X498202Y348702D01*
X498798Y348304D01*
X499500Y348165D01*
X500202Y348304D01*
X500798Y348702D01*
X501196Y349298D01*
X501230Y349473D01*
X501348Y349649D01*
X501418Y350000D01*
X501348Y350351D01*
X501230Y350527D01*
X501196Y350702D01*
X500798Y351298D01*
X500202Y351696D01*
X499500Y351835D01*
X498798Y351696D01*
X498202Y351298D01*
X497948Y350918D01*
X494545D01*
Y356029D01*
D02*
G37*
G36*
X535900Y382344D02*
Y380700D01*
X537544D01*
X537472Y381058D01*
X536986Y381786D01*
X536258Y382272D01*
X535900Y382344D01*
D02*
G37*
G36*
X534900D02*
X534542Y382272D01*
X533814Y381786D01*
X533328Y381058D01*
X533256Y380700D01*
X534900D01*
Y382344D01*
D02*
G37*
G36*
X537900Y374744D02*
Y373100D01*
X539544D01*
X539472Y373458D01*
X538986Y374186D01*
X538258Y374672D01*
X537900Y374744D01*
D02*
G37*
G36*
X536900D02*
X536542Y374672D01*
X535814Y374186D01*
X535328Y373458D01*
X535256Y373100D01*
X536900D01*
Y374744D01*
D02*
G37*
G36*
X534900Y379700D02*
X533256D01*
X533328Y379342D01*
X533814Y378614D01*
X534542Y378128D01*
X534900Y378056D01*
Y379700D01*
D02*
G37*
G36*
X537544D02*
X535900D01*
Y378056D01*
X536258Y378128D01*
X536986Y378614D01*
X537472Y379342D01*
X537544Y379700D01*
D02*
G37*
G36*
X607634Y328500D02*
X605991D01*
Y326856D01*
X606349Y326928D01*
X607077Y327414D01*
X607563Y328142D01*
X607634Y328500D01*
D02*
G37*
G36*
X604990D02*
X603347D01*
X603418Y328142D01*
X603904Y327414D01*
X604632Y326928D01*
X604990Y326856D01*
Y328500D01*
D02*
G37*
G36*
X605988Y345644D02*
Y344000D01*
X607631D01*
X607560Y344358D01*
X607074Y345086D01*
X606346Y345572D01*
X605988Y345644D01*
D02*
G37*
G36*
X607631Y343000D02*
X603344D01*
X603415Y342642D01*
X603902Y341914D01*
X604479Y341528D01*
X604496Y341478D01*
Y341022D01*
X604479Y340972D01*
X603902Y340586D01*
X603415Y339858D01*
X603344Y339500D01*
X607631D01*
X607560Y339858D01*
X607074Y340586D01*
X606496Y340972D01*
X606480Y341022D01*
Y341478D01*
X606496Y341528D01*
X607074Y341914D01*
X607560Y342642D01*
X607631Y343000D01*
D02*
G37*
G36*
X604988Y345644D02*
X604629Y345572D01*
X603902Y345086D01*
X603415Y344358D01*
X603344Y344000D01*
X604988D01*
Y345644D01*
D02*
G37*
G36*
X571100Y370035D02*
X570398Y369896D01*
X569802Y369498D01*
X569404Y368902D01*
X569265Y368200D01*
X569404Y367498D01*
X569802Y366902D01*
X570398Y366504D01*
X571100Y366365D01*
X571548Y366454D01*
X574161Y363841D01*
X574148Y363827D01*
X575042Y363141D01*
X576083Y362710D01*
X577200Y362563D01*
Y362582D01*
X594248D01*
X594502Y362202D01*
X594982Y361881D01*
Y356001D01*
X594982D01*
X594855Y354720D01*
X594482Y353487D01*
X593875Y352352D01*
X593112Y351422D01*
X592702Y351696D01*
X592000Y351835D01*
X591298Y351696D01*
X590702Y351298D01*
X590304Y350702D01*
X590165Y350000D01*
X590304Y349298D01*
X590702Y348702D01*
X591298Y348304D01*
X592000Y348165D01*
X592702Y348304D01*
X593298Y348702D01*
X593696Y349298D01*
X593752Y349581D01*
X594364Y350050D01*
X594372Y350042D01*
X595420Y351319D01*
X596199Y352776D01*
X596679Y354357D01*
X596841Y356001D01*
X596818D01*
Y362015D01*
X597098Y362202D01*
X597496Y362798D01*
X597635Y363500D01*
X597496Y364202D01*
X597098Y364798D01*
X596502Y365196D01*
X595800Y365335D01*
X595098Y365196D01*
X594502Y364798D01*
X594248Y364418D01*
X577200D01*
X577162Y364410D01*
X576252Y364591D01*
X575481Y365106D01*
X575459Y365139D01*
X572846Y367752D01*
X572935Y368200D01*
X572796Y368902D01*
X572398Y369498D01*
X571802Y369896D01*
X571100Y370035D01*
D02*
G37*
G36*
X604990Y331144D02*
X604632Y331072D01*
X603904Y330586D01*
X603418Y329858D01*
X603347Y329500D01*
X604990D01*
Y331144D01*
D02*
G37*
G36*
X607584Y334000D02*
X605940D01*
Y332356D01*
X606299Y332428D01*
X607027Y332914D01*
X607513Y333642D01*
X607584Y334000D01*
D02*
G37*
G36*
X607631Y338500D02*
X603344D01*
X603415Y338142D01*
X603902Y337414D01*
X604456Y337044D01*
X604481Y336948D01*
X604460Y336498D01*
X604456Y336488D01*
X603854Y336086D01*
X603368Y335358D01*
X603297Y335000D01*
X607584D01*
X607513Y335358D01*
X607027Y336086D01*
X606472Y336456D01*
X606447Y336552D01*
X606468Y337002D01*
X606472Y337012D01*
X607074Y337414D01*
X607560Y338142D01*
X607631Y338500D01*
D02*
G37*
G36*
X604941Y334000D02*
X603297D01*
X603368Y333642D01*
X603854Y332914D01*
X604582Y332428D01*
X604941Y332356D01*
Y334000D01*
D02*
G37*
G36*
X605991Y331144D02*
Y329500D01*
X607634D01*
X607563Y329858D01*
X607077Y330586D01*
X606349Y331072D01*
X605991Y331144D01*
D02*
G37*
G36*
X552500Y384811D02*
X548063D01*
Y382343D01*
X552500D01*
Y384811D01*
D02*
G37*
G36*
X562994Y382250D02*
X560994D01*
Y380250D01*
X562994D01*
Y382250D01*
D02*
G37*
G36*
X474300Y384500D02*
X472300D01*
Y382500D01*
X474300D01*
Y384500D01*
D02*
G37*
G36*
X417800Y362735D02*
X417098Y362596D01*
X416502Y362198D01*
X416104Y361602D01*
X415965Y360900D01*
X416104Y360198D01*
X416169Y360102D01*
Y344076D01*
X352711Y280618D01*
X352357Y280089D01*
X352233Y279465D01*
Y270810D01*
X350638Y269215D01*
X350163Y268596D01*
X349865Y267876D01*
X349763Y267103D01*
X349865Y266329D01*
X350163Y265609D01*
X350638Y264990D01*
X351257Y264515D01*
X351978Y264217D01*
X352751Y264115D01*
X353524Y264217D01*
X354245Y264515D01*
X354864Y264990D01*
X357091Y267217D01*
X357565Y267836D01*
X357864Y268556D01*
X357966Y269330D01*
X357864Y270103D01*
X357565Y270824D01*
X357091Y271442D01*
X356472Y271917D01*
X355751Y272216D01*
X355496Y272249D01*
Y278789D01*
X419054Y342347D01*
X419407Y342876D01*
X419531Y343500D01*
X419431Y344003D01*
Y360102D01*
X419496Y360198D01*
X419635Y360900D01*
X419496Y361602D01*
X419098Y362198D01*
X418502Y362596D01*
X417800Y362735D01*
D02*
G37*
G36*
X474300Y387500D02*
X472300D01*
Y385500D01*
X474300D01*
Y387500D01*
D02*
G37*
G36*
X477300Y384500D02*
X475300D01*
Y382500D01*
X477300D01*
Y384500D01*
D02*
G37*
G36*
X560994Y385250D02*
Y383250D01*
X562994D01*
Y385250D01*
X560994D01*
D02*
G37*
G36*
X474300Y378500D02*
X472300D01*
Y376500D01*
X474300D01*
Y378500D01*
D02*
G37*
G36*
X477300D02*
X475300D01*
Y376500D01*
X477300D01*
Y378500D01*
D02*
G37*
G36*
X343710Y265159D02*
X343455Y265139D01*
X342807D01*
X342765Y265122D01*
X342722Y265133D01*
X341738Y265004D01*
X341450Y264981D01*
X341309Y264947D01*
X340931Y264898D01*
X340892Y264875D01*
X340848Y264881D01*
X339256Y264455D01*
X339245Y264452D01*
X339243Y264451D01*
X339103Y264414D01*
X339068Y264386D01*
X339023D01*
X337354Y263695D01*
X337322Y263663D01*
X337278Y263657D01*
X337152Y263585D01*
X337150Y263584D01*
X337140Y263578D01*
X335713Y262754D01*
X335686Y262719D01*
X335643Y262707D01*
X335341Y262475D01*
X335217Y262400D01*
X334997Y262212D01*
X334210Y261608D01*
X334187Y261569D01*
X334146Y261551D01*
X333688Y261094D01*
X333493Y260927D01*
X333327Y260732D01*
X332869Y260274D01*
X332851Y260233D01*
X332813Y260210D01*
X332208Y259423D01*
X332020Y259203D01*
X331945Y259079D01*
X331713Y258777D01*
X331701Y258734D01*
X331666Y258707D01*
X330842Y257279D01*
X330836Y257270D01*
X330835Y257268D01*
X330763Y257142D01*
X330757Y257098D01*
X330725Y257066D01*
X330034Y255397D01*
Y255352D01*
X330007Y255317D01*
X329969Y255177D01*
X329968Y255175D01*
X329965Y255164D01*
X329539Y253572D01*
X329545Y253528D01*
X329522Y253489D01*
X329473Y253111D01*
X329439Y252970D01*
X329416Y252682D01*
X329287Y251698D01*
X329298Y251655D01*
X329281Y251613D01*
Y250965D01*
X329261Y250710D01*
X329281Y250455D01*
Y249807D01*
X329298Y249765D01*
X329287Y249722D01*
X329416Y248738D01*
X329439Y248450D01*
X329473Y248309D01*
X329522Y247931D01*
X329545Y247892D01*
X329539Y247848D01*
X329965Y246256D01*
X329968Y246245D01*
X329969Y246243D01*
X330007Y246103D01*
X330034Y246068D01*
Y246023D01*
X330725Y244354D01*
X330757Y244322D01*
X330763Y244278D01*
X330835Y244152D01*
X330836Y244150D01*
X330842Y244141D01*
X331666Y242713D01*
X331701Y242686D01*
X331713Y242643D01*
X331945Y242341D01*
X332020Y242217D01*
X332208Y241997D01*
X332813Y241210D01*
X332851Y241187D01*
X332869Y241146D01*
X333327Y240688D01*
X333493Y240493D01*
X333688Y240326D01*
X334146Y239869D01*
X334187Y239851D01*
X334210Y239813D01*
X334997Y239208D01*
X335217Y239020D01*
X335341Y238945D01*
X335643Y238713D01*
X335686Y238701D01*
X335713Y238666D01*
X337141Y237842D01*
X337150Y237836D01*
X337152Y237835D01*
X337278Y237763D01*
X337322Y237757D01*
X337354Y237725D01*
X339023Y237034D01*
X339068D01*
X339103Y237006D01*
X339243Y236969D01*
X339245Y236968D01*
X339256Y236965D01*
X340848Y236539D01*
X340892Y236545D01*
X340931Y236522D01*
X341309Y236473D01*
X341450Y236439D01*
X341738Y236416D01*
X342722Y236287D01*
X342765Y236298D01*
X342807Y236281D01*
X343455D01*
X343710Y236261D01*
X343965Y236281D01*
X344613D01*
X344655Y236298D01*
X344698Y236287D01*
X345682Y236416D01*
X345970Y236439D01*
X346111Y236473D01*
X346489Y236522D01*
X346528Y236545D01*
X346572Y236539D01*
X348164Y236965D01*
X348175Y236968D01*
X348177Y236969D01*
X348317Y237006D01*
X348353Y237034D01*
X348397D01*
X350066Y237725D01*
X350098Y237757D01*
X350142Y237763D01*
X350268Y237835D01*
X350270Y237836D01*
X350279Y237842D01*
X351707Y238666D01*
X351734Y238701D01*
X351777Y238713D01*
X352079Y238945D01*
X352203Y239020D01*
X352423Y239209D01*
X353210Y239813D01*
X353233Y239851D01*
X353274Y239869D01*
X353732Y240326D01*
X353927Y240493D01*
X354094Y240688D01*
X354552Y241146D01*
X354569Y241187D01*
X354608Y241210D01*
X355212Y241997D01*
X355400Y242217D01*
X355475Y242341D01*
X355707Y242643D01*
X355719Y242686D01*
X355754Y242713D01*
X356578Y244140D01*
X356584Y244150D01*
X356585Y244152D01*
X356658Y244278D01*
X356663Y244322D01*
X356695Y244354D01*
X357386Y246023D01*
Y246068D01*
X357414Y246103D01*
X357451Y246243D01*
X357452Y246245D01*
X357455Y246256D01*
X357881Y247848D01*
X357875Y247892D01*
X357898Y247931D01*
X357947Y248309D01*
X357981Y248450D01*
X358004Y248738D01*
X358133Y249722D01*
X358122Y249765D01*
X358139Y249807D01*
Y250455D01*
X358159Y250710D01*
X358139Y250965D01*
Y251613D01*
X358122Y251655D01*
X358133Y251698D01*
X358004Y252682D01*
X357981Y252970D01*
X357947Y253111D01*
X357898Y253489D01*
X357875Y253528D01*
X357881Y253572D01*
X357455Y255164D01*
X357452Y255175D01*
X357451Y255177D01*
X357414Y255317D01*
X357386Y255352D01*
Y255397D01*
X356695Y257066D01*
X356663Y257098D01*
X356658Y257142D01*
X356585Y257268D01*
X356584Y257270D01*
X356578Y257280D01*
X355754Y258707D01*
X355719Y258734D01*
X355707Y258777D01*
X355475Y259079D01*
X355400Y259203D01*
X355211Y259423D01*
X354608Y260210D01*
X354569Y260233D01*
X354552Y260274D01*
X354094Y260732D01*
X353927Y260927D01*
X353732Y261094D01*
X353274Y261551D01*
X353233Y261569D01*
X353210Y261608D01*
X352423Y262211D01*
X352203Y262400D01*
X352079Y262475D01*
X351777Y262707D01*
X351734Y262719D01*
X351707Y262754D01*
X350280Y263578D01*
X350270Y263584D01*
X350268Y263585D01*
X350142Y263657D01*
X350098Y263663D01*
X350066Y263695D01*
X348397Y264386D01*
X348353D01*
X348317Y264414D01*
X348177Y264451D01*
X348175Y264452D01*
X348164Y264455D01*
X346572Y264881D01*
X346528Y264875D01*
X346489Y264898D01*
X346111Y264947D01*
X345970Y264981D01*
X345682Y265004D01*
X344698Y265133D01*
X344655Y265122D01*
X344613Y265139D01*
X343965D01*
X343710Y265159D01*
D02*
G37*
G36*
X477300Y381500D02*
X475300D01*
Y379500D01*
X477300D01*
Y381500D01*
D02*
G37*
G36*
X557937Y388280D02*
X553500D01*
Y385311D01*
Y382343D01*
X557494D01*
X557937Y382343D01*
X557994Y381866D01*
Y380250D01*
X559994D01*
Y382750D01*
Y385250D01*
X557994Y385250D01*
X557937Y385727D01*
Y388280D01*
D02*
G37*
G36*
X474300Y381500D02*
X472300D01*
Y379500D01*
X474300D01*
Y381500D01*
D02*
G37*
G36*
X501400Y406044D02*
Y404400D01*
X503044D01*
X502972Y404758D01*
X502486Y405486D01*
X501758Y405972D01*
X501400Y406044D01*
D02*
G37*
G36*
X471900Y406400D02*
X470256D01*
X470328Y406042D01*
X470814Y405314D01*
X471542Y404828D01*
X471900Y404756D01*
Y406400D01*
D02*
G37*
G36*
X500400Y406044D02*
X500042Y405972D01*
X499314Y405486D01*
X498828Y404758D01*
X498756Y404400D01*
X500400D01*
Y406044D01*
D02*
G37*
G36*
X519550Y405344D02*
X519192Y405272D01*
X518464Y404786D01*
X517978Y404058D01*
X517906Y403700D01*
X519550D01*
Y405344D01*
D02*
G37*
G36*
X520550D02*
Y403700D01*
X522194D01*
X522122Y404058D01*
X521636Y404786D01*
X520908Y405272D01*
X520550Y405344D01*
D02*
G37*
G36*
X460000Y413131D02*
X459000D01*
X458060Y413007D01*
X457185Y412645D01*
X456432Y412068D01*
X455855Y411315D01*
X455493Y410440D01*
X455369Y409500D01*
X455493Y408560D01*
X455855Y407685D01*
X456432Y406932D01*
X457185Y406355D01*
X458060Y405993D01*
X459000Y405869D01*
X460000D01*
X460940Y405993D01*
X461816Y406355D01*
X462568Y406932D01*
X463145Y407685D01*
X463507Y408560D01*
X463631Y409500D01*
X463507Y410440D01*
X463145Y411315D01*
X462568Y412068D01*
X461816Y412645D01*
X460940Y413007D01*
X460000Y413131D01*
D02*
G37*
G36*
X589000D02*
X588000D01*
X587060Y413007D01*
X586185Y412645D01*
X585432Y412068D01*
X584855Y411315D01*
X584493Y410440D01*
X584369Y409500D01*
X584493Y408560D01*
X584855Y407685D01*
X585432Y406932D01*
X586185Y406355D01*
X587060Y405993D01*
X588000Y405869D01*
X589000D01*
X589940Y405993D01*
X590815Y406355D01*
X591568Y406932D01*
X592145Y407685D01*
X592507Y408560D01*
X592631Y409500D01*
X592507Y410440D01*
X592145Y411315D01*
X591568Y412068D01*
X590815Y412645D01*
X589940Y413007D01*
X589000Y413131D01*
D02*
G37*
G36*
X534400Y406644D02*
Y405000D01*
X536044D01*
X535972Y405358D01*
X535486Y406086D01*
X534758Y406572D01*
X534400Y406644D01*
D02*
G37*
G36*
X474544Y406400D02*
X472900D01*
Y404756D01*
X473258Y404828D01*
X473986Y405314D01*
X474472Y406042D01*
X474544Y406400D01*
D02*
G37*
G36*
X533400Y406644D02*
X533042Y406572D01*
X532314Y406086D01*
X531828Y405358D01*
X531756Y405000D01*
X533400D01*
Y406644D01*
D02*
G37*
G36*
X508600Y401300D02*
X506956D01*
X507028Y400942D01*
X507514Y400214D01*
X508242Y399728D01*
X508600Y399656D01*
Y401300D01*
D02*
G37*
G36*
X484500Y423335D02*
X483798Y423196D01*
X483202Y422798D01*
X482804Y422202D01*
X482665Y421500D01*
X482804Y420798D01*
X483202Y420202D01*
X483582Y419948D01*
Y412280D01*
X471720Y400418D01*
X463510D01*
X463507Y400440D01*
X463145Y401315D01*
X462568Y402068D01*
X461816Y402645D01*
X460940Y403007D01*
X460000Y403131D01*
X459000D01*
X458060Y403007D01*
X457185Y402645D01*
X456432Y402068D01*
X455855Y401315D01*
X455493Y400440D01*
X455369Y399500D01*
X455493Y398560D01*
X455855Y397685D01*
X456432Y396933D01*
X457185Y396355D01*
X458060Y395993D01*
X459000Y395869D01*
X460000D01*
X460940Y395993D01*
X461816Y396355D01*
X462568Y396933D01*
X463145Y397685D01*
X463507Y398560D01*
X463510Y398582D01*
X472100D01*
X472451Y398652D01*
X472749Y398851D01*
X485149Y411251D01*
X485348Y411549D01*
X485418Y411900D01*
Y419948D01*
X485798Y420202D01*
X486196Y420798D01*
X486335Y421500D01*
X486196Y422202D01*
X485798Y422798D01*
X485202Y423196D01*
X484500Y423335D01*
D02*
G37*
G36*
X361100Y268535D02*
X360398Y268396D01*
X359802Y267998D01*
X359404Y267402D01*
X359265Y266700D01*
X359404Y265998D01*
X359802Y265402D01*
X360398Y265004D01*
X360511Y264982D01*
X360585Y264908D01*
Y262458D01*
X358990Y260864D01*
X358515Y260245D01*
X358217Y259524D01*
X358115Y258751D01*
X358217Y257978D01*
X358515Y257257D01*
X358990Y256638D01*
X359609Y256163D01*
X360329Y255865D01*
X361103Y255763D01*
X361876Y255865D01*
X362596Y256163D01*
X363215Y256638D01*
X365442Y258865D01*
X365917Y259484D01*
X366216Y260205D01*
X366317Y260978D01*
X366216Y261751D01*
X365917Y262472D01*
X365442Y263091D01*
X364824Y263565D01*
X364103Y263864D01*
X363847Y263898D01*
Y265584D01*
X363723Y266208D01*
X363370Y266737D01*
X362818Y267289D01*
X362796Y267402D01*
X362398Y267998D01*
X361802Y268396D01*
X361100Y268535D01*
D02*
G37*
G36*
X477300Y387500D02*
X475300D01*
Y385500D01*
X477300D01*
Y387500D01*
D02*
G37*
G36*
X460000Y393131D02*
X459000D01*
X458060Y393007D01*
X457185Y392645D01*
X456432Y392068D01*
X455855Y391316D01*
X455493Y390440D01*
X455369Y389500D01*
X455493Y388560D01*
X455855Y387684D01*
X456432Y386932D01*
X457185Y386355D01*
X458060Y385993D01*
X459000Y385869D01*
X460000D01*
X460940Y385993D01*
X461816Y386355D01*
X462568Y386932D01*
X463145Y387684D01*
X463507Y388560D01*
X463631Y389500D01*
X463507Y390440D01*
X463145Y391316D01*
X462568Y392068D01*
X461816Y392645D01*
X460940Y393007D01*
X460000Y393131D01*
D02*
G37*
G36*
X503044Y403400D02*
X501400D01*
Y401756D01*
X501758Y401828D01*
X502486Y402314D01*
X502972Y403042D01*
X503044Y403400D01*
D02*
G37*
G36*
X508600Y403944D02*
X508242Y403872D01*
X507514Y403386D01*
X507028Y402658D01*
X506956Y402300D01*
X508600D01*
Y403944D01*
D02*
G37*
G36*
X500400Y403400D02*
X498756D01*
X498828Y403042D01*
X499314Y402314D01*
X500042Y401828D01*
X500400Y401756D01*
Y403400D01*
D02*
G37*
G36*
X519550Y402700D02*
X517906D01*
X517978Y402342D01*
X518464Y401614D01*
X519192Y401128D01*
X519550Y401056D01*
Y402700D01*
D02*
G37*
G36*
X522194D02*
X520550D01*
Y401056D01*
X520908Y401128D01*
X521636Y401614D01*
X522122Y402342D01*
X522194Y402700D01*
D02*
G37*
G36*
X415500Y325186D02*
X414675Y325078D01*
X413907Y324759D01*
X413247Y324253D01*
X412741Y323593D01*
X412422Y322825D01*
X412314Y322000D01*
X412422Y321175D01*
X412741Y320407D01*
X413247Y319747D01*
X413907Y319241D01*
X414675Y318922D01*
X415500Y318814D01*
X416325Y318922D01*
X417093Y319241D01*
X417753Y319747D01*
X418259Y320407D01*
X418578Y321175D01*
X418686Y322000D01*
X418578Y322825D01*
X418259Y323593D01*
X417753Y324253D01*
X417093Y324759D01*
X416325Y325078D01*
X415500Y325186D01*
D02*
G37*
G36*
X435679Y327900D02*
X432109D01*
Y324330D01*
X432680Y324406D01*
X433677Y324819D01*
X434534Y325476D01*
X435191Y326332D01*
X435604Y327330D01*
X435679Y327900D01*
D02*
G37*
G36*
X629400Y308744D02*
Y307100D01*
X631044D01*
X630972Y307458D01*
X630486Y308186D01*
X629758Y308672D01*
X629400Y308744D01*
D02*
G37*
G36*
X631044Y306100D02*
X629400D01*
Y304456D01*
X629758Y304528D01*
X630486Y305014D01*
X630972Y305742D01*
X631044Y306100D01*
D02*
G37*
G36*
X628400Y308744D02*
X628042Y308672D01*
X627314Y308186D01*
X626828Y307458D01*
X626756Y307100D01*
X628400D01*
Y308744D01*
D02*
G37*
G36*
X540200Y329900D02*
X538556D01*
X538628Y329542D01*
X539114Y328814D01*
X539842Y328328D01*
X540200Y328256D01*
Y329900D01*
D02*
G37*
G36*
X456700Y327900D02*
X453130D01*
X453205Y327330D01*
X453619Y326332D01*
X454276Y325476D01*
X455132Y324819D01*
X456130Y324406D01*
X456700Y324330D01*
Y327900D01*
D02*
G37*
G36*
X461270D02*
X457700D01*
Y324330D01*
X458270Y324406D01*
X459268Y324819D01*
X460124Y325476D01*
X460781Y326332D01*
X461195Y327330D01*
X461270Y327900D01*
D02*
G37*
G36*
X367784Y281428D02*
X364672Y278317D01*
X364975Y278085D01*
X365793Y277746D01*
X366670Y277631D01*
X367548Y277746D01*
X368366Y278085D01*
X369068Y278624D01*
X369828Y279384D01*
X367784Y281428D01*
D02*
G37*
G36*
X365032Y284180D02*
X364272Y283420D01*
X363734Y282718D01*
X363395Y281900D01*
X363279Y281022D01*
X363395Y280144D01*
X363734Y279326D01*
X363965Y279024D01*
X367077Y282136D01*
X365032Y284180D01*
D02*
G37*
G36*
X663751Y279289D02*
X662873Y279173D01*
X662055Y278834D01*
X661753Y278602D01*
X664864Y275491D01*
X666909Y277535D01*
X666149Y278295D01*
X665447Y278834D01*
X664629Y279173D01*
X663751Y279289D01*
D02*
G37*
G36*
X667616Y276828D02*
X665572Y274784D01*
X668683Y271673D01*
X668915Y271975D01*
X669254Y272793D01*
X669369Y273670D01*
X669254Y274548D01*
X668915Y275366D01*
X668376Y276068D01*
X667616Y276828D01*
D02*
G37*
G36*
X661046Y277895D02*
X660814Y277593D01*
X660475Y276775D01*
X660360Y275897D01*
X660475Y275020D01*
X660814Y274202D01*
X661353Y273499D01*
X662113Y272740D01*
X664157Y274784D01*
X661046Y277895D01*
D02*
G37*
G36*
X664466Y293632D02*
X663541Y293447D01*
X662756Y292923D01*
X662232Y292139D01*
X662048Y291213D01*
X662232Y290288D01*
X662756Y289504D01*
X663541Y288979D01*
X664466Y288795D01*
X665391Y288979D01*
X666176Y289504D01*
X666700Y290288D01*
X666884Y291213D01*
X666700Y292139D01*
X666176Y292923D01*
X665391Y293447D01*
X664466Y293632D01*
D02*
G37*
G36*
X628400Y306100D02*
X626756D01*
X626828Y305742D01*
X627314Y305014D01*
X628042Y304528D01*
X628400Y304456D01*
Y306100D01*
D02*
G37*
G36*
X368897Y286640D02*
X368020Y286525D01*
X367202Y286186D01*
X366499Y285647D01*
X365739Y284887D01*
X367784Y282843D01*
X370895Y285954D01*
X370593Y286186D01*
X369775Y286525D01*
X368897Y286640D01*
D02*
G37*
G36*
X371602Y285247D02*
X368491Y282136D01*
X370535Y280091D01*
X371295Y280851D01*
X371834Y281554D01*
X372173Y282371D01*
X372289Y283249D01*
X372173Y284127D01*
X371834Y284945D01*
X371602Y285247D01*
D02*
G37*
G36*
X382966Y284952D02*
X382041Y284768D01*
X381256Y284244D01*
X380732Y283459D01*
X380548Y282534D01*
X380732Y281609D01*
X381256Y280824D01*
X382041Y280300D01*
X382966Y280116D01*
X383891Y280300D01*
X384676Y280824D01*
X385200Y281609D01*
X385384Y282534D01*
X385200Y283459D01*
X384676Y284244D01*
X383891Y284768D01*
X382966Y284952D01*
D02*
G37*
G36*
X676800Y269344D02*
X676442Y269272D01*
X675714Y268786D01*
X675228Y268058D01*
X675156Y267700D01*
X676800D01*
Y269344D01*
D02*
G37*
G36*
X431609Y352132D02*
X430644Y352005D01*
X429743Y351632D01*
X428971Y351039D01*
X428377Y350266D01*
X428005Y349366D01*
X427878Y348400D01*
X428005Y347434D01*
X428377Y346534D01*
X428971Y345761D01*
X429743Y345168D01*
X430644Y344795D01*
X431609Y344668D01*
X432575Y344795D01*
X433475Y345168D01*
X434248Y345761D01*
X434841Y346534D01*
X435214Y347434D01*
X435341Y348400D01*
X435214Y349366D01*
X434841Y350266D01*
X434248Y351039D01*
X433475Y351632D01*
X432575Y352005D01*
X431609Y352132D01*
D02*
G37*
G36*
X441200Y364486D02*
X440375Y364378D01*
X439607Y364059D01*
X438947Y363553D01*
X438441Y362893D01*
X438122Y362125D01*
X438014Y361300D01*
X438122Y360475D01*
X438441Y359707D01*
X438947Y359047D01*
X439607Y358541D01*
X440375Y358222D01*
X441200Y358114D01*
X442025Y358222D01*
X442793Y358541D01*
X443453Y359047D01*
X443959Y359707D01*
X444278Y360475D01*
X444386Y361300D01*
X444278Y362125D01*
X443959Y362893D01*
X443453Y363553D01*
X442793Y364059D01*
X442025Y364378D01*
X441200Y364486D01*
D02*
G37*
G36*
X698041Y265159D02*
X697785Y265139D01*
X697138D01*
X697096Y265122D01*
X697053Y265133D01*
X696069Y265004D01*
X695780Y264981D01*
X695639Y264947D01*
X695262Y264898D01*
X695223Y264875D01*
X695179Y264881D01*
X693587Y264455D01*
X693576Y264452D01*
X693574Y264451D01*
X693434Y264414D01*
X693398Y264386D01*
X693353D01*
X691685Y263695D01*
X691653Y263663D01*
X691608Y263657D01*
X691483Y263585D01*
X691481Y263584D01*
X691471Y263578D01*
X690044Y262754D01*
X690017Y262719D01*
X689973Y262707D01*
X689671Y262475D01*
X689548Y262400D01*
X689328Y262212D01*
X688540Y261608D01*
X688518Y261569D01*
X688477Y261551D01*
X688019Y261094D01*
X687824Y260927D01*
X687657Y260732D01*
X687199Y260274D01*
X687182Y260233D01*
X687143Y260210D01*
X686539Y259423D01*
X686351Y259203D01*
X686275Y259079D01*
X686044Y258777D01*
X686032Y258734D01*
X685996Y258707D01*
X685173Y257279D01*
X685167Y257270D01*
X685166Y257268D01*
X685093Y257142D01*
X685087Y257098D01*
X685056Y257066D01*
X684365Y255397D01*
Y255352D01*
X684337Y255317D01*
X684300Y255177D01*
X684299Y255175D01*
X684296Y255164D01*
X683870Y253572D01*
X683876Y253528D01*
X683853Y253489D01*
X683803Y253111D01*
X683770Y252970D01*
X683747Y252682D01*
X683617Y251698D01*
X683629Y251655D01*
X683612Y251613D01*
Y250965D01*
X683592Y250710D01*
X683612Y250455D01*
Y249807D01*
X683629Y249765D01*
X683617Y249722D01*
X683747Y248738D01*
X683770Y248450D01*
X683803Y248309D01*
X683853Y247931D01*
X683876Y247892D01*
X683870Y247848D01*
X684296Y246256D01*
X684299Y246245D01*
X684300Y246243D01*
X684337Y246103D01*
X684365Y246068D01*
Y246023D01*
X685056Y244354D01*
X685087Y244322D01*
X685093Y244278D01*
X685166Y244152D01*
X685167Y244150D01*
X685172Y244141D01*
X685996Y242713D01*
X686032Y242686D01*
X686044Y242643D01*
X686275Y242341D01*
X686351Y242217D01*
X686539Y241997D01*
X687143Y241210D01*
X687182Y241187D01*
X687199Y241146D01*
X687657Y240688D01*
X687824Y240493D01*
X688019Y240326D01*
X688477Y239869D01*
X688518Y239851D01*
X688540Y239813D01*
X689328Y239208D01*
X689548Y239020D01*
X689671Y238945D01*
X689973Y238713D01*
X690017Y238701D01*
X690044Y238666D01*
X691471Y237842D01*
X691481Y237836D01*
X691483Y237835D01*
X691608Y237763D01*
X691653Y237757D01*
X691685Y237725D01*
X693353Y237034D01*
X693398D01*
X693434Y237006D01*
X693574Y236969D01*
X693576Y236968D01*
X693587Y236965D01*
X695179Y236539D01*
X695223Y236545D01*
X695262Y236522D01*
X695640Y236473D01*
X695780Y236439D01*
X696069Y236416D01*
X697053Y236287D01*
X697096Y236298D01*
X697138Y236281D01*
X697785D01*
X698041Y236261D01*
X698296Y236281D01*
X698944D01*
X698985Y236298D01*
X699029Y236287D01*
X700012Y236416D01*
X700301Y236439D01*
X700442Y236473D01*
X700819Y236522D01*
X700858Y236545D01*
X700903Y236539D01*
X702495Y236965D01*
X702506Y236968D01*
X702508Y236969D01*
X702648Y237006D01*
X702683Y237034D01*
X702728D01*
X704397Y237725D01*
X704429Y237757D01*
X704473Y237763D01*
X704598Y237835D01*
X704600Y237836D01*
X704610Y237842D01*
X706037Y238666D01*
X706065Y238701D01*
X706108Y238713D01*
X706410Y238945D01*
X706534Y239020D01*
X706754Y239209D01*
X707541Y239813D01*
X707563Y239851D01*
X707605Y239869D01*
X708063Y240326D01*
X708258Y240493D01*
X708424Y240688D01*
X708882Y241146D01*
X708899Y241187D01*
X708938Y241210D01*
X709542Y241997D01*
X709730Y242217D01*
X709806Y242341D01*
X710038Y242643D01*
X710049Y242686D01*
X710085Y242713D01*
X710909Y244140D01*
X710915Y244150D01*
X710916Y244152D01*
X710988Y244278D01*
X710994Y244322D01*
X711026Y244354D01*
X711717Y246023D01*
Y246068D01*
X711744Y246103D01*
X711782Y246243D01*
X711783Y246245D01*
X711785Y246256D01*
X712212Y247848D01*
X712206Y247892D01*
X712228Y247931D01*
X712278Y248309D01*
X712312Y248450D01*
X712335Y248738D01*
X712464Y249722D01*
X712453Y249765D01*
X712470Y249807D01*
Y250455D01*
X712490Y250710D01*
X712470Y250965D01*
Y251613D01*
X712453Y251655D01*
X712464Y251698D01*
X712335Y252682D01*
X712312Y252970D01*
X712278Y253111D01*
X712228Y253489D01*
X712206Y253528D01*
X712212Y253572D01*
X711785Y255164D01*
X711783Y255175D01*
X711782Y255177D01*
X711744Y255317D01*
X711717Y255352D01*
Y255397D01*
X711026Y257066D01*
X710994Y257098D01*
X710988Y257142D01*
X710916Y257268D01*
X710915Y257270D01*
X710909Y257280D01*
X710085Y258707D01*
X710049Y258734D01*
X710038Y258777D01*
X709806Y259079D01*
X709730Y259203D01*
X709542Y259423D01*
X708938Y260210D01*
X708899Y260233D01*
X708882Y260274D01*
X708424Y260732D01*
X708258Y260927D01*
X708063Y261094D01*
X707605Y261551D01*
X707563Y261569D01*
X707541Y261608D01*
X706754Y262211D01*
X706534Y262400D01*
X706410Y262475D01*
X706108Y262707D01*
X706065Y262719D01*
X706037Y262754D01*
X704610Y263578D01*
X704600Y263584D01*
X704598Y263585D01*
X704473Y263657D01*
X704429Y263663D01*
X704397Y263695D01*
X702728Y264386D01*
X702683D01*
X702648Y264414D01*
X702508Y264451D01*
X702506Y264452D01*
X702494Y264455D01*
X700903Y264881D01*
X700858Y264875D01*
X700819Y264898D01*
X700442Y264947D01*
X700301Y264981D01*
X700012Y265004D01*
X699029Y265133D01*
X698985Y265122D01*
X698944Y265139D01*
X698296D01*
X698041Y265159D01*
D02*
G37*
G36*
X457700Y332470D02*
Y328900D01*
X461270D01*
X461195Y329470D01*
X460781Y330468D01*
X460124Y331324D01*
X459268Y331981D01*
X458270Y332395D01*
X457700Y332470D01*
D02*
G37*
G36*
X432109Y332470D02*
Y328900D01*
X435679D01*
X435604Y329470D01*
X435191Y330468D01*
X434534Y331324D01*
X433677Y331981D01*
X432680Y332395D01*
X432109Y332470D01*
D02*
G37*
G36*
X542844Y329900D02*
X541200D01*
Y328256D01*
X541558Y328328D01*
X542286Y328814D01*
X542772Y329542D01*
X542844Y329900D01*
D02*
G37*
G36*
X456700Y332470D02*
X456130Y332395D01*
X455132Y331981D01*
X454276Y331324D01*
X453619Y330468D01*
X453205Y329470D01*
X453130Y328900D01*
X456700D01*
Y332470D01*
D02*
G37*
G36*
X664864Y274077D02*
X662820Y272032D01*
X663580Y271272D01*
X664282Y270733D01*
X665100Y270395D01*
X665978Y270279D01*
X666856Y270395D01*
X667674Y270733D01*
X667976Y270965D01*
X664864Y274077D01*
D02*
G37*
G36*
X471900Y409044D02*
X471542Y408972D01*
X470814Y408486D01*
X470328Y407758D01*
X470256Y407400D01*
X471900D01*
Y409044D01*
D02*
G37*
G36*
X450537Y532037D02*
X441463D01*
Y522963D01*
X450537D01*
Y532037D01*
D02*
G37*
G36*
X457311Y532414D02*
X456522Y532310D01*
X455321Y531812D01*
X454290Y531021D01*
X453499Y529990D01*
X453001Y528789D01*
X452897Y528000D01*
X457311D01*
Y532414D01*
D02*
G37*
G36*
X462725Y527000D02*
X458311D01*
Y522586D01*
X459100Y522690D01*
X460301Y523187D01*
X461332Y523979D01*
X462123Y525010D01*
X462621Y526211D01*
X462725Y527000D01*
D02*
G37*
G36*
X406424Y523535D02*
X405748Y523506D01*
X405103Y523303D01*
X402690Y522177D01*
X402119Y521814D01*
X401662Y521315D01*
X401350Y520715D01*
X401204Y520055D01*
X401233Y519379D01*
X401437Y518734D01*
X401800Y518164D01*
X402298Y517707D01*
X402898Y517395D01*
X403559Y517248D01*
X404234Y517278D01*
X404879Y517481D01*
X407293Y518607D01*
X407863Y518970D01*
X408320Y519469D01*
X408632Y520069D01*
X408779Y520729D01*
X408749Y521405D01*
X408546Y522050D01*
X408182Y522620D01*
X407684Y523077D01*
X407084Y523389D01*
X406424Y523535D01*
D02*
G37*
G36*
X457311Y527000D02*
X452897D01*
X453001Y526211D01*
X453499Y525010D01*
X454290Y523979D01*
X455321Y523187D01*
X456522Y522690D01*
X457311Y522586D01*
Y527000D01*
D02*
G37*
G36*
X476144Y532600D02*
X474500D01*
Y530956D01*
X474858Y531028D01*
X475586Y531514D01*
X476072Y532242D01*
X476144Y532600D01*
D02*
G37*
G36*
X473500Y535244D02*
X473142Y535172D01*
X472414Y534686D01*
X471928Y533958D01*
X471856Y533600D01*
X473500D01*
Y535244D01*
D02*
G37*
G36*
Y532600D02*
X471856D01*
X471928Y532242D01*
X472414Y531514D01*
X473142Y531028D01*
X473500Y530956D01*
Y532600D01*
D02*
G37*
G36*
X458311Y532414D02*
Y528000D01*
X462725D01*
X462621Y528789D01*
X462123Y529990D01*
X461332Y531021D01*
X460301Y531812D01*
X459100Y532310D01*
X458311Y532414D01*
D02*
G37*
G36*
X625500Y535186D02*
X624675Y535078D01*
X623907Y534759D01*
X623247Y534253D01*
X622741Y533593D01*
X622422Y532825D01*
X622314Y532000D01*
X622422Y531175D01*
X622741Y530407D01*
X623247Y529747D01*
X623907Y529241D01*
X624675Y528922D01*
X625500Y528814D01*
X626325Y528922D01*
X627093Y529241D01*
X627753Y529747D01*
X628259Y530407D01*
X628578Y531175D01*
X628686Y532000D01*
X628578Y532825D01*
X628259Y533593D01*
X627753Y534253D01*
X627093Y534759D01*
X626325Y535078D01*
X625500Y535186D01*
D02*
G37*
G36*
X581544Y466900D02*
X579900D01*
Y465256D01*
X580258Y465328D01*
X580986Y465814D01*
X581472Y466542D01*
X581544Y466900D01*
D02*
G37*
G36*
X578900Y469544D02*
X578542Y469472D01*
X577814Y468986D01*
X577328Y468258D01*
X577256Y467900D01*
X578900D01*
Y469544D01*
D02*
G37*
G36*
Y466900D02*
X577256D01*
X577328Y466542D01*
X577814Y465814D01*
X578542Y465328D01*
X578900Y465256D01*
Y466900D01*
D02*
G37*
G36*
X514753Y464000D02*
X513109D01*
X513180Y463642D01*
X513667Y462914D01*
X514394Y462428D01*
X514753Y462356D01*
Y464000D01*
D02*
G37*
G36*
X517396D02*
X515753D01*
Y462356D01*
X516111Y462428D01*
X516839Y462914D01*
X517325Y463642D01*
X517396Y464000D01*
D02*
G37*
G36*
X419313Y495893D02*
X418638Y495864D01*
X417993Y495660D01*
X415579Y494535D01*
X415009Y494171D01*
X414552Y493673D01*
X414240Y493073D01*
X414093Y492413D01*
X414123Y491737D01*
X414326Y491092D01*
X414690Y490522D01*
X415188Y490065D01*
X415788Y489752D01*
X416448Y489606D01*
X417124Y489636D01*
X417769Y489839D01*
X420183Y490964D01*
X420753Y491328D01*
X421210Y491826D01*
X421522Y492426D01*
X421668Y493086D01*
X421639Y493762D01*
X421436Y494407D01*
X421072Y494978D01*
X420574Y495434D01*
X419974Y495747D01*
X419313Y495893D01*
D02*
G37*
G36*
X438000Y500335D02*
X437298Y500196D01*
X436702Y499798D01*
X436304Y499202D01*
X436165Y498500D01*
X436254Y498052D01*
X428965Y490763D01*
X428600Y490835D01*
X427898Y490696D01*
X427302Y490298D01*
X426904Y489702D01*
X426765Y489000D01*
X426904Y488298D01*
X427302Y487702D01*
X427898Y487304D01*
X428600Y487165D01*
X429302Y487304D01*
X429898Y487702D01*
X430296Y488298D01*
X430435Y489000D01*
X430330Y489532D01*
X437552Y496754D01*
X438000Y496665D01*
X438702Y496804D01*
X439298Y497202D01*
X439696Y497798D01*
X439835Y498500D01*
X439696Y499202D01*
X439298Y499798D01*
X438702Y500196D01*
X438000Y500335D01*
D02*
G37*
G36*
X511216Y490782D02*
X510238Y490653D01*
X509326Y490275D01*
X508542Y489674D01*
X507941Y488891D01*
X507563Y487979D01*
X507435Y487000D01*
X507563Y486021D01*
X507941Y485109D01*
X508542Y484326D01*
X509326Y483725D01*
X510238Y483347D01*
X511216Y483218D01*
X512195Y483347D01*
X513107Y483725D01*
X513891Y484326D01*
X514492Y485109D01*
X514870Y486021D01*
X514998Y487000D01*
X514870Y487979D01*
X514492Y488891D01*
X513891Y489674D01*
X513107Y490275D01*
X512195Y490653D01*
X511216Y490782D01*
D02*
G37*
G36*
X579900Y469544D02*
Y467900D01*
X581544D01*
X581472Y468258D01*
X580986Y468986D01*
X580258Y469472D01*
X579900Y469544D01*
D02*
G37*
G36*
X475783Y490782D02*
X474805Y490653D01*
X473892Y490275D01*
X473109Y489674D01*
X472508Y488891D01*
X472130Y487979D01*
X472002Y487000D01*
X472130Y486021D01*
X472508Y485109D01*
X473109Y484326D01*
X473892Y483725D01*
X474805Y483347D01*
X475783Y483218D01*
X476762Y483347D01*
X477674Y483725D01*
X478458Y484326D01*
X479059Y485109D01*
X479436Y486021D01*
X479565Y487000D01*
X479436Y487979D01*
X479059Y488891D01*
X478458Y489674D01*
X477674Y490275D01*
X476762Y490653D01*
X475783Y490782D01*
D02*
G37*
G36*
X474500Y535244D02*
Y533600D01*
X476144D01*
X476072Y533958D01*
X475586Y534686D01*
X474858Y535172D01*
X474500Y535244D01*
D02*
G37*
G36*
X378387Y584261D02*
X376343Y582216D01*
X379454Y579105D01*
X379686Y579407D01*
X380025Y580225D01*
X380140Y581103D01*
X380025Y581980D01*
X379686Y582798D01*
X379147Y583500D01*
X378387Y584261D01*
D02*
G37*
G36*
X371817Y585327D02*
X371585Y585025D01*
X371246Y584207D01*
X371131Y583330D01*
X371246Y582452D01*
X371585Y581634D01*
X372124Y580932D01*
X372884Y580172D01*
X374928Y582216D01*
X371817Y585327D01*
D02*
G37*
G36*
X375636Y581509D02*
X373591Y579465D01*
X374351Y578705D01*
X375054Y578166D01*
X375871Y577827D01*
X376749Y577711D01*
X377627Y577827D01*
X378445Y578166D01*
X378747Y578398D01*
X375636Y581509D01*
D02*
G37*
G36*
X678535Y576476D02*
X675423Y573364D01*
X677468Y571320D01*
X678228Y572080D01*
X678766Y572782D01*
X679105Y573600D01*
X679221Y574478D01*
X679105Y575356D01*
X678766Y576174D01*
X678535Y576476D01*
D02*
G37*
G36*
X675830Y577869D02*
X674952Y577754D01*
X674134Y577415D01*
X673432Y576876D01*
X672672Y576116D01*
X674716Y574072D01*
X677828Y577183D01*
X677525Y577415D01*
X676707Y577754D01*
X675830Y577869D01*
D02*
G37*
G36*
X343710Y619490D02*
X343455Y619470D01*
X342807D01*
X342765Y619452D01*
X342722Y619464D01*
X341738Y619335D01*
X341450Y619312D01*
X341309Y619278D01*
X340931Y619228D01*
X340892Y619206D01*
X340848Y619212D01*
X339256Y618785D01*
X339245Y618783D01*
X339243Y618782D01*
X339103Y618744D01*
X339068Y618717D01*
X339023D01*
X337354Y618026D01*
X337322Y617994D01*
X337278Y617988D01*
X337152Y617916D01*
X337150Y617915D01*
X337140Y617909D01*
X335713Y617085D01*
X335686Y617049D01*
X335643Y617038D01*
X335341Y616806D01*
X335217Y616730D01*
X334997Y616542D01*
X334210Y615938D01*
X334187Y615899D01*
X334146Y615882D01*
X333688Y615424D01*
X333493Y615258D01*
X333327Y615063D01*
X332869Y614605D01*
X332851Y614564D01*
X332813Y614541D01*
X332208Y613754D01*
X332020Y613534D01*
X331945Y613410D01*
X331713Y613108D01*
X331701Y613065D01*
X331666Y613037D01*
X330842Y611610D01*
X330836Y611600D01*
X330835Y611598D01*
X330763Y611473D01*
X330757Y611429D01*
X330725Y611397D01*
X330034Y609728D01*
Y609683D01*
X330007Y609648D01*
X329969Y609508D01*
X329968Y609506D01*
X329965Y609495D01*
X329539Y607903D01*
X329545Y607858D01*
X329522Y607820D01*
X329473Y607442D01*
X329439Y607301D01*
X329416Y607012D01*
X329287Y606029D01*
X329298Y605985D01*
X329281Y605944D01*
Y605296D01*
X329261Y605041D01*
X329281Y604785D01*
Y604138D01*
X329298Y604096D01*
X329287Y604053D01*
X329416Y603069D01*
X329439Y602780D01*
X329473Y602639D01*
X329522Y602262D01*
X329545Y602223D01*
X329539Y602179D01*
X329965Y600587D01*
X329968Y600576D01*
X329969Y600574D01*
X330007Y600434D01*
X330034Y600398D01*
Y600353D01*
X330725Y598685D01*
X330757Y598653D01*
X330763Y598608D01*
X330835Y598483D01*
X330836Y598481D01*
X330842Y598471D01*
X331666Y597044D01*
X331701Y597017D01*
X331713Y596974D01*
X331945Y596671D01*
X332020Y596548D01*
X332208Y596328D01*
X332813Y595540D01*
X332851Y595518D01*
X332869Y595477D01*
X333327Y595019D01*
X333493Y594824D01*
X333688Y594657D01*
X334146Y594199D01*
X334187Y594182D01*
X334210Y594143D01*
X334997Y593539D01*
X335217Y593351D01*
X335341Y593275D01*
X335643Y593044D01*
X335686Y593032D01*
X335713Y592997D01*
X337141Y592172D01*
X337150Y592167D01*
X337152Y592166D01*
X337278Y592093D01*
X337322Y592087D01*
X337354Y592056D01*
X339023Y591364D01*
X339068D01*
X339103Y591337D01*
X339243Y591300D01*
X339245Y591299D01*
X339256Y591296D01*
X340848Y590870D01*
X340892Y590875D01*
X340931Y590853D01*
X341309Y590803D01*
X341450Y590770D01*
X341738Y590747D01*
X342722Y590617D01*
X342765Y590629D01*
X342807Y590612D01*
X343455D01*
X343710Y590592D01*
X343965Y590612D01*
X344613D01*
X344655Y590629D01*
X344698Y590617D01*
X345682Y590747D01*
X345970Y590770D01*
X346111Y590803D01*
X346489Y590853D01*
X346528Y590875D01*
X346572Y590870D01*
X348164Y591296D01*
X348175Y591299D01*
X348177Y591300D01*
X348317Y591337D01*
X348353Y591364D01*
X348397D01*
X350066Y592056D01*
X350098Y592088D01*
X350142Y592093D01*
X350268Y592166D01*
X350270Y592167D01*
X350279Y592172D01*
X351707Y592997D01*
X351734Y593032D01*
X351777Y593044D01*
X352079Y593275D01*
X352203Y593351D01*
X352423Y593539D01*
X353210Y594143D01*
X353233Y594182D01*
X353274Y594199D01*
X353732Y594657D01*
X353927Y594824D01*
X354094Y595019D01*
X354552Y595477D01*
X354569Y595518D01*
X354608Y595540D01*
X355212Y596328D01*
X355400Y596548D01*
X355475Y596671D01*
X355707Y596974D01*
X355719Y597017D01*
X355754Y597044D01*
X356578Y598471D01*
X356584Y598481D01*
X356585Y598483D01*
X356658Y598608D01*
X356663Y598653D01*
X356695Y598685D01*
X357386Y600353D01*
Y600398D01*
X357414Y600434D01*
X357451Y600574D01*
X357452Y600576D01*
X357455Y600587D01*
X357881Y602179D01*
X357875Y602223D01*
X357898Y602262D01*
X357947Y602639D01*
X357981Y602780D01*
X358004Y603069D01*
X358133Y604053D01*
X358122Y604096D01*
X358139Y604138D01*
Y604785D01*
X358159Y605041D01*
X358139Y605296D01*
Y605944D01*
X358122Y605985D01*
X358133Y606029D01*
X358004Y607012D01*
X357981Y607301D01*
X357947Y607442D01*
X357898Y607820D01*
X357875Y607858D01*
X357881Y607903D01*
X357455Y609494D01*
X357452Y609506D01*
X357451Y609508D01*
X357414Y609648D01*
X357386Y609683D01*
Y609728D01*
X356695Y611397D01*
X356663Y611429D01*
X356658Y611473D01*
X356585Y611598D01*
X356584Y611600D01*
X356578Y611611D01*
X355754Y613037D01*
X355719Y613065D01*
X355707Y613108D01*
X355475Y613410D01*
X355400Y613534D01*
X355211Y613754D01*
X354608Y614541D01*
X354569Y614564D01*
X354552Y614605D01*
X354094Y615063D01*
X353927Y615258D01*
X353732Y615424D01*
X353274Y615882D01*
X353233Y615899D01*
X353210Y615938D01*
X352423Y616542D01*
X352203Y616730D01*
X352079Y616806D01*
X351777Y617038D01*
X351734Y617049D01*
X351707Y617085D01*
X350280Y617909D01*
X350270Y617915D01*
X350268Y617916D01*
X350142Y617988D01*
X350098Y617994D01*
X350066Y618026D01*
X348397Y618717D01*
X348353D01*
X348317Y618744D01*
X348177Y618782D01*
X348175Y618783D01*
X348164Y618785D01*
X346572Y619212D01*
X346528Y619206D01*
X346489Y619228D01*
X346111Y619278D01*
X345970Y619312D01*
X345682Y619335D01*
X344698Y619464D01*
X344655Y619452D01*
X344613Y619470D01*
X343965D01*
X343710Y619490D01*
D02*
G37*
G36*
X698041D02*
X697785Y619470D01*
X697138D01*
X697096Y619452D01*
X697053Y619464D01*
X696069Y619335D01*
X695780Y619312D01*
X695639Y619278D01*
X695262Y619228D01*
X695223Y619206D01*
X695179Y619212D01*
X693587Y618785D01*
X693576Y618783D01*
X693574Y618782D01*
X693434Y618744D01*
X693398Y618717D01*
X693353D01*
X691685Y618026D01*
X691653Y617994D01*
X691608Y617988D01*
X691483Y617916D01*
X691481Y617915D01*
X691471Y617909D01*
X690044Y617085D01*
X690017Y617049D01*
X689973Y617038D01*
X689671Y616806D01*
X689548Y616730D01*
X689328Y616542D01*
X688540Y615938D01*
X688518Y615899D01*
X688477Y615882D01*
X688019Y615424D01*
X687824Y615258D01*
X687657Y615063D01*
X687199Y614605D01*
X687182Y614564D01*
X687143Y614541D01*
X686539Y613754D01*
X686351Y613534D01*
X686275Y613410D01*
X686044Y613108D01*
X686032Y613065D01*
X685996Y613037D01*
X685173Y611610D01*
X685167Y611600D01*
X685166Y611598D01*
X685093Y611473D01*
X685087Y611429D01*
X685056Y611397D01*
X684365Y609728D01*
Y609683D01*
X684337Y609648D01*
X684300Y609508D01*
X684299Y609506D01*
X684296Y609495D01*
X683870Y607903D01*
X683876Y607858D01*
X683853Y607820D01*
X683803Y607442D01*
X683770Y607301D01*
X683747Y607012D01*
X683617Y606029D01*
X683629Y605985D01*
X683612Y605944D01*
Y605296D01*
X683592Y605041D01*
X683612Y604785D01*
Y604138D01*
X683629Y604096D01*
X683617Y604053D01*
X683747Y603069D01*
X683770Y602780D01*
X683803Y602639D01*
X683853Y602262D01*
X683876Y602223D01*
X683870Y602179D01*
X684296Y600587D01*
X684299Y600576D01*
X684300Y600574D01*
X684337Y600434D01*
X684365Y600398D01*
Y600353D01*
X685056Y598685D01*
X685087Y598653D01*
X685093Y598608D01*
X685166Y598483D01*
X685167Y598481D01*
X685172Y598471D01*
X685996Y597044D01*
X686032Y597017D01*
X686044Y596974D01*
X686275Y596671D01*
X686351Y596548D01*
X686539Y596328D01*
X687143Y595540D01*
X687182Y595518D01*
X687199Y595477D01*
X687657Y595019D01*
X687824Y594824D01*
X688019Y594657D01*
X688477Y594199D01*
X688518Y594182D01*
X688540Y594143D01*
X689328Y593539D01*
X689548Y593351D01*
X689671Y593275D01*
X689973Y593044D01*
X690017Y593032D01*
X690044Y592997D01*
X691471Y592172D01*
X691481Y592167D01*
X691483Y592166D01*
X691608Y592093D01*
X691653Y592087D01*
X691685Y592056D01*
X693353Y591364D01*
X693398D01*
X693434Y591337D01*
X693574Y591300D01*
X693576Y591299D01*
X693587Y591296D01*
X695179Y590870D01*
X695223Y590875D01*
X695262Y590853D01*
X695640Y590803D01*
X695780Y590770D01*
X696069Y590747D01*
X697053Y590617D01*
X697096Y590629D01*
X697138Y590612D01*
X697785D01*
X698041Y590592D01*
X698296Y590612D01*
X698944D01*
X698985Y590629D01*
X699029Y590617D01*
X700012Y590747D01*
X700301Y590770D01*
X700442Y590803D01*
X700819Y590853D01*
X700858Y590875D01*
X700903Y590870D01*
X702495Y591296D01*
X702506Y591299D01*
X702508Y591300D01*
X702648Y591337D01*
X702683Y591364D01*
X702728D01*
X704397Y592056D01*
X704429Y592088D01*
X704473Y592093D01*
X704598Y592166D01*
X704600Y592167D01*
X704610Y592172D01*
X706037Y592997D01*
X706065Y593032D01*
X706108Y593044D01*
X706410Y593275D01*
X706534Y593351D01*
X706754Y593539D01*
X707541Y594143D01*
X707563Y594182D01*
X707605Y594199D01*
X708063Y594657D01*
X708258Y594824D01*
X708424Y595019D01*
X708882Y595477D01*
X708899Y595518D01*
X708938Y595540D01*
X709542Y596328D01*
X709730Y596548D01*
X709806Y596671D01*
X710038Y596974D01*
X710049Y597017D01*
X710085Y597044D01*
X710909Y598471D01*
X710915Y598481D01*
X710916Y598483D01*
X710988Y598608D01*
X710994Y598653D01*
X711026Y598685D01*
X711717Y600353D01*
Y600398D01*
X711744Y600434D01*
X711782Y600574D01*
X711783Y600576D01*
X711785Y600587D01*
X712212Y602179D01*
X712206Y602223D01*
X712228Y602262D01*
X712278Y602639D01*
X712312Y602780D01*
X712335Y603069D01*
X712464Y604053D01*
X712453Y604096D01*
X712470Y604138D01*
Y604785D01*
X712490Y605041D01*
X712470Y605296D01*
Y605944D01*
X712453Y605985D01*
X712464Y606029D01*
X712335Y607012D01*
X712312Y607301D01*
X712278Y607442D01*
X712228Y607820D01*
X712206Y607858D01*
X712212Y607903D01*
X711785Y609494D01*
X711783Y609506D01*
X711782Y609508D01*
X711744Y609648D01*
X711717Y609683D01*
Y609728D01*
X711026Y611397D01*
X710994Y611429D01*
X710988Y611473D01*
X710916Y611598D01*
X710915Y611600D01*
X710909Y611611D01*
X710085Y613037D01*
X710049Y613065D01*
X710038Y613108D01*
X709806Y613410D01*
X709730Y613534D01*
X709542Y613754D01*
X708938Y614541D01*
X708899Y614564D01*
X708882Y614605D01*
X708424Y615063D01*
X708258Y615258D01*
X708063Y615424D01*
X707605Y615882D01*
X707563Y615899D01*
X707541Y615938D01*
X706754Y616542D01*
X706534Y616730D01*
X706410Y616806D01*
X706108Y617038D01*
X706065Y617049D01*
X706037Y617085D01*
X704610Y617909D01*
X704600Y617915D01*
X704598Y617916D01*
X704473Y617988D01*
X704429Y617994D01*
X704397Y618026D01*
X702728Y618717D01*
X702683D01*
X702648Y618744D01*
X702508Y618782D01*
X702506Y618783D01*
X702494Y618785D01*
X700903Y619212D01*
X700858Y619206D01*
X700819Y619228D01*
X700442Y619278D01*
X700301Y619312D01*
X700012Y619335D01*
X699029Y619464D01*
X698985Y619452D01*
X698944Y619470D01*
X698296D01*
X698041Y619490D01*
D02*
G37*
G36*
X681397Y599737D02*
X680624Y599635D01*
X679904Y599337D01*
X679285Y598862D01*
X677058Y596635D01*
X676583Y596016D01*
X676284Y595295D01*
X676183Y594522D01*
X676284Y593749D01*
X676583Y593028D01*
X677058Y592409D01*
X677676Y591934D01*
X678397Y591636D01*
X678652Y591602D01*
Y589916D01*
X678777Y589292D01*
X679130Y588763D01*
X679982Y587911D01*
X680004Y587798D01*
X680402Y587202D01*
X680998Y586804D01*
X681700Y586665D01*
X682402Y586804D01*
X682998Y587202D01*
X683396Y587798D01*
X683535Y588500D01*
X683396Y589202D01*
X682998Y589798D01*
X682402Y590196D01*
X682289Y590218D01*
X681915Y590592D01*
Y593042D01*
X683510Y594636D01*
X683985Y595255D01*
X684283Y595976D01*
X684385Y596749D01*
X684283Y597522D01*
X683985Y598243D01*
X683510Y598862D01*
X682891Y599337D01*
X682171Y599635D01*
X681397Y599737D01*
D02*
G37*
G36*
X374522Y586721D02*
X373644Y586605D01*
X372826Y586267D01*
X372524Y586035D01*
X375636Y582923D01*
X377680Y584968D01*
X376920Y585728D01*
X376218Y586267D01*
X375400Y586605D01*
X374522Y586721D01*
D02*
G37*
G36*
X352251Y591885D02*
X351478Y591783D01*
X350757Y591485D01*
X350138Y591010D01*
X349663Y590391D01*
X349365Y589671D01*
X349263Y588898D01*
X349365Y588124D01*
X349663Y587404D01*
X350138Y586785D01*
X352365Y584558D01*
X352984Y584083D01*
X353705Y583784D01*
X354478Y583683D01*
X355251Y583784D01*
X355972Y584083D01*
X356591Y584558D01*
X357066Y585177D01*
X357364Y585897D01*
X357398Y586153D01*
X359184D01*
X359808Y586277D01*
X360337Y586630D01*
X361089Y587382D01*
X361202Y587404D01*
X361798Y587802D01*
X362196Y588398D01*
X362335Y589100D01*
X362196Y589802D01*
X361798Y590398D01*
X361202Y590796D01*
X360500Y590935D01*
X359798Y590796D01*
X359202Y590398D01*
X358804Y589802D01*
X358782Y589689D01*
X358508Y589415D01*
X355958D01*
X354364Y591010D01*
X353745Y591485D01*
X353024Y591783D01*
X352251Y591885D01*
D02*
G37*
G36*
X410200Y549044D02*
X409842Y548972D01*
X409114Y548486D01*
X408628Y547758D01*
X408556Y547400D01*
X410200D01*
Y549044D01*
D02*
G37*
G36*
X411200D02*
Y547400D01*
X412844D01*
X412772Y547758D01*
X412286Y548486D01*
X411558Y548972D01*
X411200Y549044D01*
D02*
G37*
G36*
X412844Y546400D02*
X411200D01*
Y544756D01*
X411558Y544828D01*
X412286Y545314D01*
X412772Y546042D01*
X412844Y546400D01*
D02*
G37*
G36*
X414500Y540686D02*
X413675Y540578D01*
X412907Y540259D01*
X412247Y539753D01*
X411741Y539093D01*
X411422Y538325D01*
X411314Y537500D01*
X411422Y536675D01*
X411741Y535907D01*
X412247Y535247D01*
X412907Y534741D01*
X413675Y534422D01*
X414500Y534314D01*
X415325Y534422D01*
X416093Y534741D01*
X416753Y535247D01*
X417259Y535907D01*
X417578Y536675D01*
X417686Y537500D01*
X417578Y538325D01*
X417259Y539093D01*
X416753Y539753D01*
X416093Y540259D01*
X415325Y540578D01*
X414500Y540686D01*
D02*
G37*
G36*
X410200Y546400D02*
X408556D01*
X408628Y546042D01*
X409114Y545314D01*
X409842Y544828D01*
X410200Y544756D01*
Y546400D01*
D02*
G37*
G36*
X659534Y574884D02*
X658609Y574700D01*
X657824Y574176D01*
X657300Y573391D01*
X657116Y572466D01*
X657300Y571541D01*
X657824Y570756D01*
X658609Y570232D01*
X659534Y570048D01*
X660459Y570232D01*
X661244Y570756D01*
X661768Y571541D01*
X661952Y572466D01*
X661768Y573391D01*
X661244Y574176D01*
X660459Y574700D01*
X659534Y574884D01*
D02*
G37*
G36*
X671965Y575409D02*
X671205Y574649D01*
X670666Y573947D01*
X670327Y573129D01*
X670211Y572251D01*
X670327Y571373D01*
X670666Y570555D01*
X670898Y570253D01*
X674009Y573364D01*
X671965Y575409D01*
D02*
G37*
G36*
X382537Y575391D02*
X382275Y575129D01*
X381727Y575057D01*
X380973Y574745D01*
X380326Y574248D01*
X379829Y573600D01*
X379517Y572846D01*
X379444Y572298D01*
X379183Y572037D01*
X379410Y571809D01*
Y569234D01*
X378910Y568967D01*
X378459Y569268D01*
X377534Y569452D01*
X376609Y569268D01*
X375824Y568744D01*
X375300Y567959D01*
X375116Y567034D01*
X375300Y566109D01*
X375824Y565324D01*
X376609Y564800D01*
X377534Y564616D01*
X378459Y564800D01*
X378910Y565101D01*
X379410Y564834D01*
Y556463D01*
X379410Y556463D01*
X379463Y556059D01*
X379517Y555654D01*
X379829Y554900D01*
X380326Y554252D01*
X421373Y513205D01*
Y511295D01*
X421289Y511211D01*
X421278Y511196D01*
X420804Y510722D01*
X420789Y510711D01*
X420789Y510711D01*
X415485Y505407D01*
X415028Y505657D01*
X415111Y506032D01*
X415071Y506966D01*
X414789Y507859D01*
X414287Y508647D01*
X413597Y509279D01*
X412767Y509711D01*
X411854Y509914D01*
X410919Y509873D01*
X410652Y509789D01*
X410439Y510246D01*
X410675Y510396D01*
X411307Y511086D01*
X411739Y511916D01*
X411942Y512829D01*
X411901Y513764D01*
X411620Y514656D01*
X411117Y515445D01*
X410427Y516077D01*
X409598Y516509D01*
X408684Y516711D01*
X407750Y516670D01*
X406858Y516389D01*
X406069Y515886D01*
X405437Y515197D01*
X405005Y514367D01*
X404802Y513454D01*
X404843Y512519D01*
X405124Y511627D01*
X405627Y510838D01*
X406317Y510206D01*
X407147Y509774D01*
X408060Y509572D01*
X408994Y509613D01*
X409261Y509697D01*
X409474Y509240D01*
X409238Y509089D01*
X408606Y508399D01*
X408174Y507570D01*
X407972Y506657D01*
X408013Y505722D01*
X408294Y504830D01*
X408797Y504041D01*
X409486Y503409D01*
X410316Y502977D01*
X411229Y502774D01*
X411558Y502789D01*
X411787Y502298D01*
X411565Y502055D01*
X411133Y501226D01*
X410930Y500312D01*
X410971Y499378D01*
X411252Y498486D01*
X411755Y497697D01*
X412445Y497065D01*
X413274Y496633D01*
X414188Y496430D01*
X415122Y496471D01*
X416014Y496752D01*
X416169Y496851D01*
X425500D01*
X425959Y497041D01*
X427959Y499041D01*
X428149Y499500D01*
Y505500D01*
X427959Y505959D01*
X426597Y507321D01*
X426711Y507789D01*
X427208Y508437D01*
X427520Y509191D01*
X427627Y510000D01*
Y514500D01*
X427627Y514500D01*
X427520Y515309D01*
X427208Y516063D01*
X426711Y516711D01*
X385663Y557759D01*
Y571809D01*
X385891Y572037D01*
X385629Y572298D01*
X385557Y572846D01*
X385244Y573600D01*
X384748Y574248D01*
X384100Y574745D01*
X383346Y575057D01*
X382798Y575129D01*
X382537Y575391D01*
D02*
G37*
G36*
X366170Y577966D02*
X365397Y577864D01*
X364676Y577565D01*
X364058Y577091D01*
X363583Y576472D01*
X363284Y575751D01*
X363183Y574978D01*
X363284Y574205D01*
X363583Y573484D01*
X364058Y572865D01*
X366285Y570638D01*
X366904Y570163D01*
X367624Y569865D01*
X367982Y569818D01*
Y569252D01*
X367602Y568998D01*
X367204Y568402D01*
X367065Y567700D01*
X367204Y566998D01*
X367602Y566402D01*
X368198Y566004D01*
X368900Y565865D01*
X369602Y566004D01*
X370198Y566402D01*
X370596Y566998D01*
X370735Y567700D01*
X370596Y568402D01*
X370198Y568998D01*
X369818Y569252D01*
Y570133D01*
X369891Y570163D01*
X370510Y570638D01*
X370985Y571257D01*
X371283Y571978D01*
X371385Y572751D01*
X371283Y573524D01*
X370985Y574245D01*
X370510Y574864D01*
X368283Y577091D01*
X367664Y577565D01*
X366944Y577864D01*
X366170Y577966D01*
D02*
G37*
G36*
X674716Y572657D02*
X671605Y569546D01*
X671907Y569314D01*
X672725Y568975D01*
X673602Y568860D01*
X674480Y568975D01*
X675298Y569314D01*
X676000Y569853D01*
X676760Y570613D01*
X674716Y572657D01*
D02*
G37*
G36*
X498300Y437600D02*
X496656D01*
X496728Y437242D01*
X497214Y436514D01*
X497942Y436028D01*
X498300Y435956D01*
Y437600D01*
D02*
G37*
G36*
X500944D02*
X499300D01*
Y435956D01*
X499658Y436028D01*
X500386Y436514D01*
X500872Y437242D01*
X500944Y437600D01*
D02*
G37*
G36*
X430300Y435744D02*
Y434100D01*
X431944D01*
X431872Y434458D01*
X431386Y435186D01*
X430658Y435672D01*
X430300Y435744D01*
D02*
G37*
G36*
X617200Y437383D02*
X616272Y437261D01*
X615408Y436903D01*
X614666Y436334D01*
X614097Y435592D01*
X613739Y434727D01*
X613617Y433800D01*
X613739Y432872D01*
X614097Y432008D01*
X614666Y431266D01*
X615408Y430697D01*
X616272Y430339D01*
X617200Y430217D01*
X618127Y430339D01*
X618992Y430697D01*
X619734Y431266D01*
X620303Y432008D01*
X620661Y432872D01*
X620783Y433800D01*
X620661Y434727D01*
X620303Y435592D01*
X619734Y436334D01*
X618992Y436903D01*
X618127Y437261D01*
X617200Y437383D01*
D02*
G37*
G36*
X431944Y433100D02*
X430300D01*
Y431456D01*
X430658Y431528D01*
X431386Y432014D01*
X431872Y432742D01*
X431944Y433100D01*
D02*
G37*
G36*
X572839Y446397D02*
Y443929D01*
X574028D01*
Y446397D01*
X572839D01*
D02*
G37*
G36*
X460000Y453131D02*
X459000D01*
X458060Y453007D01*
X457185Y452645D01*
X456432Y452068D01*
X455855Y451315D01*
X455493Y450440D01*
X455369Y449500D01*
X455493Y448560D01*
X455855Y447684D01*
X456432Y446932D01*
X457185Y446355D01*
X458060Y445993D01*
X459000Y445869D01*
X460000D01*
X460940Y445993D01*
X461816Y446355D01*
X462568Y446932D01*
X463145Y447684D01*
X463507Y448560D01*
X463631Y449500D01*
X463507Y450440D01*
X463145Y451315D01*
X462568Y452068D01*
X461816Y452645D01*
X460940Y453007D01*
X460000Y453131D01*
D02*
G37*
G36*
X620753Y447353D02*
X613647D01*
Y440247D01*
X620753D01*
Y447353D01*
D02*
G37*
G36*
X529900Y440044D02*
X529542Y439972D01*
X528814Y439486D01*
X528328Y438758D01*
X528256Y438400D01*
X529900D01*
Y440044D01*
D02*
G37*
G36*
X475000Y459535D02*
X474298Y459396D01*
X473702Y458998D01*
X473304Y458402D01*
X473165Y457700D01*
X473304Y456998D01*
X473702Y456402D01*
X474298Y456004D01*
X475000Y455865D01*
X475702Y456004D01*
X476298Y456402D01*
X476552Y456782D01*
X481720D01*
X497841Y440661D01*
X497866Y440541D01*
X497844Y440247D01*
X497780Y440064D01*
X497214Y439686D01*
X497037Y439422D01*
X496566Y439617D01*
X496635Y439963D01*
X496496Y440666D01*
X496098Y441261D01*
X495502Y441659D01*
X494800Y441799D01*
X494098Y441659D01*
X493502Y441261D01*
X493104Y440666D01*
X492965Y439963D01*
X493031Y439629D01*
X483205Y429803D01*
X483044Y429835D01*
X482341Y429696D01*
X481746Y429298D01*
X481492Y428918D01*
X475500D01*
X475149Y428848D01*
X474851Y428649D01*
X466620Y420418D01*
X463510D01*
X463507Y420440D01*
X463145Y421315D01*
X462568Y422068D01*
X461816Y422645D01*
X460940Y423007D01*
X460000Y423131D01*
X459000D01*
X458060Y423007D01*
X457185Y422645D01*
X456432Y422068D01*
X455855Y421315D01*
X455493Y420440D01*
X455369Y419500D01*
X455493Y418560D01*
X455855Y417685D01*
X456432Y416932D01*
X457185Y416355D01*
X458060Y415993D01*
X459000Y415869D01*
X460000D01*
X460940Y415993D01*
X461816Y416355D01*
X462568Y416932D01*
X463145Y417685D01*
X463507Y418560D01*
X463510Y418582D01*
X467000D01*
X467351Y418652D01*
X467649Y418851D01*
X475880Y427082D01*
X481492D01*
X481746Y426702D01*
X482341Y426304D01*
X483044Y426165D01*
X483746Y426304D01*
X484341Y426702D01*
X484739Y427298D01*
X484879Y428000D01*
X484739Y428702D01*
X484724Y428726D01*
X494238Y438240D01*
X494800Y438128D01*
X495502Y438268D01*
X496098Y438666D01*
X496186Y438798D01*
X496657Y438603D01*
X496656Y438600D01*
X500944D01*
X500872Y438958D01*
X500856Y438983D01*
X501157Y439433D01*
X501500Y439365D01*
X502202Y439504D01*
X502798Y439902D01*
X503196Y440498D01*
X503335Y441200D01*
X503196Y441902D01*
X502798Y442498D01*
X502202Y442896D01*
X501500Y443035D01*
X500798Y442896D01*
X500202Y442498D01*
X499948Y442118D01*
X498980D01*
X482749Y458349D01*
X482451Y458548D01*
X482100Y458618D01*
X476552D01*
X476298Y458998D01*
X475702Y459396D01*
X475000Y459535D01*
D02*
G37*
G36*
X617700Y427721D02*
Y424300D01*
X621121D01*
X621051Y424832D01*
X620653Y425793D01*
X620019Y426619D01*
X619193Y427253D01*
X618232Y427651D01*
X617700Y427721D01*
D02*
G37*
G36*
X474544Y412900D02*
X472900D01*
Y411256D01*
X473258Y411328D01*
X473986Y411814D01*
X474472Y412542D01*
X474544Y412900D01*
D02*
G37*
G36*
X471900Y415544D02*
X471542Y415472D01*
X470814Y414986D01*
X470328Y414258D01*
X470256Y413900D01*
X471900D01*
Y415544D01*
D02*
G37*
G36*
Y412900D02*
X470256D01*
X470328Y412542D01*
X470814Y411814D01*
X471542Y411328D01*
X471900Y411256D01*
Y412900D01*
D02*
G37*
G36*
X472900Y409044D02*
Y407400D01*
X474544D01*
X474472Y407758D01*
X473986Y408486D01*
X473258Y408972D01*
X472900Y409044D01*
D02*
G37*
G36*
X617200Y417383D02*
X616272Y417261D01*
X615408Y416903D01*
X614666Y416334D01*
X614097Y415592D01*
X613739Y414727D01*
X613617Y413800D01*
X613739Y412873D01*
X614097Y412008D01*
X614666Y411266D01*
X615408Y410697D01*
X616272Y410339D01*
X617200Y410217D01*
X618127Y410339D01*
X618992Y410697D01*
X619734Y411266D01*
X620303Y412008D01*
X620661Y412873D01*
X620783Y413800D01*
X620661Y414727D01*
X620303Y415592D01*
X619734Y416334D01*
X618992Y416903D01*
X618127Y417261D01*
X617200Y417383D01*
D02*
G37*
G36*
X621121Y423300D02*
X617700D01*
Y419879D01*
X618232Y419949D01*
X619193Y420347D01*
X620019Y420981D01*
X620653Y421807D01*
X621051Y422768D01*
X621121Y423300D01*
D02*
G37*
G36*
X616700Y427721D02*
X616168Y427651D01*
X615207Y427253D01*
X614381Y426619D01*
X613747Y425793D01*
X613349Y424832D01*
X613279Y424300D01*
X616700D01*
Y427721D01*
D02*
G37*
G36*
Y423300D02*
X613279D01*
X613349Y422768D01*
X613747Y421807D01*
X614381Y420981D01*
X615207Y420347D01*
X616168Y419949D01*
X616700Y419879D01*
Y423300D01*
D02*
G37*
G36*
X472900Y415544D02*
Y413900D01*
X474544D01*
X474472Y414258D01*
X473986Y414986D01*
X473258Y415472D01*
X472900Y415544D01*
D02*
G37*
G36*
X567400Y418400D02*
X565756D01*
X565828Y418042D01*
X566314Y417314D01*
X567042Y416828D01*
X567400Y416756D01*
Y418400D01*
D02*
G37*
G36*
X539944Y454800D02*
X538300D01*
Y453156D01*
X538658Y453228D01*
X539386Y453714D01*
X539872Y454442D01*
X539944Y454800D01*
D02*
G37*
G36*
X577300Y456744D02*
X576942Y456672D01*
X576214Y456186D01*
X575728Y455458D01*
X575656Y455100D01*
X577300D01*
Y456744D01*
D02*
G37*
G36*
X537300Y454800D02*
X535656D01*
X535728Y454442D01*
X536214Y453714D01*
X536942Y453228D01*
X537300Y453156D01*
Y454800D01*
D02*
G37*
G36*
X556900Y461744D02*
Y460100D01*
X558544D01*
X558472Y460458D01*
X557986Y461186D01*
X557258Y461672D01*
X556900Y461744D01*
D02*
G37*
G36*
X515000Y454244D02*
Y452600D01*
X516644D01*
X516572Y452958D01*
X516086Y453686D01*
X515358Y454172D01*
X515000Y454244D01*
D02*
G37*
G36*
X537300Y457444D02*
X536942Y457372D01*
X536214Y456886D01*
X535728Y456158D01*
X535656Y455800D01*
X537300D01*
Y457444D01*
D02*
G37*
G36*
X538300D02*
Y455800D01*
X539944D01*
X539872Y456158D01*
X539386Y456886D01*
X538658Y457372D01*
X538300Y457444D01*
D02*
G37*
G36*
X464000Y459000D02*
X460000D01*
Y455500D01*
X464000D01*
Y459000D01*
D02*
G37*
G36*
X578300Y456744D02*
Y455100D01*
X579944D01*
X579872Y455458D01*
X579386Y456186D01*
X578658Y456672D01*
X578300Y456744D01*
D02*
G37*
G36*
X459000Y459000D02*
X455000D01*
Y455500D01*
X459000D01*
Y459000D01*
D02*
G37*
G36*
X514000Y451600D02*
X512356D01*
X512428Y451242D01*
X512914Y450514D01*
X513642Y450028D01*
X514000Y449956D01*
Y451600D01*
D02*
G37*
G36*
X516644D02*
X515000D01*
Y449956D01*
X515358Y450028D01*
X516086Y450514D01*
X516572Y451242D01*
X516644Y451600D01*
D02*
G37*
G36*
X542800Y451500D02*
X541156D01*
X541228Y451142D01*
X541714Y450414D01*
X542442Y449928D01*
X542800Y449856D01*
Y451500D01*
D02*
G37*
G36*
X482900Y449200D02*
X481256D01*
X481328Y448842D01*
X481814Y448114D01*
X482542Y447628D01*
X482900Y447556D01*
Y449200D01*
D02*
G37*
G36*
X485544D02*
X483900D01*
Y447556D01*
X484258Y447628D01*
X484986Y448114D01*
X485472Y448842D01*
X485544Y449200D01*
D02*
G37*
G36*
X579944Y454100D02*
X578300D01*
Y452456D01*
X578658Y452528D01*
X579386Y453014D01*
X579872Y453742D01*
X579944Y454100D01*
D02*
G37*
G36*
X514000Y454244D02*
X513642Y454172D01*
X512914Y453686D01*
X512428Y452958D01*
X512356Y452600D01*
X514000D01*
Y454244D01*
D02*
G37*
G36*
X577300Y454100D02*
X575656D01*
X575728Y453742D01*
X576214Y453014D01*
X576942Y452528D01*
X577300Y452456D01*
Y454100D01*
D02*
G37*
G36*
X482900Y451844D02*
X482542Y451772D01*
X481814Y451286D01*
X481328Y450558D01*
X481256Y450200D01*
X482900D01*
Y451844D01*
D02*
G37*
G36*
X483900D02*
Y450200D01*
X485544D01*
X485472Y450558D01*
X484986Y451286D01*
X484258Y451772D01*
X483900Y451844D01*
D02*
G37*
%LPD*%
G36*
X427500Y505500D02*
Y499500D01*
X425500Y497500D01*
X416000D01*
X414000Y503000D01*
X422000Y511000D01*
X427500Y505500D01*
D02*
G37*
D10*
X574810Y364490D02*
G03*
X577200Y363500I2390J2390D01*
G01*
X580800Y379500D02*
G03*
X577386Y378086I0J-4828D01*
G01*
X576895Y381100D02*
G03*
X573831Y379831I0J-4332D01*
G01*
X575142Y384000D02*
G03*
X568071Y381071I0J-10000D01*
G01*
X560500Y377300D02*
G03*
X566987Y379987I0J9174D01*
G01*
X450000Y365642D02*
G03*
X452929Y358571I10000J0D01*
G01*
X467071Y344429D02*
G03*
X474142Y341500I7071J7071D01*
G01*
X522815D02*
G03*
X529886Y344429I0J10000D01*
G01*
X452929Y432929D02*
G03*
X450000Y425858I7071J-7071D01*
G01*
X560610Y337752D02*
G03*
X560800Y337831I0J269D01*
G01*
Y329500D02*
G03*
X559697Y329957I-1103J-1103D01*
G01*
X588858Y384000D02*
G03*
X595929Y386929I0J10000D01*
G01*
D02*
G03*
X598000Y391929I-5000J5000D01*
G01*
Y405858D02*
G03*
X595071Y412929I-10000J0D01*
G01*
X592000Y350000D02*
G03*
X593707Y350707I0J2414D01*
G01*
D02*
G03*
X595900Y356001I-5294J5294D01*
G01*
Y363259D02*
G03*
X595800Y363500I-341J0D01*
G01*
X600500Y475600D02*
X600900Y475200D01*
X596750Y475550D02*
X597100Y475200D01*
X472400Y406900D02*
Y413400D01*
X459500Y399500D02*
X472100D01*
X484500Y411900D01*
X475500Y428000D02*
X483044D01*
X467000Y419500D02*
X475500Y428000D01*
X453000Y362500D02*
Y423000D01*
Y362500D02*
X457000Y358500D01*
X453000Y423000D02*
X459500Y429500D01*
X466800Y447800D02*
Y455800D01*
X571100Y368200D02*
X574810Y364490D01*
X574300Y375000D02*
X577386Y378086D01*
X571700Y377700D02*
X573831Y379831D01*
X428600Y489100D02*
X438000Y498500D01*
X428600Y489000D02*
Y489100D01*
X554900Y483900D02*
Y489900D01*
X531639Y506226D02*
Y509601D01*
X531161Y510079D02*
X531639Y509601D01*
X484500Y411900D02*
Y421500D01*
X459500Y419500D02*
X467000D01*
X480250Y374650D02*
Y379006D01*
X477000Y371400D02*
X480250Y374650D01*
X468000Y371400D02*
X477000D01*
X592900Y423400D02*
X596900Y419400D01*
X604500D01*
X594200Y444000D02*
X604700D01*
X586385Y423400D02*
X592900D01*
X368900Y567700D02*
Y572248D01*
X367284Y573865D02*
X368900Y572248D01*
X530600Y434500D02*
X544500Y448400D01*
X501700Y434500D02*
X530600D01*
X469200Y446400D02*
X471600Y444000D01*
X480300D01*
X519900Y423900D02*
X577000D01*
X508600Y412600D02*
X519900Y423900D01*
X508600Y409200D02*
Y412600D01*
X523100Y421500D02*
X584485D01*
X521500Y422700D02*
X577497D01*
X469200Y446400D02*
Y456503D01*
X557500Y440000D02*
X561500Y436000D01*
X567220Y437220D02*
X569779Y439780D01*
X567220Y435545D02*
Y437220D01*
X569779Y439780D02*
Y443429D01*
X567220Y441221D02*
Y443429D01*
X520400Y425100D02*
X575900D01*
X577000Y423900D02*
X581900Y428800D01*
X600500Y475200D02*
Y475600D01*
Y486500D01*
X593400Y475200D02*
X593500Y475300D01*
X575142Y384000D02*
X588858D01*
X566987Y379987D02*
X568071Y381071D01*
X539500Y432500D02*
X548000Y441000D01*
X551500D01*
X507500Y432500D02*
X539500D01*
X557500Y440000D02*
Y442329D01*
X506500Y423500D02*
X510415Y427415D01*
X518085D01*
X496000Y417500D02*
X507500Y429000D01*
X507750Y429250D01*
X544500Y386000D02*
X555500Y397000D01*
X544500Y372785D02*
Y386000D01*
Y357500D02*
X548500Y353500D01*
X553000D01*
X494500Y419500D02*
X507500Y432500D01*
X494500Y388303D02*
Y419500D01*
Y388303D02*
X498003Y384800D01*
X501700D01*
X505000Y381500D01*
X498745Y388530D02*
X510469D01*
X497200Y390076D02*
X498745Y388530D01*
X496000Y388500D02*
X498500Y386000D01*
X509000D01*
X510469Y388530D02*
X513000Y386000D01*
X497200Y410200D02*
X506000Y419000D01*
X497200Y390076D02*
Y410200D01*
X539000Y341500D02*
X562587D01*
X566250Y337837D01*
X496000Y388500D02*
Y417500D01*
X536000Y338000D02*
X540000Y334000D01*
X561756D01*
X566250Y329506D01*
X480095Y350000D02*
X499500D01*
X500500D01*
X475800Y345705D02*
X480095Y350000D01*
X529500Y361610D02*
X553000D01*
X457000Y358500D02*
X521095D01*
X474142Y341500D02*
X522815D01*
X539000Y399500D02*
X573000D01*
X521095Y358500D02*
X532158Y369563D01*
X553000D01*
X551937Y369500D02*
X552437Y369000D01*
X553000Y369563D01*
X537000Y397500D02*
X539000Y399500D01*
X583500Y394500D02*
X588500Y389500D01*
X583500Y394500D02*
Y399000D01*
X537000Y389000D02*
Y397500D01*
X509492Y361492D02*
X537000Y389000D01*
X490008Y361492D02*
X509492D01*
X529000Y388000D02*
Y396500D01*
X490008Y369406D02*
X510405D01*
X529000Y388000D01*
X490008Y376772D02*
Y377240D01*
X452929Y358571D02*
X467071Y344429D01*
X529886D02*
X531161Y345705D01*
X452929Y432929D02*
X459500Y439500D01*
X450000Y365642D02*
Y425858D01*
X481250Y345711D02*
X481256Y345705D01*
X490008D01*
X508000Y502000D02*
X510000D01*
X511083Y510079D02*
X512264D01*
X510000Y502000D02*
X511083Y503083D01*
Y510079D01*
X531161Y345705D02*
X553000D01*
Y337752D02*
X560610D01*
X553000Y329957D02*
X559697D01*
X560479Y377279D02*
X560500Y377300D01*
X553000Y377279D02*
X560479D01*
X592000Y350000D02*
X592571Y350571D01*
X598000Y391929D02*
Y405858D01*
X573000Y399500D02*
X575500Y397000D01*
X581000D01*
X512264Y510079D02*
Y514264D01*
X514500Y516500D01*
X527500D01*
X529980Y514020D01*
Y510079D02*
Y514020D01*
Y510079D02*
X531161D01*
X564661Y435545D02*
X567220D01*
X572339D02*
Y438661D01*
X490008Y330075D02*
X497075D01*
X505000Y338000D01*
X521000Y388740D02*
Y396459D01*
X490008Y377240D02*
X509500D01*
X521000Y388740D01*
X480250Y379006D02*
Y385006D01*
X489861D01*
X490008Y385154D01*
X569779Y439780D02*
X571220D01*
X572339Y438661D01*
X588500Y419500D02*
X595071Y412929D01*
X584485Y421500D02*
X586385Y423400D01*
X518085Y427415D02*
X520400Y425100D01*
X482500Y441800D02*
X483200D01*
X480300Y444000D02*
X482500Y441800D01*
X577200Y363500D02*
X595800D01*
X595900Y356001D02*
Y363259D01*
X561000Y452700D02*
X569400D01*
X561500Y439963D02*
X565964D01*
X567220Y441221D01*
X604600Y433600D02*
X604700Y433700D01*
X594200Y433600D02*
X604600D01*
X589200Y470800D02*
Y486400D01*
X577497Y422700D02*
X583100Y428303D01*
Y463003D01*
X587997Y467900D01*
X599700D01*
X581900Y428800D02*
Y463500D01*
X589200Y470800D01*
X593000Y475200D02*
Y486500D01*
X596750Y475550D02*
Y486500D01*
X604300Y472500D02*
Y486500D01*
X599700Y467900D02*
X604300Y472500D01*
X555500Y397000D02*
X571700D01*
Y409000D02*
Y419000D01*
X575600Y409000D02*
Y419000D01*
X579400Y409000D02*
Y419000D01*
X510900Y406100D02*
Y412100D01*
X521500Y422700D01*
X513000Y402700D02*
Y411400D01*
X523100Y421500D01*
X553000Y456000D02*
Y458500D01*
X544500Y448400D02*
X546700D01*
X550400Y453400D02*
X553000Y456000D01*
X552300Y461800D02*
Y462200D01*
X547000Y456500D02*
X552300Y461800D01*
X579500Y449300D02*
X579900Y448900D01*
Y429100D02*
Y448900D01*
X575900Y425100D02*
X579900Y429100D01*
X556100Y431700D02*
X561500Y426300D01*
X575403D01*
X569400Y443809D02*
X569779Y443429D01*
X569400Y443809D02*
Y452700D01*
X531639Y506226D02*
X540465Y497400D01*
X550200D01*
X514500Y452100D02*
X534600D01*
X537800Y455300D01*
X483044Y428000D02*
Y428344D01*
X494400Y439700D01*
X498800Y438100D02*
Y438933D01*
X488033Y449700D02*
X498800Y438933D01*
X483400Y449700D02*
X488033D01*
X498800Y438100D02*
X504900D01*
X514500Y447700D01*
Y452100D01*
X475000Y457700D02*
X482100D01*
X498600Y441200D01*
X501500D01*
X556400Y459600D02*
X571600D01*
X579400Y467400D01*
X466800Y455800D02*
X479200Y468200D01*
X469200Y456503D02*
X479697Y467000D01*
X531270D02*
X548800Y449470D01*
X479697Y467000D02*
X531270D01*
X479200Y468200D02*
X531767D01*
X550000Y449967D01*
Y448097D02*
Y449967D01*
X548800Y447600D02*
Y449470D01*
Y447600D02*
X554500Y441900D01*
Y438591D02*
Y441900D01*
X550000Y448097D02*
X555768Y442329D01*
X557500D01*
X564661D01*
X556400Y457703D02*
Y459600D01*
X554100Y455403D02*
X556400Y457703D01*
X554100Y446300D02*
Y455403D01*
Y446300D02*
X555800Y444600D01*
X561000D01*
X575403Y426300D02*
X576900Y427797D01*
Y444200D01*
X529000Y396500D02*
X533200Y400700D01*
X581800D01*
X583500Y399000D01*
X521000Y396459D02*
X526441Y401900D01*
X586100D01*
X588500Y399500D01*
D12*
X559729Y322571D02*
G03*
X552658Y325500I-7071J-7071D01*
G01*
X560644Y321656D02*
G03*
X564642Y320000I3998J3998D01*
G01*
X611429Y317071D02*
G03*
X604358Y320000I-7071J-7071D01*
G01*
X680900Y268700D02*
X681416Y269216D01*
X687136D01*
X680284Y589916D02*
X681700Y588500D01*
X680284Y589916D02*
Y595636D01*
X353364Y587784D02*
X359184D01*
X360500Y589100D01*
X362216Y259864D02*
Y265584D01*
X361100Y266700D02*
X362216Y265584D01*
X417800Y343600D02*
Y360900D01*
Y343600D02*
X417900Y343500D01*
X353865Y279465D02*
X417900Y343500D01*
X353865Y268216D02*
Y279465D01*
X376135Y273784D02*
X386181D01*
X412398Y300000D01*
X419000D01*
X439500Y320500D01*
X458500D01*
X463500Y325500D01*
X552658D01*
X559729Y322571D02*
X560644Y321656D01*
X564642Y320000D02*
X604358D01*
X611429Y317071D02*
X667635Y260864D01*
X678784D01*
X624000Y383088D02*
X630500Y376588D01*
X624000Y383088D02*
Y388718D01*
X623974Y388744D02*
X624000Y388718D01*
X623974Y388744D02*
Y493986D01*
X642488Y512500D01*
Y529988D01*
X688635Y576135D01*
Y587284D01*
X654716Y581716D02*
X666364D01*
X567500Y494500D02*
X654716Y581716D01*
X454000Y494500D02*
X567500D01*
X433500Y515000D02*
X454000Y494500D01*
X433500Y515000D02*
Y533500D01*
X370865Y596136D02*
X433500Y533500D01*
X361716Y596136D02*
X370865D01*
X548744Y475156D02*
X553200Y470700D01*
X565400D01*
X474656Y475156D02*
X548744D01*
X471600Y466837D02*
Y472100D01*
X474656Y475156D01*
X469363Y464600D02*
X471600Y466837D01*
X437400Y464600D02*
X469363D01*
X630500Y332500D02*
Y376588D01*
Y332500D02*
X673216Y289784D01*
Y283136D02*
Y289784D01*
D14*
X560494Y382750D02*
D03*
X560500Y377300D02*
D03*
D15*
X480250Y385006D02*
D03*
X474800Y385000D02*
D03*
X480250Y379006D02*
D03*
X474800Y379000D02*
D03*
X481250Y345711D02*
D03*
X475800Y345705D02*
D03*
X566250Y337837D02*
D03*
X560800Y337831D02*
D03*
X566250Y329506D02*
D03*
X560800Y329500D02*
D03*
D17*
X564661Y443429D02*
D03*
X567220D02*
D03*
X569779D02*
D03*
X572339Y443429D02*
D03*
X564661Y435545D02*
D03*
X567220D02*
D03*
X569779D02*
D03*
D18*
X572339D02*
D03*
D43*
X622500Y323174D02*
X659463Y286211D01*
X622500Y323174D02*
Y372000D01*
X609000Y509500D02*
X628500D01*
X424500Y510000D02*
Y514500D01*
X414500Y500000D02*
X423000Y508500D01*
X423500D01*
Y509000D02*
X424500Y510000D01*
X423500Y508500D02*
Y509000D01*
X377963Y287537D02*
X405427Y315000D01*
X424000D01*
Y459256D01*
X444000Y479256D01*
X636500Y539427D02*
X664537Y567463D01*
X636500Y517500D02*
Y539427D01*
X628500Y509500D02*
X636500Y517500D01*
X567756Y479256D02*
X598000Y509500D01*
X455000Y479256D02*
X567756D01*
X598000Y509500D02*
X609000D01*
X382537Y556463D02*
Y572037D01*
Y556463D02*
X424500Y514500D01*
X609000Y385500D02*
X622500Y372000D01*
X609000Y385500D02*
Y509500D01*
D44*
X525606Y505894D02*
X529000Y502500D01*
X522106Y505894D02*
X525606D01*
X520138Y505362D02*
X523000Y502500D01*
X525500Y499000D02*
X529000Y502500D01*
X522500Y499000D02*
X525500D01*
X518169Y503331D02*
X522500Y499000D01*
X518169Y503331D02*
Y510079D01*
X520138Y505362D02*
Y510079D01*
X524075D02*
Y514425D01*
X523500Y515000D02*
X524075Y514425D01*
X521000Y515000D02*
X523500D01*
X520138Y514138D02*
X521000Y515000D01*
X520138Y510079D02*
Y514138D01*
X522106Y505894D02*
Y510079D01*
D45*
X408372Y513141D02*
D03*
X411542Y506344D02*
D03*
X414500Y500000D02*
D03*
X617200Y413800D02*
D03*
Y423800D02*
D03*
Y433800D02*
D03*
D46*
X404991Y520392D02*
D03*
X417881Y492750D02*
D03*
D47*
X538130Y529370D02*
D03*
X504114D02*
D03*
D48*
X538130Y513031D02*
D03*
X504114D02*
D03*
D49*
X532500Y515000D02*
D03*
X509744D02*
D03*
D50*
X382966Y282534D02*
D03*
X659534Y572466D02*
D03*
X377534Y567034D02*
D03*
X664466Y291213D02*
D03*
D51*
X377963Y287537D02*
D03*
X664537Y567463D02*
D03*
D52*
X415500Y322000D02*
D03*
X441200Y361300D02*
D03*
X625500Y532000D02*
D03*
X414500Y537500D02*
D03*
X623000Y314000D02*
D03*
D53*
X457200Y328400D02*
D03*
X431609D02*
D03*
X457200Y348400D02*
D03*
X431609D02*
D03*
D54*
X511216Y487000D02*
D03*
X475783D02*
D03*
D55*
X446000Y527500D02*
D03*
D56*
X457811D02*
D03*
D57*
X382537Y572037D02*
D03*
X659463Y286211D02*
D03*
D58*
X459500Y399500D02*
D03*
Y419500D02*
D03*
Y429500D02*
D03*
Y439500D02*
D03*
Y449500D02*
D03*
Y409500D02*
D03*
Y389500D02*
D03*
X588500Y399500D02*
D03*
Y419500D02*
D03*
Y429500D02*
D03*
Y439500D02*
D03*
Y449500D02*
D03*
Y409500D02*
D03*
Y389500D02*
D03*
D59*
X459500Y459500D02*
D03*
X588500D02*
D03*
D60*
X617200Y443800D02*
D03*
D61*
X472400Y413400D02*
D03*
X509100Y401800D02*
D03*
X500900Y403900D02*
D03*
X535400Y380200D02*
D03*
X537400Y372600D02*
D03*
X541300Y366400D02*
D03*
X594000Y377400D02*
D03*
X410700Y546900D02*
D03*
X466800Y447800D02*
D03*
X540700Y330400D02*
D03*
X677300Y267200D02*
D03*
X628900Y306600D02*
D03*
X571100Y368200D02*
D03*
X576895Y381100D02*
D03*
X571700Y377700D02*
D03*
X580800Y379500D02*
D03*
X574300Y375000D02*
D03*
X437400Y464600D02*
D03*
X565400Y470700D02*
D03*
X554900Y483900D02*
D03*
Y489900D02*
D03*
X550200Y497400D02*
D03*
X494800Y439963D02*
D03*
X468000Y371400D02*
D03*
X604500Y419400D02*
D03*
X604700Y433700D02*
D03*
Y444000D02*
D03*
X368900Y567700D02*
D03*
X680900Y268700D02*
D03*
X681700Y588500D02*
D03*
X360500Y589100D02*
D03*
X361100Y266700D02*
D03*
X501700Y434500D02*
D03*
X483200Y441800D02*
D03*
X513000Y402700D02*
D03*
X510900Y406100D02*
D03*
X508600Y409200D02*
D03*
X417800Y360900D02*
D03*
X428600Y489000D02*
D03*
X475000Y457700D02*
D03*
X594200Y444000D02*
D03*
X561500Y439963D02*
D03*
Y436000D02*
D03*
X556100Y431700D02*
D03*
X579500Y449300D02*
D03*
X575600Y419000D02*
D03*
X571700D02*
D03*
X579400D02*
D03*
X600500Y475200D02*
D03*
X554500Y438591D02*
D03*
X551500Y441000D02*
D03*
X579400Y409000D02*
D03*
X575600D02*
D03*
X571700D02*
D03*
X484500Y421500D02*
D03*
X506500Y423500D02*
D03*
X507500Y429000D02*
D03*
X506000Y419000D02*
D03*
X483044Y428000D02*
D03*
X571700Y397000D02*
D03*
X544500Y372785D02*
D03*
Y357500D02*
D03*
X438000Y498500D02*
D03*
X509000Y386000D02*
D03*
X513000D02*
D03*
X539000Y341500D02*
D03*
X536000Y338000D02*
D03*
X499500Y350000D02*
D03*
X529500Y361610D02*
D03*
X593000Y475200D02*
D03*
Y486500D02*
D03*
X600500D02*
D03*
X596750D02*
D03*
X523000Y502500D02*
D03*
X529000D02*
D03*
X508000Y502000D02*
D03*
X605490Y329000D02*
D03*
X605441Y334500D02*
D03*
X605488Y339000D02*
D03*
X595800Y363500D02*
D03*
X592000Y350000D02*
D03*
X605488Y343500D02*
D03*
X426000Y503500D02*
D03*
X423500Y508500D02*
D03*
X444000Y487000D02*
D03*
X455000D02*
D03*
Y479256D02*
D03*
X444000D02*
D03*
X581000Y397000D02*
D03*
X505000Y338000D02*
D03*
Y381500D02*
D03*
X596750Y475200D02*
D03*
X604300Y486500D02*
D03*
X589200Y486400D02*
D03*
X561000Y452700D02*
D03*
X594200Y433600D02*
D03*
X552300Y462200D02*
D03*
X543300Y452000D02*
D03*
X553000Y458500D02*
D03*
X546700Y448400D02*
D03*
X547000Y456500D02*
D03*
X550400Y453400D02*
D03*
X537800Y455300D02*
D03*
X567900Y418900D02*
D03*
X520050Y403200D02*
D03*
X472400Y406900D02*
D03*
X556400Y459600D02*
D03*
X514500Y452100D02*
D03*
X530400Y437900D02*
D03*
X576900Y444200D02*
D03*
X483400Y449700D02*
D03*
X429800Y433600D02*
D03*
X498800Y438100D02*
D03*
X501500Y441200D02*
D03*
X579400Y467400D02*
D03*
X515253Y464500D02*
D03*
X561000Y444600D02*
D03*
X577800Y454600D02*
D03*
X533900Y404500D02*
D03*
X474000Y533100D02*
D03*
D62*
X367784Y282136D02*
D03*
X376135Y273784D02*
D03*
X362216Y259864D02*
D03*
X353865Y268216D02*
D03*
X674716Y573364D02*
D03*
X666364Y581716D02*
D03*
X680284Y595636D02*
D03*
X688635Y587284D02*
D03*
D63*
X375636Y582216D02*
D03*
X367284Y573865D02*
D03*
X353364Y587784D02*
D03*
X361716Y596136D02*
D03*
X664864Y274784D02*
D03*
X673216Y283136D02*
D03*
X687136Y269216D02*
D03*
X678784Y260864D02*
D03*
D64*
X507933Y510079D02*
D03*
X511083D02*
D03*
X512264D02*
D03*
X514232D02*
D03*
X516201D02*
D03*
X518169D02*
D03*
X520138D02*
D03*
X522106D02*
D03*
X524075D02*
D03*
X526043D02*
D03*
X528012D02*
D03*
X529980D02*
D03*
X531161D02*
D03*
X533130D02*
D03*
X534311D02*
D03*
X509114D02*
D03*
D65*
X541087Y393368D02*
D03*
X533087D02*
D03*
X525087D02*
D03*
X517008D02*
D03*
X509087D02*
D03*
X501087D02*
D03*
D66*
X490008Y385154D02*
D03*
X553000Y385311D02*
D03*
Y377279D02*
D03*
Y369563D02*
D03*
Y361610D02*
D03*
Y353500D02*
D03*
Y345705D02*
D03*
Y337752D02*
D03*
Y329957D02*
D03*
X490008Y330075D02*
D03*
Y337831D02*
D03*
Y345705D02*
D03*
Y353461D02*
D03*
Y361492D02*
D03*
Y369406D02*
D03*
Y377240D02*
D03*
M02*
