G04 Layer_Color=16711935*
%FSLAX25Y25*%
%MOIN*%
G70*
G01*
G75*
%ADD90R,0.03800X0.03800*%
%ADD91R,0.03800X0.03800*%
%ADD93R,0.02178X0.04737*%
%ADD94R,0.02178X0.04737*%
%ADD119C,0.06706*%
G04:AMPARAMS|DCode=120|XSize=47.37mil|YSize=74mil|CornerRadius=0mil|HoleSize=0mil|Usage=FLASHONLY|Rotation=295.000|XOffset=0mil|YOffset=0mil|HoleType=Round|Shape=Round|*
%AMOVALD120*
21,1,0.02663,0.04737,0.00000,0.00000,25.0*
1,1,0.04737,-0.01207,-0.00563*
1,1,0.04737,0.01207,0.00563*
%
%ADD120OVALD120*%

%ADD121O,0.04737X0.07887*%
%ADD122O,0.04737X0.09068*%
%ADD123C,0.03359*%
%ADD124C,0.04343*%
%ADD125P,0.06142X4X360.0*%
%ADD126C,0.05918*%
%ADD127C,0.07000*%
%ADD128C,0.07099*%
%ADD129R,0.08674X0.08674*%
%ADD130C,0.08674*%
%ADD131P,0.06142X4X270.0*%
%ADD132O,0.07800X0.06800*%
%ADD133R,0.07800X0.06800*%
%ADD134R,0.06706X0.06706*%
G04:AMPARAMS|DCode=135|XSize=55.24mil|YSize=86.74mil|CornerRadius=0mil|HoleSize=0mil|Usage=FLASHONLY|Rotation=135.000|XOffset=0mil|YOffset=0mil|HoleType=Round|Shape=Round|*
%AMOVALD135*
21,1,0.03150,0.05524,0.00000,0.00000,225.0*
1,1,0.05524,0.01114,0.01114*
1,1,0.05524,-0.01114,-0.01114*
%
%ADD135OVALD135*%

G04:AMPARAMS|DCode=136|XSize=55.24mil|YSize=86.74mil|CornerRadius=0mil|HoleSize=0mil|Usage=FLASHONLY|Rotation=45.000|XOffset=0mil|YOffset=0mil|HoleType=Round|Shape=Round|*
%AMOVALD136*
21,1,0.03150,0.05524,0.00000,0.00000,135.0*
1,1,0.05524,0.01114,-0.01114*
1,1,0.05524,-0.01114,0.01114*
%
%ADD136OVALD136*%

%ADD137R,0.01981X0.06706*%
%ADD138R,0.04737X0.08674*%
%ADD139R,0.08674X0.04737*%
D90*
X560494Y382750D02*
D03*
X560500Y377300D02*
D03*
D91*
X480250Y385006D02*
D03*
X474800Y385000D02*
D03*
X480250Y379006D02*
D03*
X474800Y379000D02*
D03*
X481250Y345711D02*
D03*
X475800Y345705D02*
D03*
X566250Y337837D02*
D03*
X560800Y337831D02*
D03*
X566250Y329506D02*
D03*
X560800Y329500D02*
D03*
D93*
X564661Y443429D02*
D03*
X567220D02*
D03*
X569779D02*
D03*
X572339Y443429D02*
D03*
X564661Y435545D02*
D03*
X567220D02*
D03*
X569779D02*
D03*
D94*
X572339D02*
D03*
D119*
X408372Y513141D02*
D03*
X411542Y506344D02*
D03*
X414500Y500000D02*
D03*
X617200Y413800D02*
D03*
Y423800D02*
D03*
Y433800D02*
D03*
D120*
X404991Y520392D02*
D03*
X417881Y492750D02*
D03*
D121*
X538130Y529370D02*
D03*
X504114D02*
D03*
D122*
X538130Y513031D02*
D03*
X504114D02*
D03*
D123*
X532500Y515000D02*
D03*
X509744D02*
D03*
D124*
X382966Y282534D02*
D03*
X659534Y572466D02*
D03*
X377534Y567034D02*
D03*
X664466Y291213D02*
D03*
D125*
X377963Y287537D02*
D03*
X664537Y567463D02*
D03*
D126*
X415500Y322000D02*
D03*
X441200Y361300D02*
D03*
X625500Y532000D02*
D03*
X414500Y537500D02*
D03*
X623000Y314000D02*
D03*
D127*
X457200Y328400D02*
D03*
X431609D02*
D03*
X457200Y348400D02*
D03*
X431609D02*
D03*
D128*
X511216Y487000D02*
D03*
X475783D02*
D03*
D129*
X446000Y527500D02*
D03*
D130*
X457811D02*
D03*
D131*
X382537Y572037D02*
D03*
X659463Y286211D02*
D03*
D132*
X459500Y399500D02*
D03*
Y419500D02*
D03*
Y429500D02*
D03*
Y439500D02*
D03*
Y449500D02*
D03*
Y409500D02*
D03*
Y389500D02*
D03*
X588500Y399500D02*
D03*
Y419500D02*
D03*
Y429500D02*
D03*
Y439500D02*
D03*
Y449500D02*
D03*
Y409500D02*
D03*
Y389500D02*
D03*
D133*
X459500Y459500D02*
D03*
X588500D02*
D03*
D134*
X617200Y443800D02*
D03*
D135*
X367784Y282136D02*
D03*
X376135Y273784D02*
D03*
X362216Y259864D02*
D03*
X353865Y268216D02*
D03*
X674716Y573364D02*
D03*
X666364Y581716D02*
D03*
X680284Y595636D02*
D03*
X688635Y587284D02*
D03*
D136*
X375636Y582216D02*
D03*
X367284Y573865D02*
D03*
X353364Y587784D02*
D03*
X361716Y596136D02*
D03*
X664864Y274784D02*
D03*
X673216Y283136D02*
D03*
X687136Y269216D02*
D03*
X678784Y260864D02*
D03*
D137*
X507933Y510079D02*
D03*
X511083D02*
D03*
X512264D02*
D03*
X514232D02*
D03*
X516201D02*
D03*
X518169D02*
D03*
X520138D02*
D03*
X522106D02*
D03*
X524075D02*
D03*
X526043D02*
D03*
X528012D02*
D03*
X529980D02*
D03*
X531161D02*
D03*
X533130D02*
D03*
X534311D02*
D03*
X509114D02*
D03*
D138*
X541087Y393368D02*
D03*
X533087D02*
D03*
X525087D02*
D03*
X517008D02*
D03*
X509087D02*
D03*
X501087D02*
D03*
D139*
X490008Y385154D02*
D03*
X553000Y385311D02*
D03*
Y377279D02*
D03*
Y369563D02*
D03*
Y361610D02*
D03*
Y353500D02*
D03*
Y345705D02*
D03*
Y337752D02*
D03*
Y329957D02*
D03*
X490008Y330075D02*
D03*
Y337831D02*
D03*
Y345705D02*
D03*
Y353461D02*
D03*
Y361492D02*
D03*
Y369406D02*
D03*
Y377240D02*
D03*
M02*
